<?xml version="1.0" standalone="no"?>
<!DOCTYPE svg PUBLIC "-//W3C//DTD SVG 20010904//EN"
 "http://www.w3.org/TR/2001/REC-SVG-20010904/DTD/svg10.dtd">
<svg version="1.0" xmlns="http://www.w3.org/2000/svg"
 width="3000.000000pt" height="4000.000000pt" viewBox="0 0 3000.000000 4000.000000"
 preserveAspectRatio="xMidYMid meet">
<metadata>
Created by potrace 1.16, written by Peter Selinger 2001-2019
</metadata>
<g transform="translate(0.000000,4000.000000) scale(0.100000,-0.100000)"
fill="#000000" stroke="none">
<path d="M12320 37230 c0 -5 -16 -10 -35 -10 -51 0 -108 -63 -136 -150 -17
-53 -18 -220 -2 -277 6 -21 25 -85 42 -143 17 -58 35 -125 42 -150 6 -25 15
-53 20 -63 6 -10 13 -41 16 -68 3 -27 9 -49 13 -49 4 0 15 -35 25 -77 9 -43
21 -96 26 -118 19 -82 38 -231 33 -260 -8 -50 -27 -105 -36 -105 -4 0 -8 -8
-8 -18 0 -9 -11 -29 -24 -43 -13 -14 -26 -34 -30 -45 -3 -11 -15 -30 -25 -41
-23 -25 -51 -77 -51 -96 0 -8 -7 -20 -15 -27 -8 -7 -15 -21 -15 -31 0 -16 -36
-87 -50 -99 -4 -3 -12 -26 -19 -52 -8 -26 -20 -53 -27 -59 -8 -6 -14 -23 -14
-36 0 -14 -11 -52 -24 -86 -14 -34 -28 -75 -32 -92 -3 -16 -17 -50 -30 -75
-33 -64 -70 -160 -78 -203 -4 -20 -11 -37 -15 -37 -9 0 -17 -34 -27 -117 -4
-26 -11 -43 -19 -43 -9 0 -20 -28 -31 -77 -9 -43 -20 -80 -24 -83 -3 -3 -21
-65 -39 -138 -19 -73 -43 -154 -56 -180 -12 -26 -28 -69 -35 -97 -15 -57 -39
-115 -55 -131 -6 -6 -17 -31 -24 -55 -7 -24 -19 -57 -27 -72 -8 -16 -14 -37
-14 -47 0 -9 -7 -23 -15 -30 -8 -7 -15 -21 -15 -31 0 -11 -5 -19 -10 -19 -11
0 -80 -143 -80 -166 0 -8 -9 -22 -20 -31 -12 -11 -20 -30 -20 -49 0 -19 -6
-34 -15 -38 -8 -3 -15 -12 -15 -21 0 -8 -4 -15 -9 -15 -5 0 -13 -12 -19 -27
-5 -16 -19 -39 -31 -52 -12 -13 -26 -41 -31 -62 -6 -21 -17 -45 -25 -53 -8 -8
-15 -22 -15 -30 0 -9 -5 -16 -10 -16 -20 0 -58 -47 -65 -80 -4 -18 -25 -58
-46 -89 -21 -31 -39 -64 -39 -73 0 -10 -8 -27 -17 -38 -10 -10 -28 -30 -40
-44 -12 -13 -25 -36 -29 -50 -3 -14 -9 -26 -13 -26 -4 0 -12 -13 -18 -30 -6
-16 -18 -30 -27 -30 -11 0 -16 -9 -16 -27 0 -41 -11 -73 -24 -73 -10 0 -56
-85 -56 -104 0 -4 -9 -19 -20 -33 -11 -14 -20 -33 -20 -42 0 -9 -9 -23 -20
-31 -11 -8 -20 -24 -20 -35 0 -27 -22 -75 -35 -75 -10 0 -76 -120 -95 -172 -5
-16 -14 -28 -20 -28 -5 0 -10 -10 -10 -22 0 -13 -7 -32 -15 -42 -8 -11 -15
-28 -15 -38 0 -10 -5 -18 -10 -18 -6 0 -14 -8 -17 -17 -4 -10 -19 -38 -35 -62
-15 -25 -28 -53 -28 -63 0 -11 -7 -18 -20 -18 -17 0 -20 -7 -20 -50 0 -27 -3
-50 -8 -50 -4 0 -23 -30 -42 -67 -19 -38 -40 -71 -47 -76 -6 -4 -17 -23 -23
-42 -6 -19 -18 -35 -26 -35 -8 0 -14 -10 -14 -25 0 -14 -9 -43 -20 -65 -11
-22 -20 -46 -20 -55 0 -8 -4 -15 -9 -15 -5 0 -11 -13 -14 -29 -3 -16 -13 -36
-22 -45 -9 -8 -23 -37 -32 -63 -9 -27 -22 -57 -30 -68 -7 -11 -13 -30 -13 -43
0 -13 -6 -30 -12 -37 -28 -32 -38 -45 -38 -51 0 -4 -6 -15 -13 -23 -17 -21
-43 -84 -57 -138 -6 -23 -17 -49 -25 -57 -8 -8 -15 -24 -15 -34 0 -29 -10 -52
-24 -52 -6 0 -22 -36 -36 -80 -14 -44 -28 -80 -32 -80 -4 0 -12 -19 -19 -42
-23 -89 -34 -118 -45 -118 -5 0 -21 -30 -34 -67 -13 -38 -36 -93 -51 -123 -16
-30 -29 -60 -29 -67 0 -23 -23 -63 -37 -63 -9 0 -13 -16 -13 -57 0 -38 -6 -68
-18 -88 -10 -16 -24 -58 -32 -93 -7 -35 -19 -70 -27 -77 -7 -8 -13 -26 -13
-42 0 -16 -6 -53 -14 -83 -8 -30 -18 -88 -21 -127 -6 -52 -12 -73 -21 -73 -11
0 -14 -19 -14 -79 0 -44 -4 -81 -9 -83 -10 -3 -27 -109 -37 -228 -3 -36 -12
-79 -20 -97 -8 -17 -14 -46 -14 -65 0 -18 -4 -49 -10 -68 -5 -19 -14 -66 -19
-105 -20 -144 -35 -230 -42 -235 -4 -3 -8 -38 -11 -78 -2 -44 -9 -76 -16 -81
-7 -4 -17 -39 -23 -77 -10 -73 -34 -162 -56 -204 -7 -14 -13 -30 -13 -37 0
-19 -33 -83 -42 -83 -4 0 -8 -9 -8 -20 0 -21 -33 -60 -50 -60 -5 0 -10 -4 -10
-10 0 -11 -78 -90 -90 -90 -5 0 -10 -10 -12 -22 -2 -12 -12 -27 -23 -33 -32
-16 -132 -119 -139 -143 -4 -13 -16 -22 -27 -22 -10 0 -19 -5 -19 -10 0 -6
-25 -36 -55 -67 -30 -31 -55 -62 -55 -70 0 -7 -9 -13 -20 -13 -11 0 -20 -7
-20 -15 0 -9 -20 -35 -44 -60 -24 -24 -47 -53 -51 -64 -3 -12 -11 -21 -16 -21
-5 0 -9 -6 -9 -14 0 -8 -9 -17 -19 -21 -11 -3 -23 -15 -26 -26 -4 -10 -12 -19
-19 -19 -8 0 -16 -13 -19 -29 -3 -15 -22 -45 -41 -65 -20 -20 -36 -43 -36 -51
0 -8 -7 -15 -15 -15 -8 0 -15 -3 -15 -7 0 -5 -15 -24 -33 -43 -18 -19 -41 -54
-51 -78 -11 -23 -25 -47 -33 -53 -7 -6 -13 -22 -13 -34 0 -13 -3 -25 -8 -27
-4 -1 -22 -50 -40 -108 -18 -57 -40 -112 -47 -120 -8 -9 -18 -32 -21 -51 -4
-19 -15 -52 -25 -73 -11 -22 -19 -54 -19 -71 0 -18 -9 -42 -20 -55 -11 -13
-20 -33 -20 -44 0 -12 -9 -45 -20 -75 -10 -29 -27 -87 -36 -127 -9 -41 -20
-77 -25 -80 -5 -3 -9 -15 -9 -27 0 -12 -7 -56 -15 -97 -9 -41 -21 -97 -26
-125 -6 -27 -14 -59 -18 -70 -12 -30 -31 -113 -31 -135 0 -11 -6 -20 -13 -20
-11 0 -16 -29 -21 -117 -8 -143 -11 -168 -38 -258 -11 -38 -24 -95 -29 -125
-4 -30 -15 -74 -23 -97 -14 -41 -14 -43 4 -43 18 0 20 -7 20 -66 0 -36 5 -95
10 -132 9 -59 22 -174 36 -322 10 -111 37 -322 50 -391 8 -42 14 -92 14 -111
0 -46 -19 -98 -35 -98 -8 0 -17 -9 -20 -20 -4 -11 -17 -28 -31 -36 -13 -9 -24
-22 -24 -29 0 -7 -7 -15 -15 -19 -8 -3 -20 -17 -27 -31 -6 -14 -16 -25 -22
-25 -6 0 -16 -8 -21 -18 -29 -52 -51 -82 -62 -82 -6 0 -13 -12 -15 -27 -2 -20
-9 -29 -24 -31 -14 -2 -28 -17 -39 -43 -10 -21 -22 -39 -26 -39 -4 0 -15 -18
-25 -40 -10 -22 -24 -40 -31 -40 -7 0 -13 -9 -13 -21 0 -11 -18 -39 -40 -61
-22 -23 -40 -49 -40 -60 0 -10 -5 -18 -10 -18 -6 0 -15 -12 -20 -26 -6 -14
-19 -28 -30 -31 -15 -4 -20 -14 -20 -37 -1 -33 -20 -66 -39 -66 -6 0 -11 -7
-11 -15 0 -8 -12 -31 -26 -52 -14 -21 -35 -59 -46 -85 -11 -27 -24 -48 -29
-48 -5 0 -9 -7 -9 -15 0 -8 -14 -36 -30 -62 -17 -26 -30 -52 -30 -57 0 -6 -11
-24 -25 -40 -14 -16 -30 -47 -37 -68 -6 -21 -17 -38 -25 -38 -7 0 -13 -10 -13
-22 0 -13 -18 -42 -41 -66 -32 -33 -40 -48 -35 -66 4 -15 -2 -33 -17 -54 -13
-17 -30 -49 -37 -72 -7 -22 -17 -40 -22 -40 -4 0 -8 -9 -8 -21 0 -11 -16 -40
-35 -63 -19 -24 -35 -53 -35 -64 0 -12 -11 -54 -24 -94 -14 -40 -27 -91 -31
-112 -4 -21 -13 -45 -21 -53 -10 -11 -14 -42 -14 -124 0 -90 -3 -109 -15 -109
-13 0 -15 -42 -15 -319 0 -207 4 -321 10 -323 6 -2 13 -95 17 -241 6 -224 7
-237 25 -237 18 0 19 -8 17 -130 -1 -72 1 -133 4 -137 4 -3 7 -17 7 -30 0 -14
6 -23 16 -23 13 0 15 -7 9 -42 -8 -51 -11 -54 -51 -65 -27 -7 -30 -11 -23 -30
6 -18 16 -23 44 -23 24 0 35 -4 35 -15 0 -8 4 -15 10 -15 15 0 36 -49 53 -125
26 -115 29 -162 11 -180 -8 -8 -19 -15 -23 -15 -4 0 -39 -30 -78 -67 -38 -38
-97 -92 -130 -121 -33 -29 -66 -64 -73 -78 -8 -13 -18 -24 -24 -25 -6 0 -29
-22 -51 -48 -22 -27 -67 -80 -100 -118 -33 -38 -71 -84 -85 -103 -14 -18 -35
-44 -47 -56 -13 -13 -23 -27 -23 -31 0 -4 -10 -20 -23 -34 -12 -15 -35 -44
-52 -64 -16 -21 -42 -52 -57 -70 -16 -18 -28 -35 -28 -38 0 -3 -19 -26 -42
-50 -62 -65 -148 -165 -148 -171 0 -3 -17 -23 -37 -45 -60 -64 -91 -100 -97
-116 -3 -8 -10 -15 -16 -15 -5 0 -10 -5 -10 -10 0 -8 -60 -98 -97 -145 -4 -5
-15 -23 -23 -40 -8 -16 -22 -41 -31 -55 -30 -45 -109 -201 -109 -216 0 -8 -7
-14 -15 -14 -8 0 -15 -9 -15 -19 0 -11 -4 -21 -8 -23 -9 -3 -102 -186 -102
-200 0 -4 -13 -36 -29 -70 -59 -131 -71 -158 -71 -167 0 -5 -13 -35 -28 -67
-16 -33 -37 -85 -46 -116 -10 -32 -22 -58 -27 -58 -5 0 -9 -7 -9 -16 0 -9 -18
-73 -40 -143 -42 -133 -69 -235 -77 -289 -3 -18 -9 -35 -14 -38 -5 -3 -9 -23
-9 -45 0 -22 -5 -50 -12 -62 -14 -28 -21 -570 -9 -707 5 -52 12 -149 16 -215
10 -195 40 -475 55 -530 5 -16 16 -68 25 -115 26 -134 118 -441 159 -535 7
-16 22 -52 31 -80 10 -27 22 -54 27 -60 4 -5 8 -22 8 -37 0 -16 4 -36 9 -46 6
-9 22 -55 36 -102 15 -47 33 -99 41 -117 8 -17 14 -35 14 -41 0 -5 13 -39 30
-75 16 -37 30 -76 30 -87 0 -11 4 -20 9 -20 5 0 11 -10 14 -22 9 -37 59 -172
67 -183 5 -5 18 -39 30 -75 27 -81 35 -99 82 -178 21 -34 38 -71 38 -82 0 -13
7 -20 18 -20 13 0 23 -13 32 -40 7 -22 17 -40 22 -40 4 0 8 -8 8 -18 0 -11 9
-27 20 -37 11 -10 20 -26 20 -36 0 -11 9 -24 20 -31 11 -7 20 -20 20 -30 0
-18 24 -59 82 -139 20 -28 40 -64 43 -80 4 -16 13 -29 21 -29 8 0 14 -7 14
-15 0 -15 37 -77 64 -108 9 -9 16 -22 16 -27 0 -6 5 -10 10 -10 6 0 10 -6 10
-12 0 -7 13 -26 28 -43 16 -16 41 -56 57 -88 15 -33 34 -61 42 -64 7 -3 13
-16 13 -29 0 -14 6 -24 14 -24 8 0 23 -13 33 -30 9 -16 21 -30 25 -30 4 0 8
-9 8 -20 0 -11 6 -23 14 -26 7 -3 28 -28 47 -57 18 -29 37 -53 41 -55 4 -2 8
-11 8 -21 0 -9 15 -42 34 -73 35 -58 46 -73 83 -114 13 -14 30 -38 38 -55 9
-16 24 -35 35 -42 11 -6 20 -16 20 -20 0 -10 61 -90 72 -95 5 -2 8 -10 8 -18
0 -8 7 -14 15 -14 8 0 20 -10 26 -22 11 -23 57 -68 68 -68 3 0 14 -14 23 -31
10 -17 22 -28 27 -24 6 3 20 -12 33 -34 12 -22 35 -47 50 -56 16 -9 28 -20 28
-26 0 -5 9 -9 21 -9 12 0 23 -8 26 -20 3 -11 11 -20 19 -20 7 0 18 -9 24 -20
6 -11 17 -20 25 -20 8 0 15 -6 15 -14 0 -8 9 -17 19 -21 11 -3 23 -15 26 -26
4 -10 13 -19 21 -19 8 0 14 -4 14 -8 0 -4 18 -19 40 -32 22 -14 40 -30 40 -37
0 -6 18 -20 40 -30 22 -10 40 -25 40 -33 0 -8 18 -24 40 -34 22 -11 40 -23 40
-28 0 -4 7 -8 15 -8 8 0 15 -7 15 -15 0 -8 7 -15 15 -15 8 0 15 -4 15 -9 0 -5
14 -14 30 -21 17 -7 36 -21 43 -31 7 -9 25 -23 40 -30 15 -7 26 -19 25 -28 -2
-11 7 -17 32 -21 26 -4 36 -11 40 -29 3 -13 12 -27 20 -31 8 -4 29 -14 45 -23
17 -9 44 -23 61 -31 17 -9 34 -22 37 -31 4 -8 15 -15 25 -15 10 0 28 -11 40
-25 12 -14 31 -25 42 -25 11 0 20 -6 20 -14 0 -7 14 -16 32 -20 17 -3 28 -9
24 -13 -7 -7 76 -63 94 -63 5 0 10 -4 10 -10 0 -5 7 -10 15 -10 8 0 15 -4 15
-10 0 -5 16 -16 35 -24 19 -8 38 -22 41 -31 3 -8 15 -15 25 -15 11 0 22 -6 25
-14 3 -8 18 -16 35 -20 21 -4 29 -11 29 -26 0 -17 4 -19 25 -14 16 4 25 2 25
-5 0 -7 21 -22 48 -33 26 -11 57 -31 70 -44 13 -12 36 -26 52 -29 16 -4 44
-16 62 -28 33 -23 92 -52 161 -81 21 -9 36 -20 33 -25 -3 -5 1 -11 9 -15 8 -3
15 -1 15 4 0 9 86 -34 111 -56 8 -8 22 -14 30 -14 8 0 19 -8 26 -19 6 -10 28
-22 48 -25 20 -4 39 -14 42 -22 3 -8 11 -13 18 -10 7 2 19 -4 28 -15 10 -11
23 -16 32 -12 11 4 18 -1 22 -15 3 -12 14 -24 24 -27 10 -4 19 -10 19 -15 0
-13 60 -30 85 -24 17 4 26 0 35 -15 6 -13 21 -21 35 -21 14 0 33 -9 42 -20 10
-11 27 -20 39 -20 40 0 84 -21 84 -41 0 -10 5 -19 11 -19 5 0 7 4 4 10 -3 6
-1 10 6 10 18 0 139 -62 139 -71 0 -5 9 -9 19 -9 11 0 23 -4 26 -10 3 -5 13
-10 22 -10 9 0 24 -6 32 -14 27 -24 123 -58 181 -63 30 -2 57 -8 60 -12 3 -4
18 -11 33 -15 23 -5 26 -10 18 -20 -13 -16 13 -26 67 -26 17 0 32 -4 32 -10 0
-11 33 -21 81 -24 18 -1 38 -11 46 -22 12 -16 15 -17 23 -4 8 12 11 11 16 -8
5 -18 13 -22 39 -20 18 1 39 -3 47 -9 7 -6 28 -14 46 -18 18 -4 36 -13 39 -21
3 -8 18 -13 40 -12 19 1 38 -3 41 -9 4 -5 41 -20 82 -32 41 -12 100 -31 130
-43 30 -11 80 -29 110 -39 30 -11 70 -26 88 -35 18 -8 37 -12 44 -8 7 4 8 3 4
-4 -5 -8 4 -12 28 -12 19 0 39 -6 43 -14 4 -7 31 -16 58 -19 51 -6 105 -26
105 -39 0 -5 6 -8 13 -8 17 0 67 -23 67 -32 0 -3 19 -4 42 -1 35 5 40 4 35
-10 -6 -16 20 -27 76 -32 16 -2 34 -8 40 -14 6 -6 23 -11 38 -11 28 0 75 -13
126 -36 17 -8 38 -11 47 -8 9 3 16 2 16 -4 0 -11 32 -23 77 -27 17 -2 50 -13
72 -24 22 -12 51 -21 65 -21 14 0 28 -4 31 -10 3 -5 17 -10 31 -10 14 0 35 -5
47 -12 21 -11 61 -21 132 -35 17 -3 38 -14 48 -24 19 -21 37 -25 37 -9 0 6 10
4 23 -4 24 -16 146 -50 240 -68 31 -6 57 -14 57 -19 0 -4 26 -11 58 -15 31 -3
66 -11 77 -17 11 -6 27 -12 35 -13 34 -4 179 -34 237 -48 64 -16 150 -30 288
-46 44 -5 107 -16 140 -24 33 -8 83 -18 110 -22 28 -3 56 -11 62 -16 7 -6 20
-8 28 -4 14 5 268 -26 320 -39 38 -10 377 -35 543 -41 92 -3 173 -7 180 -9 7
-3 92 -7 190 -11 97 -4 187 -11 200 -15 13 -5 71 -9 130 -10 153 -1 217 -11
245 -37 27 -25 72 -29 94 -7 8 8 18 13 22 11 4 -3 184 -8 401 -11 217 -4 397
-9 400 -10 11 -6 648 15 885 30 223 14 486 38 690 65 220 28 325 42 370 50 28
5 82 14 120 21 39 6 97 17 130 24 33 8 105 23 160 35 184 39 399 91 540 131
286 80 286 80 310 90 11 5 72 23 135 40 63 17 138 38 165 46 28 8 82 23 120
33 39 10 106 28 150 40 44 12 94 25 110 28 17 2 32 8 35 11 6 7 141 50 240 76
36 10 101 31 146 46 44 16 92 29 106 29 14 0 31 6 37 14 7 8 41 22 77 32 36 9
67 21 70 26 3 4 15 8 28 8 12 0 26 4 31 9 6 5 37 16 70 26 58 16 125 43 135
54 3 4 50 21 105 40 55 19 104 38 110 42 5 5 16 9 24 9 8 0 53 20 100 44 47
24 101 47 120 51 19 4 43 16 55 26 11 11 30 19 43 19 13 0 23 4 23 9 0 5 17
15 37 22 21 6 43 18 51 25 7 7 29 16 50 20 20 4 39 10 42 14 3 3 19 13 35 22
17 8 73 37 125 65 52 27 111 53 132 57 20 3 39 13 42 21 3 8 15 15 26 15 12 0
36 11 54 25 18 14 40 25 49 25 10 0 17 4 17 9 0 5 17 16 38 24 21 8 44 22 51
31 8 9 22 16 32 16 10 0 21 5 25 11 3 6 30 22 58 35 63 29 159 86 176 104 9 9
44 29 88 49 24 12 61 34 82 51 21 16 45 30 53 30 8 0 17 4 19 8 4 10 126 92
137 92 4 0 16 9 28 19 11 11 39 29 61 40 22 11 43 25 47 31 3 5 15 10 26 10
10 0 19 6 19 13 0 14 76 67 97 67 6 0 23 10 37 23 53 48 80 67 93 67 7 0 13 5
13 10 0 6 6 10 13 10 8 0 24 11 37 25 13 14 29 25 35 25 7 0 20 9 30 20 10 11
24 20 32 20 7 0 13 3 13 8 0 4 27 24 59 45 33 21 62 45 65 53 3 7 11 14 17 14
6 0 28 14 48 30 44 37 48 40 91 65 19 10 49 34 66 52 17 18 36 33 42 33 6 0
23 14 39 30 15 17 32 30 37 30 10 0 68 47 116 95 20 19 41 35 48 35 6 0 12 4
12 10 0 14 133 140 147 140 7 0 13 9 13 20 0 11 6 20 13 20 16 0 67 52 67 68
0 7 6 12 14 12 7 0 20 10 29 23 8 12 25 33 39 47 13 14 51 57 83 95 33 39 72
81 86 95 15 14 31 32 35 42 9 16 86 107 137 160 15 16 27 32 27 36 0 5 14 21
30 37 17 16 30 34 30 40 0 6 11 18 25 25 14 7 25 17 25 22 0 5 5 14 10 21 64
77 150 187 150 192 0 3 5 11 10 18 21 25 60 88 60 97 0 6 4 10 9 10 11 0 81
141 81 163 0 9 4 18 9 21 12 8 71 171 71 197 0 10 4 19 9 19 5 0 18 37 29 83
12 45 26 102 32 127 6 25 16 53 21 62 8 16 25 101 50 253 6 33 14 101 19 150
11 125 23 162 91 299 32 66 59 126 59 132 0 7 7 20 17 29 9 9 29 54 44 98 15
45 34 100 43 122 8 22 17 59 21 82 3 23 12 63 19 90 100 367 114 427 151 663
84 528 118 1207 81 1590 -38 381 -85 611 -174 845 -46 119 -68 167 -146 319
-96 188 -105 203 -128 230 -10 11 -18 24 -18 28 0 5 -30 54 -67 111 -38 56
-72 109 -78 118 -122 196 -233 327 -522 616 -184 184 -283 290 -283 303 0 11
-4 20 -10 20 -5 0 -10 -7 -10 -15 0 -8 -5 -15 -11 -15 -18 0 -36 -24 -44 -58
-3 -17 -11 -34 -16 -37 -5 -4 -9 -13 -9 -20 0 -28 -117 -260 -147 -293 -7 -7
-13 -18 -13 -23 0 -9 -43 -72 -60 -89 -3 -3 -38 -54 -79 -115 -41 -60 -106
-152 -145 -203 -39 -52 -78 -104 -86 -115 -8 -12 -18 -23 -22 -25 -5 -2 -8 -8
-8 -14 0 -6 -15 -29 -33 -52 -18 -23 -44 -58 -57 -78 -14 -21 -28 -38 -32 -38
-5 0 -8 -4 -8 -9 0 -5 -9 -20 -20 -33 -27 -32 -135 -171 -195 -251 -27 -36
-56 -66 -63 -67 -7 0 -21 -19 -31 -41 -11 -23 -50 -76 -87 -117 -76 -84 -491
-502 -498 -502 -3 0 -16 -10 -29 -22 -13 -13 -70 -66 -126 -118 -57 -52 -144
-135 -195 -185 -51 -49 -113 -108 -137 -130 -25 -22 -72 -65 -105 -95 -33 -30
-71 -64 -85 -75 -13 -11 -49 -39 -79 -63 -30 -25 -59 -50 -65 -56 -5 -7 -32
-27 -60 -46 -27 -19 -66 -48 -85 -66 -59 -56 -95 -84 -104 -84 -4 0 -36 -22
-71 -50 -35 -27 -65 -50 -68 -50 -6 0 -129 -80 -137 -89 -6 -7 -29 -21 -80
-51 -53 -31 -72 -43 -94 -63 -12 -10 -50 -32 -86 -49 -152 -72 -227 -106 -260
-117 -19 -7 -48 -19 -63 -28 -15 -8 -40 -13 -55 -10 -15 2 -21 2 -14 0 19 -7
14 -20 -10 -26 -31 -7 -87 -27 -118 -42 -14 -7 -47 -17 -75 -24 -27 -7 -66
-16 -87 -22 -20 -5 -58 -14 -85 -20 -26 -5 -77 -16 -113 -24 -125 -26 -204
-40 -545 -95 -213 -34 -531 -43 -715 -20 -153 19 -370 67 -575 126 -66 19
-142 42 -170 49 -302 87 -557 168 -642 206 -24 11 -46 19 -50 19 -17 0 -267
111 -443 198 -204 100 -302 160 -485 298 -185 140 -251 197 -318 278 -32 38
-40 55 -39 82 2 20 -2 34 -9 34 -6 0 -9 7 -5 15 6 17 -2 19 -23 6 -11 -7 -11
-10 1 -17 17 -10 34 -54 21 -54 -10 0 -85 103 -96 132 -8 21 -7 21 13 3 11
-10 20 -14 20 -9 0 14 -14 30 -32 37 -9 3 -19 21 -23 39 -4 18 -16 44 -25 58
-19 27 -40 120 -40 178 0 19 9 53 19 76 10 23 24 61 31 86 18 68 47 129 96
196 67 96 101 120 374 274 8 4 67 20 130 35 63 15 162 42 219 61 57 19 110 34
117 34 8 0 14 4 14 9 0 4 16 11 35 14 19 3 91 27 160 52 82 31 138 46 163 44
38 -2 125 13 202 36 25 7 97 27 160 45 63 18 147 42 185 55 66 21 267 79 380
110 362 98 503 139 720 211 55 18 116 37 135 43 34 9 168 58 280 101 30 12 82
30 115 40 33 10 78 25 100 33 22 9 135 46 250 83 116 37 215 70 220 74 6 4 48
20 95 35 47 16 99 34 116 42 67 28 305 113 316 113 7 0 25 6 40 14 15 8 168
60 340 116 172 56 392 129 488 162 96 33 195 67 220 75 25 9 110 39 190 68 80
29 219 78 310 108 287 96 653 224 766 268 72 28 138 46 194 53 61 8 98 19 130
38 153 91 153 91 310 99 159 7 341 -3 435 -25 104 -25 128 -29 121 -18 -3 5
-18 12 -33 15 -16 3 -47 12 -70 21 -26 9 -108 20 -210 27 -92 6 -171 14 -175
18 -4 3 -1 51 7 106 8 55 15 121 15 147 0 25 5 48 10 50 9 3 15 216 22 753 2
211 -14 591 -27 650 -16 71 -35 233 -35 304 0 28 -4 51 -10 51 -5 0 -10 9 -10
19 0 11 -4 23 -10 26 -5 3 -10 25 -10 48 0 62 -28 220 -40 227 -6 3 -12 29
-14 56 -2 27 -13 67 -24 89 -11 22 -26 70 -33 105 -8 36 -22 74 -31 84 -10 11
-18 36 -18 55 0 20 -9 56 -20 80 -11 24 -20 49 -20 56 0 8 -6 20 -13 27 -19
19 -47 78 -47 100 0 22 -35 94 -50 103 -5 3 -10 15 -10 25 0 10 -4 20 -8 22
-5 2 -23 29 -40 61 -18 31 -46 83 -64 115 -17 31 -35 59 -40 60 -4 2 -8 12 -8
23 0 10 -6 19 -14 19 -16 0 -29 27 -20 41 3 5 -4 21 -15 35 -12 15 -21 33 -21
41 0 14 -23 43 -34 43 -19 0 -58 57 -59 87 -2 27 -6 33 -19 29 -11 -2 -18 1
-18 9 0 19 -55 75 -74 75 -9 0 -16 8 -16 20 0 11 -7 20 -15 20 -8 0 -15 3 -15
8 0 4 -4 13 -9 21 -8 12 -11 12 -24 -1 -20 -20 -34 -72 -47 -182 -6 -48 -18
-114 -26 -145 -19 -67 -30 -110 -43 -173 -11 -50 -49 -129 -78 -164 -10 -11
-45 -37 -78 -58 -33 -21 -80 -57 -105 -80 -59 -55 -115 -96 -132 -96 -9 1 -7
5 5 14 18 14 24 56 8 56 -5 0 -16 -7 -24 -15 -11 -11 -22 -12 -48 -5 -20 6
-35 6 -37 1 -3 -8 -34 -3 -109 20 -18 6 -42 12 -55 14 -13 3 -32 16 -44 30
-12 16 -26 23 -36 20 -10 -4 -25 5 -42 25 -14 17 -30 29 -35 26 -5 -3 -20 3
-34 14 -14 11 -28 20 -31 20 -3 0 -16 10 -30 23 -13 12 -37 29 -53 37 -41 21
-64 42 -75 70 -6 15 -12 20 -15 13 -6 -15 -63 -18 -63 -3 0 6 -9 10 -19 10
-11 0 -31 14 -45 31 -23 27 -32 31 -59 26 -18 -3 -26 -3 -19 0 23 9 12 33 -18
40 -16 3 -30 12 -30 19 0 14 -10 17 -59 18 -13 1 -26 8 -28 16 -4 13 -3 13 6
0 8 -11 11 -4 11 30 l-1 45 -19 -24 c-15 -18 -20 -19 -20 -7 0 9 -4 16 -9 16
-5 0 -11 8 -15 18 -3 9 -21 39 -41 66 -36 50 -46 78 -20 56 8 -6 19 -9 25 -5
14 9 13 -18 -2 -33 -9 -9 -9 -12 -1 -12 7 0 14 -9 18 -19 3 -11 15 -23 26 -26
10 -4 19 -13 19 -21 0 -8 5 -14 10 -14 17 0 24 31 10 40 -7 4 -10 15 -7 23 4
11 1 14 -8 11 -20 -8 -45 20 -45 50 0 16 -6 26 -14 26 -7 0 -21 11 -30 25 -20
31 -36 32 -36 3 0 -21 -1 -21 -15 6 -19 35 -19 42 -1 27 12 -10 14 -6 13 24
-1 19 -6 35 -12 35 -10 0 -39 39 -37 50 0 3 -8 14 -19 26 -12 12 -17 28 -13
38 5 12 2 15 -10 10 -12 -5 -21 6 -36 42 -14 32 -24 44 -29 36 -8 -13 -41 -6
-41 9 0 4 7 6 17 2 13 -5 15 -2 10 18 -4 13 -7 32 -7 42 0 10 -4 15 -10 12 -5
-3 -17 12 -26 35 -15 38 -17 39 -31 23 -8 -10 -12 -12 -8 -5 9 17 -13 84 -33
100 -9 7 -11 12 -4 12 16 0 15 12 -3 36 -13 16 -16 17 -25 4 -8 -12 -10 -8 -8
17 1 19 -5 40 -15 51 -9 10 -17 23 -17 29 0 5 -9 18 -20 28 -13 12 -20 31 -20
57 0 21 -4 38 -10 38 -5 0 -10 -4 -10 -9 0 -5 -9 -11 -21 -14 -19 -5 -20 -4
-5 12 21 23 20 25 -8 56 -14 15 -27 36 -29 48 -3 18 -5 17 -6 -5 0 -16 -4 -28
-8 -28 -11 1 -44 73 -36 79 3 4 8 0 10 -6 7 -19 23 -16 23 4 0 24 -42 123 -52
123 -4 0 -8 7 -8 15 0 8 -5 15 -11 15 -5 0 -8 4 -5 9 10 16 -31 43 -54 36 -16
-5 -23 -2 -27 14 -3 12 -9 21 -14 21 -5 0 -9 8 -8 18 0 10 3 12 6 5 2 -7 9
-13 15 -13 6 0 8 7 4 15 -4 10 1 15 14 15 11 0 20 3 20 8 0 11 -20 38 -20 27
0 -5 -16 8 -36 29 -29 31 -38 36 -45 25 -7 -10 -8 -6 -3 13 5 23 3 26 -15 21
-13 -3 -21 -1 -21 6 0 7 5 9 10 6 6 -4 10 5 10 19 0 29 -17 35 -22 9 -3 -13
-7 -8 -16 16 -11 30 -10 32 5 20 14 -12 16 -12 11 1 -2 8 -14 19 -26 25 -39
17 -37 43 3 59 6 2 5 9 -2 17 -7 7 -13 21 -13 30 0 9 -7 19 -15 23 -8 3 -15
14 -15 24 0 11 -7 25 -15 32 -8 7 -15 19 -15 26 0 8 -4 14 -10 14 -5 0 -12 16
-16 35 -3 19 -12 39 -20 46 -12 9 -13 6 -8 -22 4 -29 4 -31 -6 -16 -7 11 -10
32 -6 48 6 29 -7 48 -20 28 -4 -7 -21 25 -40 72 -19 46 -38 93 -43 104 -6 11
-22 61 -37 110 -14 50 -30 97 -35 105 -12 20 -12 20 -49 140 -18 58 -39 124
-46 148 -8 23 -14 56 -14 72 0 31 -76 268 -111 347 -32 70 -36 80 -60 163 -50
172 -57 198 -68 260 -7 36 -16 81 -21 100 -4 19 -13 67 -19 105 -7 39 -18 106
-26 150 -36 206 -40 243 -22 263 21 23 21 32 3 32 -25 0 -34 24 -52 140 -14
92 -18 195 -20 505 -3 461 -2 437 -14 407 -12 -27 -58 -28 -108 0 -18 10 -39
18 -47 18 -8 0 -15 4 -15 9 0 5 -10 13 -22 17 -12 3 -26 10 -32 15 -20 17
-146 79 -159 79 -7 0 -23 9 -35 20 -12 11 -26 20 -32 20 -5 0 -10 7 -10 16 0
18 -23 44 -39 44 -6 0 -11 5 -11 10 0 6 -6 10 -12 10 -7 0 -26 22 -42 48 -25
40 -30 57 -30 121 -1 41 -2 67 -4 58 -2 -10 -7 -17 -12 -17 -10 0 -40 119 -40
160 0 16 -4 30 -9 30 -13 0 -41 87 -41 127 0 18 -4 33 -8 33 -10 0 -32 90 -32
131 0 16 -4 29 -10 29 -13 0 -30 66 -30 118 0 29 -4 42 -14 42 -20 0 -26 23
-26 96 0 57 -2 64 -20 64 -18 0 -20 7 -20 80 0 71 -2 80 -18 80 -15 0 -22 16
-36 80 -10 44 -22 80 -26 80 -4 0 -13 36 -21 80 -8 53 -17 80 -26 80 -7 0 -13
9 -13 19 0 11 -4 23 -10 26 -5 3 -10 31 -10 61 0 40 -4 54 -14 54 -8 0 -22 21
-31 48 -10 26 -26 72 -37 102 -11 30 -33 83 -49 118 -16 34 -29 73 -29 86 0
14 -6 31 -12 38 -18 18 -38 79 -38 112 0 29 -16 67 -33 78 -6 3 -10 32 -9 62
1 43 -2 56 -13 56 -8 0 -15 5 -15 10 0 6 -7 10 -15 10 -10 0 -17 14 -21 40 -4
22 -10 40 -14 40 -11 0 -40 94 -40 129 0 19 -5 31 -13 31 -7 0 -24 29 -38 66
-13 36 -32 74 -41 84 -10 11 -18 30 -18 44 0 13 -6 31 -12 38 -18 20 -38 56
-38 69 0 23 -85 179 -97 179 -7 0 -13 9 -13 19 0 10 -11 39 -25 62 -14 24 -25
52 -25 62 0 9 -6 17 -13 17 -8 0 -20 18 -27 40 -7 22 -17 40 -22 40 -4 0 -8 6
-8 13 0 18 -24 67 -32 67 -5 0 -8 9 -8 20 0 10 -11 30 -23 42 -13 13 -27 36
-30 50 -4 15 -13 33 -20 40 -6 7 -21 29 -31 48 -11 19 -28 42 -38 51 -10 9
-18 28 -18 43 0 15 -6 26 -14 26 -7 0 -22 17 -31 37 -10 20 -28 47 -41 59 -12
13 -25 32 -29 43 -3 10 -15 21 -25 24 -15 4 -20 14 -20 41 0 27 -4 36 -17 37
-25 0 -59 47 -72 97 -7 26 -18 42 -27 42 -20 0 -44 24 -44 44 0 9 -6 16 -13
16 -8 0 -19 10 -25 23 -7 12 -16 29 -21 37 -5 8 -15 30 -21 48 -8 19 -19 32
-30 32 -19 0 -50 30 -50 48 0 7 -4 12 -9 12 -5 0 -14 13 -21 30 -11 26 -21 41
-60 87 -5 7 -10 19 -10 28 0 8 -6 15 -13 15 -18 0 -47 37 -47 60 0 10 -11 30
-25 44 -14 14 -25 32 -25 41 0 8 -4 15 -10 15 -5 0 -10 12 -10 26 0 27 -20 54
-42 54 -24 1 -48 27 -48 52 0 17 -7 27 -20 31 -11 3 -23 13 -26 24 -17 51 -27
73 -36 73 -15 0 -98 89 -98 104 0 8 -13 26 -30 39 -17 14 -30 29 -30 34 0 4
-18 28 -40 52 -23 25 -40 54 -40 67 0 13 -5 24 -11 24 -16 0 -39 26 -39 44 0
9 -7 16 -15 16 -8 0 -15 8 -15 18 0 20 -31 62 -46 62 -5 0 -16 9 -24 21 -26
37 -47 59 -56 59 -5 0 -18 18 -28 40 -11 22 -25 40 -32 40 -23 0 -54 33 -54
57 0 17 -6 23 -23 23 -18 0 -28 10 -42 40 -12 26 -25 40 -37 40 -10 0 -18 5
-18 10 0 6 -9 10 -20 10 -11 0 -20 4 -20 8 0 13 -36 52 -47 52 -5 0 -27 18
-49 40 -21 22 -45 40 -51 40 -7 0 -13 5 -13 11 0 15 -59 69 -75 69 -7 0 -15
14 -18 30 -4 18 -13 30 -22 30 -19 0 -130 109 -139 136 -3 10 -19 25 -35 32
-17 7 -33 22 -36 33 -4 10 -12 19 -20 19 -8 0 -17 9 -20 20 -3 11 -12 20 -19
20 -8 0 -19 14 -26 30 -7 17 -19 30 -27 30 -19 0 -43 25 -43 44 0 9 -6 16 -14
16 -8 0 -18 9 -21 20 -3 11 -15 20 -26 20 -12 0 -19 7 -19 18 0 25 -33 62 -55
62 -10 0 -36 18 -57 40 -22 22 -45 40 -51 40 -18 1 -74 55 -82 79 -3 12 -13
21 -21 21 -8 0 -23 13 -32 30 -11 19 -25 30 -39 30 -25 0 -55 25 -66 54 -4 10
-15 20 -26 23 -10 2 -29 22 -42 43 -13 22 -31 40 -40 40 -8 0 -53 36 -100 80
-46 44 -89 80 -96 80 -6 0 -15 9 -18 20 -3 11 -12 20 -20 20 -7 0 -25 14 -38
30 -14 17 -30 30 -36 30 -6 0 -11 5 -11 10 0 6 -9 10 -21 10 -12 0 -23 8 -26
20 -3 12 -14 20 -26 20 -11 0 -38 18 -59 40 -22 22 -46 40 -53 40 -8 0 -17 9
-20 20 -3 11 -12 20 -20 20 -8 0 -17 9 -20 20 -4 13 -15 20 -33 20 -17 0 -48
18 -87 50 -33 28 -65 50 -72 50 -7 0 -13 4 -13 8 0 5 -12 15 -27 23 -16 7 -52
33 -81 56 -30 24 -70 51 -90 60 -37 17 -49 25 -81 53 -9 8 -29 21 -44 29 -15
8 -27 18 -27 23 0 4 -7 8 -15 8 -8 0 -15 4 -15 8 0 5 -21 20 -47 33 -27 13
-55 32 -64 41 -9 10 -24 18 -33 18 -9 0 -25 9 -36 20 -11 11 -24 20 -29 20 -5
0 -13 9 -16 20 -3 11 -15 20 -26 20 -10 0 -19 5 -19 10 0 6 -9 10 -20 10 -11
0 -20 5 -20 10 0 6 -7 10 -15 10 -8 0 -15 5 -15 10 0 6 -7 10 -15 10 -8 0 -24
9 -35 20 -11 11 -31 20 -45 20 -14 0 -25 4 -25 9 0 5 -9 13 -20 16 -11 3 -20
13 -20 21 0 8 -8 14 -19 14 -10 0 -32 14 -49 30 -18 17 -38 30 -46 30 -25 0
-46 12 -46 26 0 8 -9 14 -21 14 -12 0 -34 14 -49 30 -15 17 -33 30 -39 30 -6
0 -11 5 -11 10 0 6 -9 10 -20 10 -11 0 -20 5 -20 10 0 6 -7 10 -15 10 -8 0
-15 5 -15 10 0 6 -6 10 -13 10 -7 0 -19 9 -27 20 -8 11 -25 20 -39 20 -22 0
-61 33 -61 52 0 4 -13 8 -28 8 -16 0 -34 8 -42 20 -8 11 -20 20 -27 20 -7 0
-13 4 -13 9 0 5 -15 12 -34 15 -18 4 -46 18 -62 31 -16 14 -41 31 -56 38 -16
6 -28 15 -28 19 0 5 -10 8 -23 8 -26 0 -77 21 -77 33 0 4 -7 7 -15 7 -8 0 -15
5 -15 10 0 6 -68 10 -185 10 -117 0 -185 -4 -185 -10z m2035 -8899 c83 -11
170 -24 195 -30 25 -5 124 -28 220 -50 247 -55 465 -139 605 -232 22 -14 76
-45 120 -69 44 -23 87 -49 96 -56 8 -8 21 -14 27 -14 6 0 33 -23 59 -51 26
-29 60 -60 75 -69 15 -9 62 -48 103 -86 138 -126 190 -173 205 -189 8 -9 50
-50 93 -93 43 -42 100 -104 127 -137 26 -33 112 -127 190 -209 78 -83 149
-161 158 -175 9 -15 33 -46 53 -71 20 -25 42 -56 49 -70 7 -14 32 -50 54 -80
42 -55 95 -139 126 -195 9 -16 29 -50 45 -75 15 -25 41 -70 57 -100 16 -30 33
-62 38 -70 10 -17 94 -193 134 -283 14 -32 26 -64 26 -71 0 -7 20 -51 44 -97
43 -81 136 -301 136 -321 0 -5 9 -29 20 -52 24 -53 35 -102 54 -231 9 -55 22
-131 31 -170 19 -85 41 -200 61 -320 8 -49 20 -115 26 -145 6 -30 12 -71 13
-90 1 -19 8 -141 16 -270 14 -244 17 -717 6 -950 -11 -236 -43 -428 -113 -665
-13 -44 -28 -100 -33 -125 -12 -51 -86 -273 -133 -395 -48 -128 -117 -275
-162 -345 -23 -36 -46 -72 -51 -81 -31 -49 -89 -135 -94 -139 -4 -3 -38 -48
-76 -100 -39 -52 -101 -128 -138 -169 -37 -41 -65 -81 -63 -87 3 -8 -1 -11 -9
-8 -8 3 -23 0 -33 -8 -33 -23 -115 -92 -131 -110 -59 -66 -56 -62 -33 -56 12
4 22 3 22 -1 0 -8 -111 -108 -148 -133 -15 -10 -67 -47 -117 -83 -112 -80
-284 -184 -350 -212 -104 -44 -285 -104 -415 -138 -74 -20 -148 -40 -165 -45
-16 -5 -59 -14 -95 -21 -36 -6 -85 -18 -110 -27 -25 -9 -83 -20 -130 -24 -47
-5 -101 -11 -120 -13 -113 -13 -325 -15 -405 -5 -49 6 -139 15 -200 20 -60 5
-141 19 -180 30 -38 12 -81 24 -95 27 -14 2 -34 8 -45 13 -11 4 -54 18 -95 31
-73 22 -250 105 -340 160 -25 15 -60 30 -79 34 -18 4 -52 20 -75 35 -22 15
-97 56 -166 90 -286 143 -368 196 -555 364 -290 259 -459 453 -669 769 -36 53
-70 97 -75 97 -5 0 -12 12 -16 27 -3 16 -26 60 -51 99 -24 39 -44 73 -44 76 0
3 -27 54 -61 114 -33 60 -72 136 -86 169 -14 33 -34 80 -46 105 -24 55 -74
189 -137 375 -26 77 -62 170 -79 208 -17 37 -31 73 -31 80 -1 6 -14 50 -31 97
-68 192 -120 474 -158 865 -29 303 -1 760 79 1255 4 30 13 89 20 130 6 41 20
118 32 170 11 52 24 113 28 135 33 160 151 515 254 764 54 130 169 358 207
413 11 14 19 28 19 31 0 3 19 33 43 67 23 34 53 80 66 103 103 177 353 471
481 565 19 14 40 31 45 37 17 19 154 115 197 137 23 12 43 30 46 40 3 11 10
17 18 14 8 -3 31 4 52 16 68 38 149 78 160 78 6 0 12 4 14 8 5 14 236 99 353
130 22 6 78 22 125 36 239 70 489 113 665 115 55 0 168 -8 250 -18z"/>
<path d="M14320 26768 c-30 -5 -89 -16 -130 -25 -41 -9 -91 -15 -110 -14 -64
4 -183 -36 -326 -108 -134 -68 -185 -103 -170 -118 3 -4 20 3 36 15 16 12 36
22 44 22 8 0 16 6 19 13 2 6 8 9 12 5 14 -13 -68 -78 -98 -78 -8 0 -20 -7 -27
-16 -17 -19 -50 -37 -50 -26 0 4 9 18 21 31 28 30 16 40 -19 14 -15 -11 -40
-27 -57 -36 -16 -8 -49 -33 -72 -55 -24 -21 -43 -37 -43 -35 0 2 -13 -3 -30
-12 -49 -25 -180 -166 -180 -195 -1 -16 -18 -43 -50 -75 -28 -27 -50 -56 -50
-62 0 -7 -4 -13 -8 -13 -4 0 -15 -12 -24 -27 -9 -16 -26 -39 -37 -52 -12 -13
-21 -29 -21 -36 0 -7 -9 -20 -20 -30 -11 -10 -20 -25 -20 -34 0 -9 -6 -26 -14
-37 -8 -11 -17 -37 -21 -57 -4 -20 -16 -48 -26 -61 -28 -36 -59 -170 -59 -256
0 -94 -26 -297 -48 -370 -20 -70 -22 -413 -2 -450 7 -13 9 -25 4 -27 -10 -3 0
-265 11 -282 3 -6 0 -19 -7 -30 -9 -15 -10 -23 -1 -32 7 -7 9 -33 5 -71 -3
-40 -1 -62 7 -67 6 -4 14 -31 17 -61 2 -29 9 -61 14 -71 6 -10 10 -28 10 -40
0 -21 9 -54 47 -183 8 -27 15 -63 15 -80 0 -32 15 -90 42 -161 8 -22 15 -56
16 -76 0 -64 132 -365 179 -412 6 -6 11 -24 11 -40 0 -38 18 -70 36 -63 9 3
18 -3 23 -17 5 -12 18 -31 30 -41 11 -11 21 -29 21 -41 0 -12 15 -42 34 -66
18 -24 37 -57 40 -73 7 -29 48 -76 66 -76 5 0 19 -22 31 -50 12 -27 28 -50 35
-50 8 0 14 -6 14 -14 0 -29 34 -72 72 -90 47 -22 156 -127 150 -144 -6 -19 22
-40 59 -44 29 -2 34 -7 37 -30 2 -19 16 -37 42 -55 22 -16 40 -34 40 -40 0 -7
4 -13 9 -13 4 0 20 -11 35 -25 15 -14 33 -25 41 -25 7 0 17 -9 20 -20 4 -13
15 -20 31 -20 13 0 24 -4 24 -10 0 -5 11 -10 25 -10 25 0 76 -19 85 -32 9 -12
90 -38 117 -38 13 0 36 -6 51 -14 15 -7 70 -21 122 -31 52 -9 108 -21 124 -26
16 -5 55 -9 87 -9 32 0 81 -5 110 -11 36 -8 63 -8 88 -1 20 6 110 15 201 21
91 6 192 18 225 26 79 21 145 46 145 55 0 4 32 28 70 54 39 26 70 51 70 55 0
4 21 17 46 29 59 29 136 94 297 250 21 20 57 63 80 95 23 32 52 72 65 89 12
17 22 41 22 53 0 11 15 52 34 91 121 247 156 344 156 436 0 18 11 56 25 83 13
28 25 64 25 80 0 17 7 41 15 55 8 14 14 44 15 67 0 23 6 48 13 55 8 7 17 47
21 87 3 41 11 80 16 86 10 13 -8 85 -22 85 -4 0 -8 -20 -8 -44 0 -25 -5 -48
-11 -52 -21 -12 -5 182 16 206 20 22 25 81 8 87 -8 3 -13 -4 -13 -16 0 -12 -5
-21 -11 -21 -8 0 -10 14 -6 41 3 23 1 53 -4 66 -6 15 -6 38 0 58 5 19 5 60 -1
101 -5 38 -11 101 -14 139 -5 65 -5 92 -1 232 2 40 -3 58 -22 84 -14 19 -24
41 -24 51 1 11 -3 15 -14 11 -13 -5 -15 0 -10 28 15 81 15 111 3 147 -8 22
-13 46 -13 53 2 15 -49 182 -64 211 -5 10 -9 31 -9 47 0 16 -11 49 -25 72 -14
24 -25 51 -25 60 0 9 -6 19 -14 22 -8 3 -17 19 -21 36 -3 16 -13 35 -21 42 -8
6 -14 17 -14 23 0 7 -6 18 -12 25 -7 6 -13 15 -13 19 0 4 -11 30 -24 57 -13
28 -29 61 -35 75 -6 14 -13 27 -16 30 -3 3 -18 31 -35 64 -16 32 -49 88 -72
124 -24 36 -43 69 -43 73 0 5 -4 9 -9 9 -5 0 -24 24 -41 53 -18 28 -36 54 -39
57 -4 3 -22 29 -41 58 -18 28 -37 52 -42 52 -5 0 -13 10 -18 23 -16 35 -80
110 -147 172 -47 43 -63 65 -63 85 0 16 -10 35 -27 50 -16 13 -68 59 -118 103
-49 43 -108 88 -130 99 -22 12 -42 24 -45 29 -3 4 -30 17 -60 29 -30 11 -74
30 -97 40 -24 11 -53 20 -66 20 -13 0 -27 4 -33 9 -13 13 -162 61 -188 61 -13
0 -49 8 -82 19 -79 25 -128 30 -194 19z"/>
<path d="M21227 27954 c-3 -3 -22 -6 -42 -6 -26 0 -38 -6 -47 -21 -18 -34 -37
-154 -37 -242 -1 -44 -6 -114 -12 -155 -10 -65 -9 -84 6 -135 20 -70 37 -177
64 -402 11 -89 27 -197 35 -240 8 -43 20 -107 26 -143 14 -78 96 -361 149
-515 21 -60 48 -139 60 -175 12 -36 50 -150 85 -255 35 -104 68 -201 74 -215
6 -14 20 -50 32 -80 13 -30 38 -97 56 -149 19 -52 37 -97 42 -100 5 -3 21 -40
37 -81 15 -41 31 -79 36 -85 4 -5 22 -46 39 -90 27 -68 105 -232 143 -300 6
-11 26 -51 45 -90 41 -85 146 -243 202 -305 23 -25 51 -62 62 -82 12 -21 24
-38 28 -38 3 0 24 -17 46 -37 22 -21 64 -46 92 -57 29 -10 52 -22 52 -27 0
-16 68 -28 102 -17 64 20 97 41 107 67 24 64 35 145 35 266 1 132 -26 438 -45
510 -6 22 -19 83 -29 135 -11 52 -24 113 -29 135 -5 22 -16 72 -24 110 -9 39
-23 97 -32 130 -9 33 -27 101 -40 150 -13 50 -42 156 -64 237 -23 80 -41 153
-41 161 0 16 -88 293 -122 387 -11 30 -35 96 -54 145 -64 176 -137 357 -196
485 -14 30 -40 85 -57 123 -17 37 -31 72 -31 77 0 6 -4 10 -9 10 -5 0 -13 15
-17 32 -3 18 -31 80 -62 138 -30 58 -62 119 -70 135 -8 17 -30 51 -49 76 -18
26 -33 50 -33 53 0 4 -26 46 -57 94 -32 48 -62 94 -68 103 -74 118 -166 224
-214 248 -21 11 -48 17 -62 14 -15 -3 -40 2 -57 11 -33 17 -45 19 -55 10z"/>
</g>
</svg>
