<?xml version="1.0" standalone="no"?>
<!DOCTYPE svg PUBLIC "-//W3C//DTD SVG 20010904//EN"
 "http://www.w3.org/TR/2001/REC-SVG-20010904/DTD/svg10.dtd">
<svg version="1.0" xmlns="http://www.w3.org/2000/svg"
 width="3000.000000pt" height="4000.000000pt" viewBox="0 0 3000.000000 4000.000000"
 preserveAspectRatio="xMidYMid meet">
<metadata>
Created by potrace 1.16, written by Peter Selinger 2001-2019
</metadata>
<g transform="translate(0.000000,4000.000000) scale(0.100000,-0.100000)"
fill="#000000" stroke="none">
<path d="M16301 30197 c-6 -8 -29 -20 -51 -27 -31 -10 -37 -16 -29 -26 8 -10
5 -16 -15 -25 -14 -7 -26 -18 -26 -26 0 -7 -7 -13 -16 -13 -12 0 -15 -6 -11
-21 8 -31 -1 -48 -25 -41 -11 2 -23 0 -27 -6 -4 -7 -28 -12 -54 -13 -27 -2
-43 -6 -35 -10 6 -4 16 -5 20 -3 4 3 8 1 8 -3 0 -9 68 -49 73 -42 2 2 15 24
29 49 35 61 108 132 180 176 32 19 58 36 58 37 0 10 -70 4 -79 -6z"/>
<path d="M17285 29925 c30 -85 30 -147 -1 -222 -19 -45 -60 -91 -93 -104 -20
-8 -23 -14 -17 -42 4 -17 11 -33 16 -35 6 -2 10 -11 10 -21 0 -9 4 -21 9 -26
6 -6 24 -52 40 -103 28 -83 31 -107 31 -213 l0 -119 -43 -93 c-24 -50 -51 -98
-60 -106 -9 -7 -17 -19 -17 -25 0 -6 -13 -22 -30 -36 -16 -14 -30 -30 -30 -37
0 -7 -9 -17 -19 -23 -11 -5 -25 -16 -33 -23 -17 -17 -88 -38 -88 -26 0 5 -17
9 -38 9 -21 0 -43 5 -49 11 -6 6 -18 9 -27 7 -11 -2 -2 -17 34 -57 28 -29 50
-59 50 -66 0 -7 4 -15 9 -17 15 -6 72 -140 88 -208 19 -79 22 -325 4 -343 -6
-6 -11 -25 -11 -42 0 -31 -45 -165 -74 -221 -29 -56 -65 -84 -107 -84 -21 0
-44 -7 -53 -15 -21 -22 -35 -19 -42 10 -3 14 -12 25 -20 25 -8 0 -14 -2 -14
-4 0 -6 38 -186 49 -231 6 -22 15 -80 21 -130 l12 -90 31 -2 c106 -8 200 11
220 44 4 7 14 13 20 13 33 0 70 73 82 159 l6 48 80 2 c99 2 114 8 178 70 l51
50 -1 116 c-1 63 -5 115 -9 115 -8 0 -30 61 -30 82 0 10 19 23 49 34 37 13 51
24 56 42 3 13 4 27 0 30 -3 3 -5 -2 -5 -11 0 -9 -4 -17 -10 -17 -5 0 -10 6
-10 14 0 8 5 18 10 21 6 3 10 23 10 44 l0 39 74 7 c56 5 82 3 111 -9 21 -9 59
-16 85 -16 27 0 50 -4 52 -9 2 -5 102 -12 223 -14 129 -3 259 -12 315 -22 52
-8 124 -20 160 -26 36 -6 76 -15 90 -19 14 -5 72 -14 130 -20 58 -5 128 -14
155 -19 52 -10 149 -53 160 -71 3 -6 21 -17 38 -25 18 -8 40 -19 50 -25 9 -5
25 -15 35 -20 28 -17 75 -47 107 -70 17 -12 44 -30 60 -41 52 -33 66 -43 96
-71 16 -14 29 -31 29 -37 0 -6 7 -11 15 -11 8 0 15 -4 15 -9 0 -15 53 -71 67
-71 7 0 13 -7 13 -15 0 -15 17 -36 93 -111 26 -26 47 -53 47 -61 0 -7 11 -18
24 -25 14 -6 30 -24 37 -39 6 -16 15 -29 20 -29 13 0 59 -50 59 -64 0 -7 14
-25 31 -39 18 -15 26 -28 20 -32 -6 -3 -11 -13 -11 -22 0 -12 3 -13 15 -3 19
15 38 3 32 -21 -3 -12 0 -19 9 -19 19 0 80 -70 76 -87 -3 -11 9 -17 30 -14 4
0 16 -13 28 -29 12 -17 28 -30 36 -30 8 0 14 -6 14 -13 0 -8 11 -24 25 -37 14
-13 25 -28 25 -33 0 -5 12 -19 27 -30 56 -45 133 -120 133 -131 0 -7 18 -23
40 -36 22 -14 40 -28 40 -32 0 -5 7 -8 15 -8 8 0 15 -6 15 -14 0 -8 18 -27 40
-43 22 -15 40 -31 40 -35 0 -12 61 -68 74 -68 9 0 12 -9 9 -27 -3 -21 -2 -24
5 -14 8 12 15 10 40 -10 17 -13 31 -28 31 -33 1 -10 72 -76 83 -76 4 0 8 -6 8
-13 0 -16 42 -57 58 -57 7 0 12 2 12 5 0 3 -55 61 -122 129 -213 216 -248 253
-248 265 0 6 -14 18 -31 26 -29 15 -73 57 -187 175 -71 74 -111 110 -123 110
-5 0 -9 4 -9 9 0 12 -56 71 -67 71 -4 0 -14 13 -21 30 -13 28 -58 82 -149 177
-24 25 -43 48 -43 53 0 5 -13 22 -30 38 -16 17 -30 34 -30 39 0 5 -61 72 -135
148 -74 77 -135 143 -135 148 0 4 -7 7 -15 7 -8 0 -15 8 -15 18 0 10 -11 25
-25 32 -14 7 -25 17 -25 22 0 4 -7 8 -15 8 -8 0 -15 4 -15 10 0 5 -26 27 -58
48 -31 22 -72 54 -91 71 -21 20 -43 31 -62 31 l-29 0 0 80 0 80 29 0 c16 0 32
-6 34 -12 4 -10 8 -10 15 1 8 11 16 7 40 -20 17 -19 34 -30 39 -26 11 12 4
371 -7 375 -6 2 -10 18 -10 35 0 18 -5 50 -11 72 -11 43 -23 143 -38 317 -5
59 -15 117 -22 130 -8 14 -14 79 -17 173 l-4 150 -49 44 c-27 24 -49 50 -49
57 0 8 -10 14 -23 14 -13 0 -32 9 -41 19 -10 11 -28 22 -42 25 -15 4 -26 16
-30 32 -6 22 -11 25 -38 21 -17 -2 -40 -1 -51 3 -11 5 -60 14 -110 21 -49 7
-92 15 -95 19 -3 4 -50 16 -105 29 -55 12 -116 26 -136 32 -40 10 -75 12 -67
4 5 -6 121 -37 203 -55 111 -24 279 -71 305 -85 17 -8 43 -22 59 -30 16 -8 36
-15 45 -15 9 0 16 -4 16 -9 0 -5 8 -12 18 -15 51 -20 92 -59 77 -74 -3 -4 -10
-1 -14 6 -5 8 -25 12 -55 11 -40 -2 -50 1 -69 23 -18 22 -41 31 -122 49 -55
12 -110 24 -123 27 -13 2 -26 11 -29 18 -3 10 -23 14 -59 14 -29 0 -73 6 -96
14 -24 8 -59 17 -78 21 -19 4 -39 11 -45 15 -5 4 -30 10 -55 13 -25 3 -74 10
-110 16 -36 5 -141 12 -235 15 -93 3 -234 9 -312 12 -87 4 -183 2 -250 -5
-122 -13 -162 -7 -180 30 -7 13 -22 32 -34 42 -26 21 -24 24 27 36 32 7 34 9
12 10 -25 1 -28 5 -28 35 0 31 25 106 35 106 2 0 2 -7 -1 -15 -4 -8 -2 -15 4
-15 5 0 13 39 16 88 4 48 9 96 12 107 2 11 1 14 -2 8 -9 -21 -24 -15 -24 10 0
18 -2 19 -10 7 -9 -13 -11 -13 -21 0 -9 12 -10 11 -4 -5z"/>
<path d="M13530 29829 c-41 -5 -114 -11 -162 -15 -49 -3 -88 -9 -88 -13 0 -11
404 -24 489 -15 50 5 71 11 71 20 0 16 -76 20 -82 6 -1 -5 -56 -12 -120 -16
-98 -5 -118 -4 -118 8 0 11 21 16 83 20 155 11 162 13 82 13 -44 0 -114 -4
-155 -8z"/>
<path d="M19040 29620 c0 -11 -4 -20 -10 -20 -5 0 -10 -18 -10 -40 0 -22 5
-40 10 -40 6 0 10 -11 10 -25 0 -22 4 -25 40 -25 36 0 40 3 40 25 0 23 4 25
40 25 l40 0 0 -80 0 -80 40 0 c33 0 40 -3 40 -20 0 -11 4 -20 10 -20 17 0 38
44 43 92 4 45 2 49 -45 103 -56 62 -93 85 -138 85 -23 0 -30 4 -30 20 0 17 -7
20 -40 20 -33 0 -40 -3 -40 -20z"/>
<path d="M13194 29605 c3 -16 13 -91 22 -165 27 -222 5 -775 -37 -938 -11 -40
-19 -82 -19 -95 -1 -23 -39 -101 -40 -79 0 15 -80 17 -80 2 0 -18 -21 -10 -45
18 -21 23 -26 25 -35 12 -9 -13 -14 -11 -36 14 -20 23 -37 30 -75 34 -33 3
-49 9 -49 18 0 10 -13 14 -40 14 -33 0 -40 -3 -40 -20 0 -17 -7 -20 -40 -20
-38 0 -40 2 -40 30 0 28 -2 30 -40 30 -22 0 -40 5 -40 10 0 6 35 11 83 11 81
1 81 2 28 9 -30 5 -121 11 -203 15 -133 7 -148 6 -148 -9 0 -9 -8 -16 -18 -16
-10 0 -25 -11 -32 -25 -7 -13 -17 -22 -21 -20 -4 3 -10 -5 -12 -17 -9 -41 4
116 14 175 10 60 35 143 64 212 27 66 69 150 78 153 4 2 7 9 7 15 0 10 136
216 150 227 3 3 17 21 30 40 28 40 80 98 163 183 31 32 57 61 57 64 0 3 23 27
50 54 28 27 50 52 50 55 0 3 -15 3 -32 -1 -44 -9 -87 -12 -462 -35 -176 -11
-323 -24 -326 -30 -3 -5 -39 -9 -79 -9 -43 0 -77 -4 -81 -11 -4 -6 -56 -13
-123 -17 -64 -3 -117 -10 -117 -15 0 -4 -17 -8 -38 -8 -21 0 -47 -7 -58 -15
-12 -9 -42 -14 -81 -15 -35 0 -63 -4 -63 -10 0 -5 -18 -10 -40 -10 -22 0 -40
-4 -40 -10 0 -5 -18 -10 -40 -10 -29 0 -40 -4 -40 -15 0 -11 -11 -15 -40 -15
-29 0 -40 -4 -40 -15 0 -12 -16 -15 -80 -15 -47 0 -80 -4 -80 -10 0 -6 -73
-10 -200 -10 -171 0 -200 -2 -200 -15 0 -11 -11 -15 -40 -15 -22 0 -40 4 -40
9 0 5 -10 11 -22 13 -15 2 -24 11 -26 26 -4 24 -32 31 -32 7 0 -18 -47 -65
-65 -65 -8 0 -15 7 -15 15 0 20 -102 21 -119 2 -8 -11 -52 -14 -183 -15 -114
0 -174 -4 -176 -11 -2 -6 -21 -11 -43 -11 -21 0 -39 -4 -39 -9 0 -5 -36 -12
-80 -16 -58 -5 -80 -11 -80 -21 0 -8 7 -14 16 -14 9 0 14 -5 12 -12 -3 -9 -31
-11 -96 -9 -78 2 -92 0 -92 -13 0 -13 -11 -16 -54 -16 -35 0 -58 -5 -66 -15
-11 -13 -8 -15 14 -15 14 0 26 -4 26 -10 0 -5 -18 -10 -40 -10 -22 0 -40 -4
-40 -10 0 -5 -18 -10 -40 -10 -22 0 -40 -4 -40 -10 0 -5 -18 -10 -40 -10 -22
0 -40 -4 -40 -10 0 -5 18 -10 40 -10 22 0 40 -4 40 -10 0 -5 -18 -10 -40 -10
-22 0 -40 -4 -40 -10 0 -5 -17 -10 -38 -10 -26 0 -41 -6 -50 -20 -8 -13 -23
-20 -42 -20 -17 0 -30 -4 -30 -10 0 -6 -33 -10 -80 -10 -47 0 -80 -4 -80 -10
0 -5 -18 -10 -40 -10 -22 0 -40 -4 -40 -10 0 -5 -7 -10 -15 -10 -8 0 -15 -4
-15 -10 0 -5 -11 -10 -25 -10 -30 0 -34 20 -6 27 14 4 21 15 23 42 3 30 9 39
41 54 20 10 37 23 37 28 0 5 9 9 20 9 11 0 20 5 20 10 0 6 8 10 18 10 9 0 30
7 45 15 15 8 43 17 62 21 59 11 39 24 -35 23 -39 -1 -68 -5 -64 -10 6 -11 -43
-35 -53 -26 -4 4 2 14 13 22 18 13 16 14 -23 15 -42 0 -43 -1 -43 -34 0 -26
-10 -43 -46 -80 -26 -25 -50 -46 -54 -46 -17 0 -60 -43 -60 -61 0 -10 -6 -19
-14 -19 -8 0 -17 -8 -21 -19 -3 -10 -16 -30 -29 -44 -38 -41 -48 -107 -56
-362 -4 -132 -15 -343 -24 -470 -19 -249 -15 -296 28 -342 12 -12 32 -35 46
-52 14 -17 29 -31 33 -31 10 0 37 -26 37 -34 0 -3 -5 -6 -11 -6 -6 0 -20 -11
-31 -25 -11 -14 -24 -25 -29 -25 -9 0 -78 -69 -149 -150 -19 -22 -38 -39 -42
-40 -11 0 -58 -50 -58 -61 0 -5 -19 -29 -42 -54 -24 -24 -74 -80 -113 -124
-38 -43 -78 -80 -87 -80 -10 -1 -18 -7 -18 -14 0 -23 -25 -67 -37 -67 -17 0
-16 22 2 46 18 24 19 34 1 34 -18 0 -26 -22 -26 -75 0 -36 -5 -48 -30 -68 -16
-14 -30 -31 -30 -37 0 -7 -9 -9 -22 -5 -17 5 -19 4 -8 -4 12 -8 12 -13 -4 -30
-11 -12 -30 -21 -43 -21 -19 0 -23 -5 -23 -30 0 -16 -4 -30 -9 -30 -5 0 -12
-8 -16 -17 -3 -10 -30 -45 -60 -78 -30 -33 -74 -83 -97 -112 -24 -29 -49 -52
-55 -53 -7 0 -13 -4 -13 -8 0 -13 -121 -132 -134 -132 -11 0 -50 -52 -62 -82
-3 -10 -11 -18 -18 -18 -6 0 -17 -12 -23 -27 -11 -23 -51 -70 -101 -118 -22
-21 -52 -55 -52 -60 0 -6 -28 -41 -57 -72 -13 -13 -23 -25 -23 -27 0 -10 -139
-146 -149 -146 -6 0 -11 -7 -11 -15 0 -8 -9 -15 -20 -15 -13 0 -18 -5 -14 -14
3 -9 -11 -32 -35 -57 -23 -24 -44 -51 -47 -61 -7 -25 -48 -65 -74 -73 -11 -3
-20 -13 -20 -21 0 -8 -6 -14 -14 -14 -8 0 -17 -13 -21 -29 -3 -16 -15 -40 -26
-52 -25 -28 -21 -53 9 -57 17 -3 22 -10 22 -31 0 -36 -31 -46 -197 -62 -111
-11 -123 -14 -123 -31 0 -17 -6 -20 -47 -18 -95 5 -113 2 -113 -20 0 -13 -7
-20 -19 -20 -10 0 -21 -6 -24 -14 -3 -7 -18 -17 -34 -20 -40 -10 -83 -30 -83
-38 0 -5 -8 -8 -19 -8 -10 0 -38 -18 -61 -40 -23 -22 -50 -40 -59 -40 -14 0
-19 -16 -28 -92 -7 -56 -7 -100 -2 -110 5 -9 9 -39 9 -67 0 -49 1 -51 28 -51
17 0 34 -9 46 -25 23 -30 70 -55 104 -55 14 0 52 -5 84 -12 54 -11 58 -14 58
-40 0 -21 -5 -28 -20 -28 -20 0 -20 -7 -20 -278 0 -348 8 -522 25 -522 10 0
14 -78 20 -320 4 -176 11 -320 16 -320 5 0 9 -72 9 -160 0 -100 4 -160 10
-160 6 0 10 -44 10 -112 -1 -155 32 -682 42 -686 4 -2 8 -92 8 -200 0 -108 4
-285 10 -392 6 -107 13 -270 16 -362 4 -121 10 -168 18 -168 9 0 15 -99 25
-382 7 -211 16 -459 21 -553 5 -93 12 -559 15 -1035 3 -476 10 -914 15 -975 6
-60 10 -142 10 -182 0 -44 4 -73 11 -75 9 -3 12 -135 13 -481 0 -262 4 -477 7
-477 9 0 19 -232 20 -469 1 -174 -1 -205 -15 -219 -14 -15 -16 -13 -22 16 -6
27 -11 32 -35 32 -19 0 -29 5 -29 15 0 8 -4 15 -10 15 -6 0 -10 -38 -10 -95 0
-95 0 -95 25 -95 16 0 25 6 25 15 0 8 7 15 16 15 13 0 15 -6 10 -27 -5 -21 -4
-24 4 -13 7 11 10 2 10 -36 0 -37 4 -54 15 -58 8 -3 15 0 15 7 0 8 4 6 10 -3
7 -11 10 2 10 43 0 31 4 57 9 57 6 0 10 -156 11 -397 0 -218 4 -400 8 -403 12
-7 29 -354 28 -560 -1 -168 -2 -176 -23 -197 -15 -15 -35 -23 -57 -23 -32 0
-34 -2 -38 -41 -2 -22 -2 -42 1 -45 9 -9 79 -4 83 7 2 6 13 2 27 -10 28 -24
34 -76 51 -414 12 -215 8 -317 -9 -317 -4 0 -18 -24 -31 -52 -13 -29 -32 -73
-43 -98 -49 -112 -85 -249 -126 -480 -12 -63 -30 -153 -40 -200 -39 -166 -54
-332 -47 -504 6 -149 25 -268 47 -291 5 -5 9 -19 9 -32 0 -13 4 -23 9 -23 5 0
11 -13 14 -29 3 -16 13 -36 22 -44 8 -9 15 -20 15 -26 0 -14 74 -147 89 -161
4 -3 12 -16 20 -30 59 -102 128 -201 144 -208 4 -2 7 -8 7 -14 0 -11 60 -91
72 -96 5 -2 8 -8 8 -12 0 -5 10 -20 23 -33 71 -74 137 -154 137 -165 0 -7 -5
-22 -11 -33 -19 -37 -61 -222 -79 -354 -6 -44 -15 -105 -20 -135 -14 -89 -32
-320 -26 -337 3 -8 -2 -29 -11 -45 -14 -23 -15 -32 -5 -35 14 -5 17 -83 2 -83
-6 0 -10 -33 -10 -80 0 -44 4 -80 9 -80 4 0 11 -26 14 -58 7 -65 58 -220 76
-232 7 -4 14 -13 15 -21 15 -66 21 -81 32 -86 8 -3 14 -13 14 -22 0 -9 9 -22
20 -29 11 -7 20 -21 20 -31 0 -10 9 -30 20 -44 11 -14 20 -34 20 -45 0 -11 8
-22 19 -25 10 -2 27 -22 37 -42 15 -33 19 -35 25 -19 5 13 8 7 8 -22 1 -32 5
-43 20 -47 10 -2 21 -17 25 -33 4 -15 17 -37 29 -49 12 -11 29 -31 39 -45 l16
-25 10 25 c10 23 11 22 11 -15 1 -32 6 -42 23 -50 14 -6 25 -22 28 -39 4 -23
12 -32 38 -38 26 -7 34 -15 39 -39 3 -17 12 -33 19 -36 8 -3 14 -16 14 -29 0
-19 5 -24 24 -24 13 0 26 -7 30 -15 3 -8 10 -15 16 -15 5 0 10 7 10 15 0 8 7
15 15 15 11 0 15 -11 15 -40 0 -29 4 -40 15 -40 8 0 15 -4 15 -9 0 -5 13 -14
30 -21 16 -7 32 -21 35 -31 4 -10 13 -19 22 -19 13 0 13 -3 3 -15 -7 -9 -9
-19 -5 -23 4 -4 10 -1 12 6 3 6 17 12 33 12 16 0 30 6 33 13 2 7 8 8 13 3 5
-5 4 -11 -3 -13 -16 -6 -17 -65 -1 -81 7 -7 22 -12 34 -12 13 0 31 -11 42 -25
11 -14 30 -25 43 -26 13 0 18 -3 12 -6 -21 -8 -15 -29 12 -41 14 -6 25 -16 25
-22 0 -5 18 -10 40 -10 36 0 55 -13 30 -22 -12 -4 10 -58 23 -58 4 0 19 -8 33
-17 15 -9 40 -17 58 -17 24 -1 32 -6 34 -23 2 -13 8 -23 13 -23 5 0 9 -6 9
-13 0 -8 18 -19 40 -26 23 -7 40 -18 40 -26 0 -11 12 -15 43 -15 28 0 37 -3
28 -9 -21 -14 -5 -28 27 -23 25 3 30 0 36 -22 6 -26 8 -26 96 -26 l90 0 0 -40
c0 -23 -5 -40 -11 -40 -25 0 15 -30 48 -36 23 -4 37 -13 40 -25 4 -13 14 -19
32 -19 15 0 32 -5 39 -12 9 -9 12 0 12 40 l0 52 160 0 160 0 0 -80 0 -80 40 0
40 0 0 40 0 40 120 0 120 0 0 -40 0 -40 160 0 160 0 0 -40 0 -40 440 0 440 0
0 -40 0 -40 80 0 80 0 0 40 0 40 40 0 40 0 0 -40 0 -40 40 0 40 0 0 40 0 40
40 0 40 0 0 -40 0 -40 200 0 200 0 0 -40 0 -40 120 0 120 0 0 40 0 40 40 0 40
0 0 -40 0 -40 40 0 40 0 0 40 0 40 40 0 40 0 0 -40 0 -40 200 0 200 0 0 -25
c0 -22 4 -25 40 -25 36 0 40 3 40 25 0 25 1 25 80 25 64 0 80 3 80 15 0 13 20
15 120 15 100 0 120 -2 120 -15 0 -11 11 -15 40 -15 29 0 40 4 40 15 0 11 11
15 40 15 29 0 40 -4 40 -15 0 -12 16 -15 80 -15 l80 0 0 -39 c0 -40 0 -40 -42
-44 -24 -2 -6 -4 40 -5 l82 -2 0 45 0 45 40 0 40 0 0 -48 0 -49 -117 -13 c-87
-10 -118 -10 -121 -1 -5 14 -82 15 -82 1 0 -5 18 -10 40 -10 22 0 40 -4 40
-10 0 -6 33 -10 80 -10 47 0 80 4 80 10 0 6 17 10 38 10 20 0 48 7 62 15 46
26 52 28 60 15 6 -9 24 -11 66 -6 33 3 103 9 157 12 94 6 97 7 97 30 0 21 5
24 40 24 28 0 40 4 40 14 0 12 7 13 32 5 44 -12 48 -12 48 6 0 13 24 15 159
15 88 0 161 4 163 9 2 5 72 12 156 15 111 4 162 10 190 23 20 9 51 16 67 14
27 -2 73 4 225 30 30 5 84 14 120 19 36 6 90 15 120 20 30 6 84 15 120 20 79
10 288 46 390 65 41 8 91 17 110 19 19 3 78 16 130 30 52 14 106 26 121 26 14
0 29 4 35 8 5 5 36 15 69 22 33 7 92 21 131 31 38 11 81 19 95 19 14 0 30 5
36 11 14 14 111 35 253 54 63 9 133 22 155 29 22 8 65 17 95 21 30 4 66 12 80
18 14 5 35 9 47 8 13 -1 27 6 35 18 7 12 20 21 28 21 19 0 131 25 230 52 41
11 102 23 135 28 33 4 87 18 120 30 70 25 115 38 167 49 21 5 43 13 50 18 7 6
47 18 88 28 41 10 91 26 110 35 19 10 51 21 70 25 19 4 59 18 89 31 29 13 65
24 79 24 15 0 62 18 107 39 44 22 96 44 115 49 39 11 142 54 150 62 7 8 111
57 138 65 12 3 22 11 22 16 0 5 7 9 16 9 9 0 28 8 42 18 15 10 79 44 142 77
63 32 117 61 120 64 8 9 94 51 105 51 6 0 22 11 37 25 15 14 33 25 41 25 7 0
18 5 23 10 6 6 21 13 35 15 13 3 29 12 35 20 6 8 19 15 28 15 9 0 16 4 16 8 0
5 18 16 40 25 22 8 40 22 40 30 0 17 54 42 69 32 6 -3 11 -2 11 2 0 5 14 14
30 20 17 6 30 18 30 27 0 9 5 16 10 16 6 0 10 -7 10 -15 0 -25 18 -17 35 15
15 28 26 33 105 43 8 1 16 11 16 22 1 11 2 26 3 33 1 7 19 19 41 28 22 9 40
20 40 25 0 5 6 9 13 9 8 0 24 11 36 24 13 14 30 22 41 19 11 -3 23 4 32 16 8
12 46 32 84 45 41 15 70 31 72 40 2 9 12 16 23 16 10 0 19 7 19 15 0 19 47 65
67 65 13 0 14 3 5 12 -17 17 -15 41 3 34 10 -3 40 19 86 65 39 38 74 67 77 64
11 -11 71 57 64 73 -4 11 -1 14 10 10 10 -4 28 6 49 28 21 21 28 34 18 34 -8
1 -1 12 19 29 18 15 44 51 58 79 14 29 30 52 34 52 14 0 71 61 69 73 -1 7 -1
29 0 50 1 30 5 37 21 37 26 0 60 34 60 60 0 16 7 20 30 20 28 0 30 2 30 40 0
22 5 40 10 40 6 0 10 -18 10 -40 l0 -40 80 0 80 0 0 -40 0 -40 80 0 80 0 0
-40 0 -40 200 0 200 0 0 40 0 40 94 0 c53 0 98 -4 101 -10 9 -15 45 -12 45 4
0 28 42 86 61 86 15 0 19 7 19 35 0 21 6 38 14 41 7 3 19 23 26 45 7 21 19 39
27 39 12 0 19 47 14 88 -1 8 5 22 15 33 9 10 19 40 22 66 3 29 12 54 24 64 14
13 18 31 18 83 0 36 4 66 9 66 5 0 12 39 16 88 3 48 11 99 17 115 7 18 8 83 3
192 -7 153 -9 165 -26 165 -17 0 -19 8 -19 63 0 35 -4 67 -8 72 -5 6 -7 31 -4
58 l4 47 84 0 84 0 0 -40 0 -40 240 0 240 0 0 40 0 40 80 0 80 0 0 -40 0 -40
80 0 80 0 0 40 0 40 80 0 80 0 0 -40 0 -40 40 0 40 0 0 40 0 40 109 0 c124 0
115 -7 126 93 7 61 -13 227 -27 227 -4 0 -8 19 -8 41 0 48 -19 119 -32 119 -4
0 -8 12 -8 26 0 15 -8 34 -18 43 -22 20 -46 76 -38 90 3 5 -1 16 -9 24 -8 9
-15 24 -15 35 0 10 -11 29 -25 42 -14 13 -25 30 -25 37 0 8 -7 16 -15 19 -8 4
-15 11 -15 16 0 6 -12 22 -27 37 -16 15 -35 37 -43 49 -8 12 -20 22 -28 22 -7
0 -16 8 -19 17 -9 22 -49 63 -61 63 -5 0 -22 16 -36 35 -15 19 -34 35 -42 35
-8 0 -24 11 -36 25 -12 14 -25 25 -30 25 -10 0 -61 35 -92 63 -11 9 -28 17
-38 17 -10 0 -21 6 -24 14 -3 8 -15 17 -27 20 -12 3 -40 21 -62 41 -22 20 -53
38 -68 42 -16 3 -34 14 -40 24 -7 11 -18 19 -25 19 -8 0 -26 8 -40 19 -15 10
-56 33 -92 51 -36 18 -78 41 -93 52 -16 11 -31 18 -34 14 -5 -5 -113 204 -113
219 0 3 -32 57 -71 120 -38 63 -74 128 -79 146 -5 17 -12 104 -15 193 -3 88
-10 244 -15 346 -14 270 -13 710 2 750 10 30 9 35 -12 52 -15 12 -20 23 -15
35 4 10 9 126 11 257 4 260 8 276 62 276 22 0 24 3 18 31 -3 17 -6 37 -6 45 0
7 -12 14 -27 16 l-28 3 4 995 c2 547 7 1281 12 1630 34 2561 35 3571 4 4440
-9 245 -15 506 -15 580 2 127 -7 638 -11 670 -1 8 -1 52 -1 98 2 80 2 82 27
82 25 0 25 1 25 80 l0 80 40 0 40 0 0 80 0 80 40 0 c31 0 40 4 41 18 0 9 0 81
-1 160 -1 134 0 142 18 142 26 0 33 69 32 341 -1 165 2 214 12 220 9 6 14 42
16 124 4 111 3 115 -17 115 -30 0 -61 35 -61 70 0 28 -2 30 -40 30 -22 0 -40
5 -40 10 0 6 -18 10 -40 10 -33 0 -40 3 -40 20 0 18 -7 20 -80 20 -74 0 -80 1
-80 21 0 18 -6 20 -42 19 -72 -3 -83 -1 -106 20 -17 16 -35 20 -97 20 -62 0
-75 3 -75 16 0 14 -10 15 -80 9 l-80 -7 0 42 c0 34 -6 47 -32 72 -27 25 -34
28 -43 15 -6 -8 -22 -17 -35 -20 -14 -2 -1 -5 28 -6 40 -1 52 -5 52 -17 0 -12
-7 -14 -27 -10 -16 3 -84 8 -153 11 -69 4 -147 8 -175 10 -870 49 -1239 58
-1758 44 -493 -12 -1332 -7 -1657 11 -159 9 -1331 25 -1390 19 -81 -8 -707 -2
-1005 10 -237 9 -489 11 -780 7 -236 -3 -612 -8 -835 -11 -223 -3 -607 -8
-855 -12 -247 -4 -639 -6 -870 -5 -257 2 -558 -3 -775 -13 -195 -8 -368 -15
-385 -15 l-30 0 25 20 c14 11 33 20 43 20 9 0 17 4 17 8 0 5 26 36 58 70 31
33 66 77 76 96 11 20 25 36 33 36 7 0 13 7 13 15 0 8 4 23 9 33 13 25 80 169
103 222 11 24 22 47 26 50 4 3 20 32 37 65 35 72 95 167 112 178 7 4 13 14 13
21 0 17 60 130 71 134 5 2 9 10 9 17 0 17 62 139 72 143 4 2 8 10 8 18 0 14
19 54 31 64 3 3 11 21 19 40 8 19 17 37 20 40 3 3 21 29 39 58 18 28 37 52 42
52 5 0 9 6 9 14 0 7 14 30 30 51 17 21 30 44 30 51 0 8 5 14 10 14 6 0 10 6
10 14 0 7 7 20 17 27 9 8 22 28 30 44 15 33 35 67 44 75 3 3 16 32 29 65 13
33 28 64 32 69 4 6 8 18 8 29 0 26 -41 19 -56 -11 -6 -12 -27 -41 -48 -65 -50
-58 -56 -65 -56 -71 0 -3 -18 -24 -40 -46 -22 -22 -40 -47 -40 -55 0 -8 -7
-15 -15 -15 -8 0 -15 -3 -15 -7 0 -5 -20 -30 -45 -58 -24 -27 -45 -54 -45 -58
0 -4 -16 -21 -35 -38 -19 -17 -35 -35 -35 -41 0 -5 -6 -15 -12 -22 -7 -7 -29
-32 -48 -56 -19 -24 -43 -52 -52 -62 -10 -10 -18 -22 -18 -28 0 -5 -4 -10 -10
-10 -13 0 -116 -130 -124 -157 -4 -12 -18 -31 -31 -42 -14 -10 -29 -29 -35
-42 -6 -13 -22 -42 -35 -64 -13 -22 -39 -69 -57 -105 -18 -36 -36 -66 -40 -68
-5 -2 -8 -8 -8 -12 0 -5 -12 -30 -27 -55 -22 -36 -33 -45 -56 -45 -15 0 -30 6
-32 13 -7 16 -265 24 -265 8 0 -7 -30 -11 -80 -11 -73 0 -80 2 -80 20 0 19 -7
20 -160 20 -100 0 -160 -4 -160 -10 0 -5 -18 -10 -40 -10 -27 0 -40 4 -40 14
0 8 -20 20 -45 27 -25 7 -45 17 -45 21 0 4 -5 8 -11 8 -22 0 5 -184 31 -210 3
-3 16 -25 29 -49 13 -24 41 -61 63 -81 l39 -38 -27 -69 c-47 -124 -52 -156
-41 -251 6 -48 14 -90 19 -93 12 -8 -70 -19 -141 -19 -31 0 -119 -7 -196 -15
-77 -8 -187 -20 -245 -25 -58 -6 -159 -20 -225 -31 -66 -12 -165 -27 -220 -34
-334 -44 -460 -63 -570 -84 -27 -6 -99 -15 -160 -21 -60 -6 -153 -17 -205 -25
-52 -8 -160 -24 -240 -36 -80 -12 -171 -25 -202 -30 -32 -5 -84 -13 -115 -18
-32 -5 -83 -13 -113 -19 -114 -23 -440 -72 -475 -72 -19 0 -23 3 -16 13 50 61
101 127 115 150 10 15 27 27 37 27 12 0 19 7 19 18 0 21 30 52 49 52 7 0 10 4
7 9 -3 4 10 26 29 47 19 22 48 55 65 74 16 19 47 54 67 77 54 61 83 100 83
112 0 6 7 11 15 11 16 0 64 48 65 64 0 4 29 38 65 74 36 37 67 74 70 82 3 9
18 24 35 33 16 10 33 29 36 43 5 21 15 28 35 26 3 -1 4 10 1 23 -3 20 0 25 17
25 13 0 26 9 32 23 5 12 23 30 40 39 16 9 29 24 29 33 0 8 8 15 18 15 10 0 25
16 36 40 11 22 23 40 28 40 13 0 38 26 38 39 0 5 11 18 25 29 14 11 25 27 25
35 0 8 9 17 20 20 11 3 24 17 29 31 6 14 22 32 36 42 14 9 25 20 25 26 0 12
52 57 68 58 6 0 12 7 12 16 0 20 22 41 55 54 22 9 25 13 15 25 -13 16 -2 32
37 53 12 7 27 28 34 47 8 22 20 35 33 37 12 2 25 13 31 26 5 12 15 22 22 22 7
0 13 7 13 15 0 8 5 15 10 15 6 0 18 13 28 28 10 17 23 27 31 24 10 -3 12 0 8
11 -4 10 1 17 14 20 10 3 23 16 28 29 5 12 23 37 40 53 17 17 31 34 31 39 0
17 108 115 134 122 31 7 50 29 41 45 -5 8 -1 9 15 4 19 -6 21 -4 16 17 -3 12
-3 17 0 10 5 -10 14 -6 35 14 15 15 26 31 23 35 -3 5 2 6 10 3 10 -4 16 -1 16
8 0 8 18 23 40 33 22 10 40 22 40 27 0 4 5 8 10 8 6 0 19 9 30 20 11 11 27 20
35 20 17 0 76 28 85 40 7 9 140 38 235 50 43 6 82 14 85 19 3 5 30 11 60 14
30 2 87 14 125 26 39 11 78 21 88 21 11 0 34 7 53 15 19 8 49 21 67 29 17 8
46 17 62 21 17 4 46 13 66 20 20 8 39 11 43 8 3 -3 11 -1 18 4 15 12 110 35
129 32 8 -1 32 2 54 8 51 15 313 44 480 54 72 4 146 10 165 13 19 3 139 10
265 16 127 6 259 15 295 20 36 5 164 16 285 25 319 24 401 32 584 54 l163 20
54 -37 c29 -20 56 -45 59 -54 4 -11 -8 -37 -32 -70 -69 -95 -79 -205 -22 -252
18 -15 47 -26 83 -30 31 -4 56 -12 56 -17 0 -5 68 -9 160 -9 100 0 160 4 160
10 0 6 18 10 40 10 22 0 40 5 40 10 0 6 18 10 40 10 22 0 40 3 40 8 0 7 48 32
63 32 18 0 96 55 97 68 0 6 11 12 25 12 14 0 25 4 25 10 0 5 13 16 29 24 15 8
34 28 41 45 6 16 18 32 26 35 8 3 14 15 14 26 0 11 4 20 8 20 5 0 17 18 27 39
10 22 24 42 31 45 8 3 14 14 14 25 0 11 5 23 11 26 5 4 9 19 7 33 l-3 27 240
3 c245 4 612 -12 676 -29 27 -7 396 -10 742 -6 28 0 33 6 19 22 -5 6 -17 47
-27 92 -17 77 -17 88 -2 163 26 136 115 309 200 391 57 55 167 113 237 125 25
4 79 8 120 8 65 1 76 4 85 22 6 12 24 33 40 46 42 34 158 88 189 88 14 0 26 4
26 9 0 4 24 12 53 17 63 11 60 30 -4 26 -34 -3 -48 0 -52 11 -3 9 -24 17 -49
20 -77 9 -205 44 -231 63 -59 45 -117 183 -117 281 l0 56 -22 -20 c-30 -27
-81 -35 -214 -34 -89 1 -114 -1 -124 -14 -14 -17 -85 -21 -95 -5 -3 6 -33 10
-65 10 -32 0 -62 -4 -65 -10 -4 -6 10 -10 34 -10 44 0 51 -9 25 -31 -11 -9
-42 -12 -105 -10 -73 2 -89 0 -89 -12 0 -11 -19 -17 -80 -22 -69 -6 -80 -10
-80 -26 0 -15 -7 -19 -40 -19 -33 0 -40 -3 -40 -20 0 -17 -7 -20 -40 -20 -33
0 -40 3 -40 20 0 17 -7 20 -40 20 -33 0 -40 -3 -40 -20 0 -17 -7 -20 -40 -20
-40 0 -40 0 -40 39 0 39 1 40 38 43 20 2 -16 2 -80 -1 l-118 -4 0 41 0 42 -40
0 c-29 0 -40 4 -40 15 0 18 -76 21 -82 3 -3 -7 -13 -5 -31 7 -21 13 -41 16
-88 13 -54 -4 -62 -2 -79 19 -18 24 -40 31 -40 13 0 -13 -77 -13 -82 -1 -2 6
-106 12 -237 14 -180 4 -236 8 -243 19 -6 9 -7 3 -4 -17z m5346 -4151 c168 -2
404 -8 525 -13 153 -7 224 -6 233 1 9 8 38 8 100 0 48 -6 123 -14 167 -17 44
-3 134 -12 200 -20 66 -8 208 -21 315 -30 107 -8 227 -20 265 -25 39 -5 115
-12 170 -16 55 -4 111 -8 125 -9 14 -1 34 -3 44 -4 19 -1 19 -1 1 -14 -16 -13
-14 -15 24 -21 23 -3 51 -12 63 -19 16 -9 22 -9 25 1 7 18 83 16 83 -3 0 -11
11 -15 40 -15 22 0 40 5 40 10 0 6 18 10 40 10 27 0 40 -4 40 -13 0 -9 27 -17
90 -24 69 -8 96 -15 114 -32 12 -11 27 -21 34 -21 22 0 82 -34 82 -47 0 -7 9
-13 20 -13 23 0 95 -43 107 -64 4 -7 16 -15 25 -17 9 -2 55 -42 102 -88 74
-72 86 -88 86 -117 0 -19 5 -34 10 -34 6 0 10 -18 10 -40 0 -33 3 -40 20 -40
11 0 20 -4 20 -10 0 -5 -18 -10 -40 -10 -22 0 -40 5 -40 10 0 6 -17 10 -38 10
-30 0 -45 -7 -72 -35 -30 -31 -34 -41 -31 -80 3 -55 -16 -61 -22 -7 -2 20 -2
2 1 -40 l4 -78 -46 0 -46 0 0 -80 c0 -64 -3 -80 -15 -80 -11 0 -15 -11 -15
-40 0 -33 3 -40 20 -40 17 0 20 -7 20 -40 l0 -40 -46 0 -45 0 2 -126 1 -126
-37 -38 c-33 -33 -37 -43 -33 -78 2 -27 0 -38 -8 -35 -12 4 -74 -52 -74 -68 0
-5 -8 -9 -17 -9 -11 0 -25 -16 -36 -40 -10 -22 -25 -40 -32 -40 -13 0 -75 -56
-75 -67 0 -4 -18 -24 -40 -45 -44 -44 -55 -77 -19 -58 32 18 33 5 2 -19 -15
-12 -47 -39 -69 -61 -23 -22 -47 -40 -52 -40 -6 0 -16 -9 -22 -20 -7 -12 -16
-17 -27 -13 -10 4 -14 2 -10 -4 9 -14 -2 -43 -16 -43 -5 0 -33 -21 -60 -47
-32 -29 -52 -42 -55 -35 -2 7 4 22 14 33 25 28 8 23 -24 -6 -21 -20 -24 -27
-13 -34 15 -10 7 -31 -12 -31 -7 0 -20 9 -30 20 -20 24 -47 26 -47 5 0 -8 -5
-15 -12 -15 -16 0 -68 -51 -68 -67 0 -7 -6 -13 -13 -13 -7 0 -35 -20 -62 -45
-36 -34 -54 -44 -69 -39 -16 5 -14 1 9 -20 22 -19 26 -26 13 -26 -9 0 -19 4
-22 9 -8 13 -45 1 -59 -19 -7 -9 -29 -23 -49 -31 -45 -15 -49 -29 -10 -29 l27
0 -29 -15 c-22 -12 -32 -12 -42 -4 -11 9 -14 8 -14 -5 0 -9 5 -16 11 -16 5 0
7 -5 3 -11 -4 -8 -9 -7 -15 2 -6 11 -12 11 -34 -1 -16 -9 -21 -16 -14 -21 8
-4 5 -13 -10 -28 -11 -11 -24 -21 -27 -21 -3 0 -20 -11 -38 -25 -18 -14 -37
-25 -43 -25 -5 0 -20 -9 -33 -20 -28 -25 -39 -25 -35 -2 1 9 0 12 -2 5 -5 -15
-32 -25 -45 -17 -6 4 -5 -3 1 -15 14 -25 -3 -30 -17 -5 -8 15 -11 15 -31 -2
-25 -22 -27 -34 -6 -34 8 0 15 -4 15 -10 0 -5 -9 -10 -20 -10 -11 0 -20 5 -20
10 0 6 -9 10 -20 10 -11 0 -20 -5 -20 -11 0 -5 -16 -17 -35 -25 -36 -15 -47
-34 -20 -34 21 0 19 -17 -4 -29 -16 -9 -18 -8 -14 9 3 12 0 20 -7 20 -23 0
-80 -32 -80 -45 0 -7 -7 -15 -15 -19 -8 -3 -15 -12 -15 -19 0 -13 -53 -67 -66
-67 -3 0 -19 -9 -35 -21 -24 -17 -29 -18 -29 -5 0 20 -24 21 -39 2 -10 -11 -8
-15 6 -18 13 -3 3 -12 -34 -33 -29 -17 -53 -33 -53 -37 0 -5 -4 -8 -10 -8 -24
0 -7 31 24 44 35 15 65 45 32 33 -10 -4 -24 -7 -31 -7 -8 0 -33 -18 -55 -40
-22 -22 -47 -40 -55 -40 -8 0 -16 -4 -19 -8 -3 -5 -30 -14 -61 -21 -31 -7 -59
-19 -62 -27 -3 -8 -11 -14 -19 -14 -8 0 -11 -6 -8 -15 4 -10 0 -15 -13 -15
-25 0 -83 -28 -83 -41 0 -5 -11 -9 -25 -9 -14 0 -28 -7 -31 -15 -4 -8 -15 -15
-26 -15 -27 0 -90 -39 -82 -51 3 -5 -13 -9 -35 -9 -23 0 -41 -4 -41 -10 0 -5
-8 -10 -17 -10 -10 0 -38 -11 -62 -25 -23 -14 -52 -25 -62 -25 -10 0 -19 -4
-19 -10 0 -5 -18 -15 -40 -21 -22 -7 -40 -16 -40 -21 0 -4 -7 -8 -15 -8 -8 0
-15 -4 -15 -10 0 -5 -15 -10 -33 -10 -21 0 -41 -8 -52 -20 -10 -11 -25 -20
-34 -20 -9 0 -31 -9 -49 -20 -18 -11 -37 -20 -43 -20 -6 0 -22 -9 -36 -20 -14
-11 -35 -20 -47 -20 -11 0 -34 -9 -51 -20 -16 -11 -48 -20 -70 -21 -22 -1 -32
-3 -22 -6 25 -6 21 -33 -5 -33 -33 0 -88 -22 -88 -36 0 -6 -12 -15 -27 -18
-78 -18 -133 -40 -133 -52 0 -9 -12 -14 -31 -14 -23 0 -30 -4 -26 -15 7 -17
-12 -32 -22 -17 -8 13 -90 -9 -129 -34 -13 -9 -26 -13 -28 -11 -3 3 -17 -6
-31 -19 -14 -13 -32 -24 -40 -24 -7 0 -39 -13 -70 -30 -31 -16 -65 -30 -75
-30 -11 0 -22 -8 -24 -18 -5 -17 -47 -42 -71 -42 -7 0 -13 -4 -13 -8 0 -5 -18
-15 -40 -22 -22 -7 -40 -16 -40 -20 0 -11 -95 -50 -120 -50 -16 0 -20 -4 -15
-19 4 -15 -3 -22 -32 -34 -21 -8 -52 -13 -68 -11 -29 4 -29 4 -7 -7 23 -12 25
-36 2 -31 -6 1 -27 -11 -46 -28 -19 -16 -40 -30 -47 -29 -7 0 -2 5 11 11 23
12 29 32 12 43 -5 3 -10 -1 -10 -9 0 -8 -12 -22 -26 -29 -19 -10 -23 -16 -14
-22 8 -5 -47 -37 -151 -90 -90 -45 -186 -94 -212 -109 -33 -19 -57 -26 -73
-22 -13 4 -40 0 -60 -9 -25 -10 -71 -15 -150 -15 -69 0 -114 -4 -114 -10 0
-15 -67 -12 -103 4 -18 8 -45 19 -62 24 l-30 10 33 1 c22 1 32 5 30 13 -3 9
-25 12 -75 10 -44 -2 -73 0 -77 7 -5 7 3 11 19 11 45 0 22 24 -29 32 -32 4
-53 14 -63 27 -9 13 -25 21 -44 21 -30 0 -41 23 -16 34 6 3 -7 5 -30 3 -23 -1
-39 1 -37 4 7 12 -80 49 -115 49 -18 0 -39 7 -47 15 -9 8 -29 15 -45 15 -17 0
-29 5 -29 13 0 13 -39 30 -97 42 -18 4 -35 11 -38 16 -4 5 -17 9 -29 9 -13 0
-29 6 -35 14 -13 15 -85 36 -124 36 -14 0 -30 7 -38 16 -8 9 -21 13 -35 10
-16 -4 -29 0 -42 15 -11 11 -26 21 -33 23 -8 1 -23 7 -34 13 -11 6 -37 13 -59
17 -21 4 -35 10 -32 13 10 11 -16 33 -39 33 -25 0 -157 47 -165 59 -9 13 -43
24 -83 26 -41 3 -70 21 -61 37 4 6 -2 7 -16 3 -16 -5 -26 -1 -37 15 -8 11 -22
20 -31 19 -43 -6 -118 24 -106 42 3 5 -11 9 -30 9 -20 0 -36 4 -36 9 0 5 -17
15 -37 22 -21 6 -42 15 -48 19 -5 4 -25 11 -42 15 -18 3 -33 10 -33 14 0 10
-54 36 -110 52 -25 7 -49 19 -55 26 -13 17 -117 53 -152 53 -16 0 -45 11 -64
24 -20 14 -49 28 -65 31 -50 12 -114 37 -114 46 0 5 -18 9 -39 9 -22 0 -41 4
-43 9 -4 11 -127 63 -154 65 -12 0 -31 9 -41 19 -11 9 -27 17 -36 17 -9 0 -24
12 -34 26 -15 24 -18 25 -29 9 -11 -15 -16 -15 -46 -2 -18 8 -50 15 -72 16
-24 0 -44 7 -55 19 -9 11 -26 22 -38 26 -11 4 -27 13 -33 21 -7 8 -28 15 -46
15 -19 0 -34 4 -34 9 0 5 -28 19 -62 31 -35 13 -68 27 -75 32 -6 5 -37 12 -67
15 -46 5 -56 9 -56 24 0 16 -8 19 -52 19 -31 1 -61 7 -72 15 -11 8 -36 15 -56
15 -24 0 -40 6 -50 20 -11 15 -26 20 -63 20 -28 0 -66 8 -89 20 -23 11 -54 20
-70 20 -16 0 -28 5 -28 13 0 14 -68 43 -77 33 -3 -3 -22 4 -42 15 -26 14 -50
19 -81 17 -41 -3 -48 0 -78 33 -22 25 -39 35 -51 32 -10 -3 -22 0 -25 6 -4 7
-28 10 -59 7 -29 -2 -37 -1 -19 1 24 3 32 9 32 24 0 15 -7 19 -35 19 -29 0
-43 8 -72 40 -42 45 -53 49 -53 20 0 -11 -5 -20 -11 -20 -6 0 -13 9 -16 20 -4
14 -14 20 -32 20 -14 0 -44 11 -66 25 -23 14 -56 25 -77 25 -21 0 -38 4 -38 8
0 12 -65 33 -81 27 -8 -3 -32 4 -54 15 -21 11 -44 20 -50 20 -5 0 -16 9 -23
21 -8 13 -19 18 -31 14 -16 -5 -63 10 -118 37 -12 6 -45 8 -73 6 -30 -3 -46
-2 -38 3 10 7 10 9 1 9 -7 0 -13 9 -13 20 0 11 -7 20 -15 20 -7 0 -18 7 -23
16 -8 14 -22 16 -77 12 -38 -2 -63 -2 -57 0 27 9 11 39 -28 52 -22 7 -40 17
-40 22 0 4 -18 8 -40 8 -29 0 -40 4 -40 15 0 8 -6 15 -12 15 -7 0 -35 12 -63
25 -27 14 -58 25 -67 25 -10 0 -18 6 -18 13 0 8 -25 22 -56 33 -30 10 -64 26
-74 36 -25 23 -30 23 -31 -4 0 -22 -1 -22 -9 -3 -10 26 -70 82 -70 67 0 -17
-25 -15 -40 3 -11 13 -8 15 14 15 14 0 26 5 26 10 0 6 -16 10 -36 10 -51 0
-104 53 -104 104 l0 36 -50 0 c-27 0 -50 5 -50 10 0 6 -18 10 -40 10 -22 0
-40 5 -40 10 0 6 -18 10 -40 10 -38 0 -40 2 -40 30 0 28 -2 30 -40 30 -22 0
-40 5 -40 10 0 6 -18 10 -40 10 -33 0 -40 3 -40 20 0 17 7 20 40 20 22 0 40 5
40 11 0 6 -31 10 -86 8 -84 -2 -85 -2 -120 32 -27 26 -34 41 -34 72 l0 39 -80
-7 -80 -7 0 26 c0 25 -3 26 -50 26 -39 0 -53 4 -62 20 -7 11 -21 20 -30 20
-14 0 -18 9 -18 41 l0 41 -77 -4 c-43 -3 -61 -3 -40 -1 36 4 37 5 37 45 l0 41
-117 -4 c-65 -3 -101 -3 -80 -1 36 3 37 4 37 43 0 39 0 39 -40 39 l-40 0 0 80
0 80 -40 0 -40 0 0 40 0 40 -40 0 -40 0 0 -40 0 -40 -40 0 -40 0 0 -50 0 -50
-40 0 c-22 0 -40 5 -40 11 0 7 -28 9 -82 7 l-83 -3 4 43 3 42 -41 0 -41 0 0
40 0 40 -80 0 -80 0 0 31 0 32 -51 -5 c-37 -4 -52 -2 -56 8 -3 8 -16 14 -29
14 -20 0 -24 5 -24 30 0 28 -2 30 -40 30 -22 0 -40 5 -40 10 0 6 -18 10 -40
10 -22 0 -40 4 -40 9 0 12 -59 71 -71 71 -5 0 -9 10 -9 21 0 20 -4 21 -50 17
-38 -4 -53 -1 -65 12 -21 23 -19 28 13 33 19 3 14 4 -15 6 -31 1 -43 5 -43 16
0 11 -11 15 -40 15 -30 0 -40 4 -40 16 0 14 -9 16 -50 12 -28 -3 -50 -1 -50 3
0 5 -21 9 -48 9 -36 0 -50 5 -60 20 -7 11 -20 20 -29 20 -9 0 -32 5 -50 12
-26 10 -33 17 -33 40 0 23 -5 28 -37 35 -21 4 -42 7 -47 8 -21 1 -16 25 4 25
19 0 20 2 10 15 -11 13 -6 18 26 31 22 9 41 19 44 23 10 12 115 53 155 60 22
4 58 17 80 29 22 12 55 25 75 28 36 6 130 30 165 43 184 68 250 85 390 102 83
10 186 23 230 29 44 5 130 14 190 20 218 20 383 43 890 125 116 18 230 36 255
39 188 26 913 38 3185 57 688 5 1284 12 1325 15 607 40 1108 50 1635 33 500
-16 709 -16 1310 5 417 13 780 14 1775 0z m1651 -4861 c7 -18 14 -243 19 -643
5 -338 14 -757 21 -930 13 -358 13 -430 6 -2005 -5 -1121 -7 -1191 -36 -1269
-27 -69 -119 -126 -301 -186 -244 -80 -309 -99 -480 -140 -108 -27 -116 -27
-111 -10 1 8 4 24 6 35 2 11 8 45 14 75 66 317 64 736 -5 1245 -122 908 -123
912 -235 1375 -27 113 -54 221 -59 241 -21 75 -9 178 24 216 49 55 66 77 66
83 0 4 21 10 46 13 26 2 49 9 53 14 10 16 121 73 141 73 32 0 50 11 50 32 0
11 16 35 36 54 34 32 36 37 31 80 -3 29 -13 54 -26 68 -12 11 -28 29 -34 39
-10 14 -27 19 -72 20 -36 1 -60 7 -63 15 -2 6 4 12 15 12 15 0 16 2 3 10 -10
6 -16 6 -18 0 -2 -6 -22 -9 -45 -9 -40 1 -40 2 -12 9 18 5 22 8 11 9 -18 1
-18 2 -3 19 10 10 17 28 17 40 0 13 6 22 15 22 8 0 15 8 15 18 0 10 4 22 8 28
5 5 17 31 27 58 14 38 15 50 5 56 -7 4 -9 13 -6 19 10 16 26 14 26 -4 0 -8 7
-15 16 -15 10 0 14 7 12 23 -2 16 -9 21 -26 20 -49 -6 -10 23 58 42 102 28
231 124 270 200 8 17 18 32 21 35 11 9 51 105 76 185 36 112 37 270 4 365 -43
124 -89 184 -222 293 -31 25 -32 27 -10 27 13 0 35 6 49 14 30 16 399 49 506
45 36 -1 69 1 73 4 10 11 13 9 24 -20z m-1471 -100 c0 -5 -18 -19 -40 -33 -22
-13 -40 -28 -40 -32 0 -4 -7 -8 -15 -8 -8 0 -15 -4 -15 -8 0 -19 -96 -107
-112 -104 -12 2 -18 -3 -18 -16 0 -11 -7 -25 -15 -32 -8 -7 -13 -15 -10 -19 2
-4 -9 -22 -25 -39 -16 -18 -28 -38 -26 -45 1 -6 1 -9 -1 -4 -3 4 -12 7 -20 7
-12 0 -13 -3 -4 -14 8 -10 9 -21 0 -42 -10 -28 -11 -28 -25 -10 -13 18 -14 16
-14 -27 0 -26 -3 -47 -8 -47 -8 0 -31 -62 -37 -104 -3 -16 -12 -37 -21 -47 -9
-10 -13 -22 -10 -27 3 -5 1 -49 -6 -96 -11 -90 -28 -101 -28 -20 0 85 -104
284 -198 381 -43 44 -149 123 -166 123 -4 0 -36 14 -71 30 -36 17 -89 35 -117
41 -29 5 -66 15 -83 21 -16 6 -93 13 -170 15 -124 5 -148 3 -212 -17 -39 -12
-108 -45 -153 -73 -45 -29 -93 -58 -105 -65 -13 -7 -63 -51 -111 -97 -64 -62
-90 -82 -97 -73 -6 9 -7 8 -4 -4 3 -9 -10 -42 -29 -75 -90 -149 -141 -271
-151 -363 -3 -25 -9 -47 -13 -50 -8 -6 -17 -84 -26 -230 -6 -95 -20 -169 -25
-130 -1 8 -5 2 -9 -15 -11 -42 -12 -137 -1 -131 4 3 6 28 3 56 -4 41 -2 50 11
50 14 0 16 -19 14 -160 -1 -87 1 -152 4 -142 12 30 21 -28 14 -88 -4 -30 -6
-114 -5 -186 1 -103 -2 -139 -16 -174 -13 -32 -15 -45 -6 -48 9 -3 6 -16 -10
-45 -29 -55 -92 -124 -106 -119 -8 2 -12 -11 -12 -37 0 -47 3 -49 32 -21 26
24 58 29 38 5 -7 -8 -28 -24 -46 -36 -19 -11 -41 -33 -49 -47 -8 -15 -14 -22
-15 -16 -1 27 -30 23 -45 -6 -30 -59 -10 -209 31 -233 8 -4 14 -15 14 -24 0
-11 6 -13 23 -8 12 4 43 10 70 12 32 3 47 10 47 19 0 12 4 12 20 2 18 -12 20
-24 20 -130 0 -98 3 -118 15 -118 11 0 16 -12 17 -42 l1 -43 4 43 c6 57 25 54
22 -3 -3 -40 1 -50 29 -78 27 -27 32 -29 32 -12 0 11 3 15 8 10 20 -23 41
-106 47 -187 6 -80 16 -108 28 -75 2 6 2 -12 -1 -40 -3 -40 -1 -53 9 -53 10 0
10 -3 2 -11 -13 -13 -6 -193 8 -221 12 -22 20 -168 24 -438 3 -186 1 -233 -12
-270 -9 -25 -20 -49 -25 -55 -13 -14 -9 -45 5 -45 8 0 20 -18 27 -40 14 -42
35 -53 43 -22 2 9 2 -7 -1 -35 -3 -36 -1 -53 7 -53 14 0 15 -56 1 -65 -6 -4
-10 -60 -10 -136 0 -101 -3 -129 -13 -129 -11 0 -15 -28 -20 -115 -5 -86 -11
-124 -27 -154 -11 -22 -20 -48 -20 -59 0 -25 -68 -51 -81 -31 -5 8 -9 20 -9
27 0 6 -9 12 -19 12 -10 0 -21 7 -25 15 -8 21 -23 19 -29 -5 -3 -11 -10 -20
-16 -20 -8 0 -7 6 1 20 11 16 10 25 -4 47 -9 16 -25 33 -35 38 -10 6 -20 13
-23 17 -18 23 -169 5 -178 -21 -2 -6 -8 -11 -13 -11 -16 0 -93 -83 -114 -123
-11 -20 -22 -37 -25 -37 -4 0 -17 -30 -30 -67 l-25 -68 -6 35 c-4 19 -7 30 -8
24 -2 -16 -96 -110 -132 -131 -16 -10 -29 -23 -29 -29 0 -12 -19 -17 -112 -30
-31 -4 -48 -3 -48 4 0 6 17 12 38 14 20 2 -19 2 -88 0 -69 -1 -141 -6 -160 -9
-30 -5 -32 -7 -15 -13 14 -6 4 -9 -35 -10 -30 0 -109 -3 -175 -6 -215 -9
-1187 -5 -1290 5 -55 6 -161 15 -235 21 -74 5 -202 17 -285 26 -131 14 -335
33 -515 49 -94 8 -196 22 -177 23 10 1 15 7 12 12 -9 15 -35 12 -35 -4 0 -15
-119 -14 -265 4 -44 5 -170 14 -280 20 -342 19 -484 38 -610 83 -72 26 -112
74 -134 161 -29 116 -33 708 -18 2606 4 553 13 1100 18 1215 6 116 14 445 18
732 3 287 9 525 14 529 4 4 7 -17 8 -47 0 -30 3 -48 6 -41 8 19 21 14 26 -10
2 -13 5 -2 6 24 1 39 4 45 19 41 10 -2 26 5 36 16 11 12 31 21 46 21 14 0 30
4 36 9 21 22 197 33 474 30 157 -2 501 -2 765 -1 631 3 1930 -33 2060 -57 66
-13 829 -13 975 0 63 5 176 14 250 19 182 12 336 27 347 33 10 6 336 25 553
32 85 3 189 8 230 11 41 3 134 9 205 14 232 16 408 30 500 40 252 27 312 32
460 39 88 5 163 9 168 10 4 0 7 -2 7 -6z m-10336 -99 c9 -3 16 -16 16 -28 -1
-21 55 -204 71 -238 5 -10 9 -26 9 -35 0 -17 59 -162 70 -173 8 -8 31 -71 41
-113 5 -21 14 -45 19 -55 19 -35 64 -198 63 -232 -1 -19 2 -39 7 -45 4 -5 10
-80 13 -165 3 -85 11 -193 18 -240 23 -166 -25 -368 -112 -471 -19 -22 -35
-45 -37 -50 -2 -5 -7 -9 -12 -9 -4 0 -22 -13 -38 -29 -45 -42 -127 -56 -233
-42 -46 6 -85 16 -87 21 -2 6 -8 10 -14 10 -15 0 -98 53 -98 63 0 10 -42 71
-52 75 -5 2 -8 9 -8 16 0 7 -6 26 -14 42 -24 48 -48 189 -43 251 7 91 45 371
61 448 16 74 41 220 56 320 14 97 48 246 75 331 14 43 25 84 25 92 0 7 4 20
10 30 11 20 39 96 47 130 3 12 9 22 14 22 5 0 9 6 9 13 0 6 14 24 32 39 33 27
61 34 92 22z m10670 -296 c-6 -19 -3 -20 22 -14 22 5 25 4 14 -4 -13 -9 -12
-13 8 -29 18 -16 22 -29 22 -75 0 -48 -3 -56 -18 -56 -13 0 -23 -13 -32 -40
-7 -22 -17 -40 -22 -40 -5 0 -7 -8 -4 -18 5 -14 1 -18 -16 -18 -15 1 -27 -7
-33 -21 -12 -27 -35 -30 -36 -5 0 14 -2 14 -9 -3 -5 -11 -9 -110 -9 -220 0
-110 3 -192 7 -183 4 10 8 -42 10 -115 2 -72 0 -128 -4 -124 -13 12 -33 304
-33 472 0 215 27 350 95 476 26 47 52 58 38 17z m-1774 -548 c0 15 57 -16 69
-37 6 -10 11 -12 11 -5 0 6 5 12 10 12 6 0 10 -18 10 -40 0 -38 2 -40 30 -40
28 0 30 -2 30 -40 0 -22 -4 -40 -9 -40 -15 0 -19 -93 -4 -122 7 -15 13 -52 13
-83 0 -46 4 -60 24 -78 20 -19 23 -29 19 -69 -4 -39 -9 -48 -24 -48 -11 0 -19
7 -19 16 0 8 -4 12 -10 9 -5 -3 -10 -28 -10 -56 0 -27 -4 -49 -10 -49 -5 0
-10 -18 -10 -40 0 -33 -4 -40 -19 -40 -19 0 -35 -25 -26 -40 8 -13 -17 -60
-32 -60 -19 0 -16 9 10 31 21 18 21 20 4 30 -14 8 -17 18 -12 36 3 14 2 30 -3
36 -15 20 -25 69 -26 128 -1 31 -7 63 -14 72 -8 9 -11 24 -8 35 4 10 -1 32 -9
50 -9 17 -15 52 -15 79 1 76 -9 184 -18 197 -13 17 -15 126 -3 126 6 0 11 9
11 20 0 18 3 19 20 10 14 -8 20 -8 20 0z m880 -395 c-7 -8 -8 -20 -4 -27 11
-16 6 -480 -4 -488 -5 -3 -14 -21 -22 -40 -8 -19 -29 -50 -47 -69 -18 -19 -33
-39 -33 -43 0 -4 -7 -8 -15 -8 -11 0 -15 -11 -15 -40 0 -33 -3 -40 -20 -40
-18 0 -20 -7 -21 -57 -1 -32 -3 -50 -6 -40 -6 23 -33 22 -33 -2 0 -10 3 -46 7
-81 5 -54 8 -60 18 -41 11 21 12 20 25 -14 7 -19 19 -35 26 -35 7 0 17 -6 21
-14 4 -7 27 -16 49 -19 33 -6 47 -3 68 14 14 11 26 27 26 35 0 31 18 12 22
-23 5 -38 -1 -59 -9 -35 -7 18 -33 -5 -33 -29 0 -15 7 -19 38 -19 44 0 85 -24
65 -38 -10 -6 -4 -17 21 -41 19 -19 32 -40 29 -47 -3 -8 1 -14 9 -14 26 0 75
-94 83 -164 4 -31 11 -56 16 -56 5 0 9 -14 9 -31 0 -35 28 -149 40 -164 4 -5
10 -30 13 -55 15 -121 20 -150 30 -150 5 0 7 -14 4 -34 -3 -19 1 -53 9 -77 21
-59 26 -66 35 -43 4 10 5 -24 2 -76 -3 -64 0 -115 10 -155 l14 -60 11 35 10
35 1 -52 c1 -29 -3 -53 -8 -53 -5 0 -4 -17 2 -37 5 -21 11 -66 12 -99 1 -34 7
-70 13 -80 8 -13 11 -15 12 -5 0 12 3 12 12 3 10 -10 10 -15 1 -20 -9 -6 -10
-32 -3 -102 5 -52 10 -105 10 -117 0 -13 4 -23 9 -23 5 0 12 10 16 23 6 20 8
20 12 3 3 -10 -1 -22 -9 -27 -15 -10 -31 -268 -16 -283 5 -6 8 -5 8 2 0 7 5
12 10 12 6 0 10 -11 10 -25 0 -17 -6 -25 -17 -25 -17 0 -18 -18 -19 -237 -1
-168 -4 -238 -13 -241 -6 -2 -11 -20 -11 -40 0 -20 -7 -46 -16 -57 -9 -13 -12
-30 -8 -48 5 -23 2 -29 -14 -34 -11 -2 -24 -15 -30 -27 -5 -12 -27 -30 -48
-41 -22 -11 -42 -24 -45 -29 -4 -5 -23 -6 -42 -3 -20 3 -37 2 -39 -2 -2 -4
-27 -11 -55 -14 -41 -5 -56 -2 -69 11 -21 21 -91 25 -98 6 -3 -8 -13 -14 -23
-14 -15 0 -16 2 -3 10 23 16 -16 41 -55 36 -110 -17 -136 -17 -133 0 2 9 -6
22 -17 30 -18 12 -24 12 -44 -2 -16 -12 -20 -19 -12 -27 16 -16 14 -42 -4 -57
-13 -11 -13 -15 -3 -21 9 -6 3 -9 -15 -9 -19 0 -26 4 -21 12 4 7 3 8 -5 4 -6
-4 -9 -12 -6 -17 4 -5 -5 -9 -19 -9 -14 0 -26 -4 -26 -9 0 -5 -24 -14 -52 -21
-29 -7 -75 -19 -101 -27 -26 -9 -50 -14 -52 -11 -2 2 5 56 16 119 34 185 31
742 -5 1009 -17 122 -30 264 -46 500 -18 272 -67 750 -92 915 -18 113 -21 234
-8 251 10 11 10 14 -2 14 -10 0 -13 11 -10 40 3 29 9 40 21 40 9 0 27 18 41
40 13 22 28 40 33 40 5 0 18 11 29 25 11 14 26 25 33 25 18 0 37 34 29 54 -4
10 -15 13 -40 9 -22 -4 -34 -2 -34 6 0 6 5 11 12 11 6 0 19 7 28 15 10 9 37
19 61 23 40 7 44 10 47 39 2 22 8 31 20 31 25 -1 213 106 245 140 21 22 30 42
34 84 6 60 -8 98 -53 143 -29 29 -42 28 -111 -11 -53 -29 -57 -15 -5 16 20 13
31 25 25 27 -7 3 -13 13 -13 24 0 10 -4 19 -9 19 -5 0 -13 14 -16 32 -6 23 -3
35 9 43 9 7 16 20 16 29 0 9 7 16 15 16 8 0 15 8 15 18 0 9 3 27 6 39 4 15 1
22 -13 26 -12 3 -8 5 10 6 20 1 31 7 34 21 3 11 22 28 42 37 45 21 121 71 141
94 40 45 70 84 71 93 1 6 4 -2 6 -17 3 -16 -1 -34 -7 -42z m-9913 -2061 c33
-33 77 -122 97 -196 8 -29 19 -66 25 -83 24 -73 61 -480 61 -685 0 -95 -24
-227 -46 -251 -8 -8 -14 -21 -14 -27 0 -7 -8 -13 -17 -13 -17 -1 -17 -2 0 -6
23 -6 22 -17 -10 -77 -40 -73 -77 -111 -140 -142 -48 -23 -64 -26 -123 -22
-62 5 -72 9 -111 44 -65 59 -88 84 -94 105 -4 11 -13 19 -21 19 -8 0 -14 10
-14 26 0 14 -5 34 -10 45 -6 11 -12 40 -14 65 -1 26 -8 49 -17 54 -19 13 -20
413 -1 480 30 103 86 268 103 304 11 22 19 46 19 53 0 7 4 13 9 13 4 0 16 26
25 58 16 60 71 159 109 200 55 60 143 77 184 36z m-678 -2293 c23 -17 30 -33
41 -93 7 -40 19 -104 27 -143 8 -38 17 -91 20 -117 3 -27 9 -48 14 -48 5 0 9
-19 9 -42 0 -24 5 -72 11 -108 16 -99 17 -271 2 -277 -7 -3 -13 -22 -13 -43 0
-20 -8 -52 -17 -71 -14 -27 -18 -59 -18 -156 0 -113 -1 -122 -20 -128 -19 -5
-19 -6 5 -24 l25 -20 -22 -20 c-45 -42 -201 -73 -246 -49 -28 14 -77 63 -77
76 0 5 -7 15 -15 22 -8 7 -13 16 -10 20 2 4 0 22 -6 41 -42 141 -59 267 -59
430 0 174 14 272 60 415 11 34 20 69 20 78 0 9 4 16 8 16 7 0 47 79 70 138 11
31 87 103 116 111 44 13 45 13 75 -8z m12911 -4236 l0 -85 -40 0 -40 0 0 -40
0 -40 -40 0 -40 0 0 -40 0 -40 -40 0 -40 0 0 -40 0 -40 -80 0 -80 0 0 -40 0
-40 -40 0 -40 0 0 -40 0 -40 -40 0 -40 0 0 -40 0 -40 -80 0 -80 0 0 -40 0 -40
-80 0 -80 0 0 -50 0 -50 -40 0 c-22 0 -40 5 -40 10 0 6 -18 10 -40 10 l-40 0
0 -40 0 -40 -80 0 -80 0 0 -40 0 -40 -40 0 -40 0 0 -40 0 -40 160 0 160 0 0
40 0 40 40 0 c22 0 40 5 40 10 0 6 18 10 40 10 38 0 40 2 40 30 0 28 2 30 40
30 l40 0 0 40 0 40 40 0 40 0 0 40 0 40 40 0 40 0 0 -80 0 -80 -80 0 -80 0 0
-40 c0 -38 -2 -40 -30 -40 -28 0 -30 -2 -30 -40 l0 -40 -90 0 -90 0 0 -40 0
-40 -40 0 -40 0 0 -50 0 -50 -40 0 c-22 0 -40 5 -40 10 0 6 -18 10 -40 10
l-40 0 0 -40 0 -40 -40 0 -40 0 0 -40 0 -40 -40 0 -40 0 0 40 0 40 -40 0 -40
0 0 -40 0 -40 -40 0 -40 0 0 -40 0 -40 -120 0 -120 0 0 -40 0 -40 -40 0 -40 0
0 -40 0 -40 -80 0 -80 0 0 -40 0 -40 -160 0 -160 0 0 -40 0 -40 -40 0 -40 0 0
-40 0 -40 -80 0 c-47 0 -80 -4 -80 -10 0 -5 -18 -10 -40 -10 -22 0 -40 5 -40
10 0 6 18 10 40 10 l40 0 0 40 c0 38 2 40 30 40 28 0 30 2 30 40 l0 40 90 0
90 0 0 80 0 80 -40 0 -40 0 0 -40 0 -40 -120 0 -120 0 0 -40 0 -40 -40 0 c-40
0 -40 0 -40 39 l0 39 -76 7 c-41 4 -78 4 -81 1 -4 -3 12 -6 35 -6 l42 0 0 -40
0 -40 -120 0 -120 0 0 -40 0 -40 -80 0 -80 0 0 -40 0 -40 -40 0 -40 0 0 60 0
60 -40 0 -40 0 0 -60 0 -60 -40 0 c-22 0 -40 -4 -40 -10 0 -5 -18 -10 -40 -10
-38 0 -40 -2 -40 -30 0 -28 -2 -30 -40 -30 -33 0 -40 3 -40 20 0 17 -7 20 -40
20 -34 0 -40 -3 -40 -21 0 -20 -4 -21 -77 -17 -43 3 -61 3 -40 1 36 -4 37 -5
37 -44 0 -39 0 -39 40 -39 l40 0 0 -40 0 -40 -40 0 -40 0 0 40 0 40 -59 0
c-32 0 -85 2 -117 4 -32 2 -42 1 -21 -1 36 -4 37 -5 37 -45 l0 -41 -117 4
c-65 3 -101 3 -80 1 36 -3 37 -4 37 -43 l0 -39 -80 0 c-47 0 -80 -4 -80 -10 0
-12 -77 -13 -82 -1 -3 8 -351 16 -555 12 l-83 -1 0 -39 0 -39 -80 -7 c-58 -5
-80 -11 -80 -21 0 -10 -12 -14 -40 -14 -33 0 -40 3 -40 20 0 19 -7 20 -200 20
-193 0 -200 -1 -200 -20 0 -17 -7 -20 -40 -20 -33 0 -40 3 -40 20 0 19 -7 20
-120 20 l-120 0 0 -60 0 -60 -80 0 c-73 0 -80 2 -80 20 0 19 -7 20 -120 20
-73 0 -120 4 -120 10 0 6 -18 10 -40 10 -22 0 -40 5 -40 10 0 6 -18 10 -40 10
-33 0 -40 -3 -40 -20 0 -17 -7 -20 -40 -20 -22 0 -40 5 -40 10 0 6 -18 10 -40
10 -38 0 -40 -2 -40 -30 0 -28 -2 -30 -40 -30 -33 0 -40 3 -40 20 0 17 -7 20
-40 20 -33 0 -40 -3 -40 -20 0 -17 -7 -20 -40 -20 -22 0 -40 -4 -40 -10 0 -5
-18 -10 -40 -10 -22 0 -40 -4 -40 -10 0 -5 -18 -10 -40 -10 l-40 0 0 50 0 50
-40 0 c-22 0 -40 -4 -40 -10 0 -6 -33 -10 -80 -10 l-80 0 0 -40 0 -40 -40 0
c-33 0 -40 3 -40 20 0 18 -7 20 -80 20 l-80 0 0 -30 c0 -28 -2 -30 -40 -30
-22 0 -40 5 -40 10 0 6 -33 10 -80 10 -73 0 -80 2 -80 20 0 17 -7 20 -40 20
-22 0 -40 5 -40 10 0 6 -33 10 -80 10 -47 0 -80 4 -80 10 0 6 -33 10 -80 10
-75 0 -80 1 -80 21 0 20 -4 21 -50 17 -45 -5 -53 -2 -69 18 -15 20 -28 24 -70
24 l-51 0 0 45 0 45 -40 0 c-29 0 -40 -4 -40 -15 0 -11 -11 -15 -40 -15 -22 0
-40 5 -40 10 0 6 -100 10 -280 10 -273 0 -280 0 -280 20 0 17 -7 20 -40 20
-33 0 -40 3 -40 20 0 17 -7 20 -40 20 -22 0 -40 -4 -40 -10 0 -5 -18 -10 -40
-10 -22 0 -40 5 -40 10 0 6 -18 10 -40 10 -33 0 -40 3 -40 20 0 17 -7 20 -40
20 -33 0 -40 3 -40 20 0 20 -7 20 -280 20 l-280 0 0 40 0 40 -80 0 -80 0 0 40
0 40 -160 0 -160 0 0 40 0 40 -40 0 -40 0 0 41 0 42 -202 -4 c-112 -2 -184 -3
-161 -1 43 3 43 3 43 43 0 39 0 39 -40 39 -40 0 -40 0 -40 38 l0 39 -120 0
c-110 0 -120 -2 -120 -19 0 -14 -8 -18 -39 -18 -33 0 -40 -4 -45 -22 -2 -13
-2 15 1 61 l5 83 -78 -4 c-44 -3 -62 -3 -41 -1 36 4 37 5 37 44 0 39 0 39 -40
39 -33 0 -40 -3 -40 -20 0 -11 -4 -20 -10 -20 -5 0 -15 9 -22 20 -10 16 -24
20 -70 20 l-58 0 0 40 c0 40 0 40 -39 40 -22 0 -41 -5 -44 -12 -2 -8 -8 -9
-13 -4 -5 5 -4 11 4 13 7 3 12 22 12 44 0 39 0 39 -40 39 -33 0 -40 -3 -40
-20 0 -26 -16 -26 -32 0 -7 11 -21 20 -30 20 -13 0 -18 8 -18 31 l0 32 -51 -5
c-37 -4 -52 -2 -56 8 -3 8 -16 14 -29 14 -17 0 -24 6 -24 20 0 11 -9 29 -20
40 -11 11 -29 20 -40 20 -13 0 -20 7 -20 20 0 11 -9 29 -20 40 -11 11 -29 20
-40 20 -13 0 -20 7 -20 20 0 11 -9 29 -20 40 -13 13 -20 33 -20 60 l0 40 -40
0 -40 0 0 40 c0 35 -3 40 -23 40 -14 0 -39 16 -62 40 l-39 40 44 2 45 1 -40 4
c-29 3 -48 14 -73 39 -18 19 -39 34 -46 34 -8 0 -17 12 -20 26 -4 16 -18 30
-36 37 -17 6 -30 18 -30 27 0 8 -7 24 -15 34 -23 31 -18 36 33 37 46 1 46 1
14 10 -23 7 -32 15 -32 30 0 16 4 19 18 14 9 -5 32 -10 50 -13 32 -4 43 -25
20 -36 -7 -3 5 -5 27 -4 63 1 70 -1 80 -24 6 -15 19 -23 35 -24 14 0 42 -8 62
-17 21 -9 40 -17 43 -17 3 0 17 -12 30 -27 20 -23 26 -25 34 -14 8 12 13 12
35 -3 15 -9 24 -21 21 -25 -6 -10 29 -21 70 -21 17 0 61 -11 99 -25 38 -14 79
-25 92 -25 12 0 26 -4 29 -10 3 -5 17 -10 31 -10 13 0 24 -4 24 -8 0 -13 47
-32 80 -32 35 0 47 -15 23 -29 -15 -8 -11 -10 20 -11 30 0 37 -4 37 -20 0 -17
7 -20 40 -20 22 0 40 4 40 9 0 8 18 8 110 1 10 -1 7 -5 -7 -12 -37 -18 -27
-31 17 -24 60 9 120 -3 120 -24 0 -14 12 -19 68 -24 37 -3 78 -8 92 -10 14 -1
31 -4 38 -4 18 -3 15 -20 -6 -25 -9 -2 16 -7 56 -12 50 -5 72 -12 72 -21 0 -9
12 -14 33 -15 111 -3 222 -10 226 -15 3 -3 -1 -9 -9 -14 -10 -7 12 -10 65 -10
74 0 81 -2 90 -22 7 -15 21 -24 40 -26 16 -2 33 -8 36 -14 3 -5 43 -10 87 -11
45 0 79 -4 76 -9 -3 -4 30 -8 74 -8 65 0 82 -3 96 -19 10 -11 38 -22 64 -26
26 -3 56 -9 67 -12 35 -10 5 12 -33 23 l-37 12 37 1 c20 1 49 -4 63 -9 15 -6
59 -13 98 -16 39 -3 82 -10 95 -15 13 -5 43 -9 67 -9 24 0 45 -5 47 -11 2 -6
39 -13 86 -15 45 -2 113 -11 150 -19 38 -8 120 -19 183 -26 63 -6 129 -18 148
-26 18 -8 45 -13 59 -10 15 3 69 1 122 -3 52 -5 190 -14 305 -20 116 -6 246
-13 290 -15 171 -10 646 -17 995 -15 606 4 639 5 627 12 -7 5 -2 8 13 9 14 0
63 3 110 5 47 3 128 7 180 9 133 5 315 21 380 34 30 6 170 16 310 22 140 5
296 14 345 20 126 13 407 30 413 24 3 -3 16 2 28 10 14 9 48 15 81 16 32 0 90
7 128 14 39 7 77 13 85 13 8 0 83 10 165 22 83 12 191 26 240 31 50 5 128 16
175 24 47 8 132 19 190 26 58 7 107 15 110 19 9 13 80 22 80 10 0 -11 42 -13
90 -4 21 5 27 9 19 15 -16 10 -1 13 161 40 183 29 300 41 337 34 31 -5 33 -9
33 -45 0 -33 -3 -40 -20 -40 -26 0 -60 -34 -60 -60 0 -17 7 -20 40 -20 l40 0
2 -42 1 -43 4 43 c3 34 8 42 24 42 16 0 19 7 19 40 0 29 4 40 15 40 11 0 15
11 15 39 0 43 10 51 65 51 46 0 95 11 95 21 0 11 -51 11 -69 0 -14 -9 -51 -3
-51 9 0 4 26 10 57 13 32 3 59 11 61 17 2 5 22 10 45 10 23 0 75 6 116 14 41
8 79 12 86 10 6 -3 24 0 40 6 18 7 30 7 34 1 8 -12 85 -31 126 -30 27 0 28 1
10 11 -30 16 -31 18 -16 28 8 4 38 6 68 3 45 -5 53 -3 53 11 0 9 8 16 19 16
10 0 46 3 80 6 58 7 61 6 61 -15 0 -25 12 -27 30 -6 17 20 14 22 -45 33 l-50
9 29 12 c16 6 32 8 35 3 8 -11 82 -32 112 -32 21 1 20 3 -10 15 -18 8 -45 15
-59 15 -19 0 -23 3 -15 11 6 6 30 11 52 11 22 0 44 5 48 12 5 7 40 18 78 25
39 6 99 20 135 30 81 24 280 73 300 75 8 1 25 7 38 14 12 7 32 10 43 7 12 -4
31 0 47 11 15 10 43 21 62 25 48 10 180 48 205 59 39 17 140 43 185 46 25 3
50 11 56 19 6 9 28 15 50 16 31 0 35 2 19 9 -16 7 -12 9 23 15 24 5 46 14 49
22 3 8 12 12 20 9 21 -8 63 4 63 18 0 16 74 40 78 26 2 -6 22 -10 43 -10 25 0
38 4 34 10 -4 6 -15 8 -26 5 -35 -11 -43 7 -9 21 42 18 64 18 57 -1 -4 -8 -3
-17 2 -19 10 -6 74 58 66 66 -3 3 23 15 57 27 35 13 78 29 96 37 18 8 49 14
70 14 23 0 32 3 24 9 -17 10 1 25 40 35 15 3 33 12 41 20 12 13 36 20 75 25 9
1 12 -22 12 -84z"/>
<path d="M16112 24610 c-60 -9 -112 -28 -112 -41 0 -5 -18 -9 -40 -9 -22 0
-54 -9 -72 -20 -20 -12 -51 -20 -76 -20 -50 0 -133 -33 -170 -67 -14 -13 -32
-21 -40 -18 -24 9 -82 -6 -82 -21 0 -8 6 -14 13 -14 6 0 -10 -11 -37 -24 -27
-13 -57 -21 -68 -18 -13 3 -21 -1 -24 -15 -3 -12 -26 -29 -53 -42 -26 -12 -70
-35 -97 -53 -102 -65 -159 -103 -164 -109 -3 -3 -23 -17 -46 -31 -49 -31 -215
-198 -235 -236 -8 -15 -24 -36 -36 -48 -30 -28 -89 -110 -115 -161 -12 -24
-26 -43 -30 -43 -4 0 -8 -7 -8 -15 0 -9 -9 -34 -21 -57 -30 -58 -67 -233 -80
-377 -18 -202 21 -471 91 -626 44 -99 58 -137 70 -195 7 -30 18 -67 26 -82 8
-14 14 -38 14 -52 0 -16 6 -26 14 -26 8 0 20 -16 26 -35 6 -19 17 -38 23 -42
7 -5 18 -20 25 -34 8 -14 32 -46 54 -70 22 -24 46 -54 55 -66 8 -13 20 -23 25
-23 5 0 27 -18 48 -40 21 -22 45 -40 53 -40 8 0 17 -6 20 -14 3 -8 23 -20 44
-26 21 -7 45 -18 53 -25 16 -13 79 -36 148 -54 85 -22 128 -36 152 -48 14 -7
35 -13 48 -13 12 0 38 -7 57 -14 19 -8 35 -13 35 -11 0 1 21 -3 48 -11 95 -30
262 -45 477 -43 133 1 215 5 223 12 10 7 27 7 63 -2 52 -14 154 -6 143 10 -3
5 1 9 9 9 8 0 20 7 27 15 7 8 21 15 31 15 11 0 19 4 19 9 0 5 10 11 23 13 12
2 22 9 22 17 0 8 12 18 27 22 15 4 37 14 49 23 14 9 32 13 46 9 19 -4 25 -1
29 15 4 15 13 19 36 18 21 -1 34 5 42 19 6 11 12 22 14 24 1 2 12 5 25 7 12 1
25 3 28 3 4 1 9 10 12 21 3 12 14 20 27 20 11 0 31 11 43 24 17 18 27 22 40
15 13 -8 17 -6 17 6 0 8 3 15 8 15 4 0 12 10 17 23 6 12 20 23 33 25 12 2 22
10 22 18 0 8 6 14 14 14 7 0 16 9 19 21 3 11 15 23 26 26 12 3 21 12 21 19 0
8 5 14 11 14 14 0 69 55 69 69 0 6 8 11 18 11 11 0 24 11 30 25 6 14 16 25 22
25 5 0 10 9 10 20 0 11 6 20 14 20 27 0 58 35 59 66 0 16 2 23 4 17 9 -26 30
-12 42 30 18 57 44 117 53 117 7 0 34 84 59 185 6 22 15 54 21 70 14 42 41
195 40 228 -1 17 4 27 13 27 21 0 20 281 0 400 -8 47 -17 103 -21 125 -4 22
-16 50 -27 63 -11 12 -18 22 -14 22 3 0 1 15 -4 33 -6 17 -12 39 -14 47 -7 28
-44 123 -50 129 -4 3 -12 6 -17 6 -6 0 -13 6 -15 13 -3 6 0 12 6 12 6 0 11 7
11 15 0 8 -5 15 -10 15 -6 0 -16 11 -22 25 -6 14 -19 25 -30 25 -14 0 -18 8
-18 35 0 25 -4 33 -14 29 -8 -3 -17 -1 -21 5 -3 6 -1 11 5 11 20 0 -9 39 -42
56 -20 11 -27 19 -19 23 16 10 -54 81 -79 81 -10 0 -21 9 -25 19 -3 11 -15 23
-26 26 -10 4 -19 13 -19 21 0 8 -8 14 -19 14 -10 0 -21 9 -24 20 -3 14 -14 20
-31 20 -23 0 -31 9 -27 33 0 4 -5 7 -12 7 -7 0 -22 8 -33 19 -11 10 -37 24
-57 30 -24 8 -37 19 -37 30 0 18 -64 46 -81 35 -5 -2 -24 2 -43 10 -19 8 -37
11 -41 8 -3 -4 -3 1 1 11 4 12 1 17 -13 17 -10 0 -23 4 -28 9 -9 8 -141 41
-190 47 -11 1 -22 3 -25 3 -3 1 2 6 10 11 11 7 0 10 -38 10 -31 0 -63 7 -77
16 -13 9 -28 13 -34 10 -5 -3 -40 0 -78 8 -91 19 -226 26 -291 16z"/>
<path d="M12260 20204 c-57 -10 -117 -28 -152 -46 -31 -15 -40 -27 -53 -70 -8
-28 -15 -60 -15 -70 0 -10 -7 -18 -15 -18 -17 0 -21 -26 -5 -32 9 -3 15 -184
19 -598 0 -41 -6 -142 -14 -225 -8 -82 -15 -197 -16 -255 0 -58 -3 -142 -6
-187 -5 -69 -8 -80 -19 -68 -8 7 -15 31 -15 52 l-2 38 -7 -45 c-4 -25 -10 -58
-14 -75 -5 -25 -5 -26 3 -7 18 40 31 24 32 -40 2 -217 -3 -388 -16 -590 -6
-77 -4 -116 5 -137 18 -45 21 -78 27 -320 3 -156 1 -226 -6 -230 -8 -5 -6 -21
5 -53 12 -36 13 -60 6 -113 -5 -37 -6 -84 -3 -104 9 -50 5 -462 -4 -484 -4
-10 -4 -53 -1 -95 4 -47 0 -165 -9 -293 -17 -217 -15 -375 6 -599 10 -109 37
-186 67 -198 9 -3 26 -17 38 -31 13 -15 44 -31 80 -41 52 -14 77 -14 204 -3
80 6 215 14 300 17 85 2 168 9 183 15 16 6 45 11 66 11 22 0 44 6 51 15 7 8
17 15 22 15 5 0 34 16 64 35 30 19 58 35 63 35 4 0 19 9 32 20 38 32 42 34 82
55 20 11 37 23 37 27 0 5 4 8 9 8 30 0 187 124 276 219 129 137 145 156 151
175 4 11 24 38 45 60 22 21 39 46 39 55 0 9 16 31 35 50 20 19 38 45 41 58 4
12 10 23 14 23 5 0 12 10 16 23 3 12 12 29 19 37 6 8 28 54 48 101 20 47 47
105 60 130 13 24 27 57 31 73 5 19 10 25 15 18 5 -8 12 -5 25 9 15 18 16 25 6
44 -7 13 -10 41 -7 66 11 82 23 144 31 158 5 7 12 36 17 65 l8 51 -4 -55 c-2
-30 -7 -79 -11 -107 -4 -37 -3 -53 5 -53 6 0 11 17 11 39 0 22 4 41 9 43 5 2
12 38 16 81 7 70 6 77 -11 77 -15 0 -13 5 11 30 23 24 29 38 27 67 -2 20 2 39
8 43 7 4 13 69 17 170 4 116 3 161 -5 156 -7 -4 -9 -27 -5 -64 5 -53 4 -56
-11 -37 -15 20 -15 19 -16 -7 0 -15 -4 -30 -10 -33 -6 -4 -10 15 -10 49 0 184
-41 435 -125 761 -8 28 -19 77 -25 110 -6 33 -16 68 -22 79 -5 10 -16 42 -23
70 -7 28 -21 65 -29 81 -9 17 -16 40 -16 52 0 12 -9 38 -20 58 -11 20 -20 40
-20 46 0 11 -28 85 -85 224 -18 44 -48 116 -65 160 -18 44 -55 125 -82 180
-28 55 -58 114 -66 130 -34 69 -115 205 -128 216 -8 6 -14 15 -14 20 0 8 -41
74 -61 98 -7 7 -28 34 -47 60 -49 63 -283 308 -313 326 -82 50 -92 59 -66 68
6 2 2 3 -10 1 -11 -2 -47 9 -80 25 -72 36 -146 61 -178 61 -13 0 -27 5 -30 10
-3 6 -27 10 -53 10 -26 0 -64 5 -86 9 -46 11 -240 21 -276 15z m568 -970 c18
-19 39 -34 47 -34 7 0 22 -18 32 -40 10 -22 25 -40 34 -40 17 0 59 -69 52 -86
-2 -7 6 -20 19 -30 13 -11 34 -42 48 -71 14 -29 31 -52 38 -53 7 0 12 -15 12
-40 0 -22 4 -40 10 -40 5 0 14 -19 20 -42 26 -98 34 -118 47 -118 11 0 15 -22
13 -75 0 -3 6 -18 15 -35 8 -16 15 -51 15 -78 0 -33 8 -64 25 -96 20 -38 25
-62 25 -119 0 -55 5 -79 20 -102 13 -20 20 -47 20 -82 0 -29 5 -53 10 -53 6 0
10 -18 10 -40 0 -22 4 -40 9 -40 5 0 12 -36 16 -80 4 -44 11 -80 16 -80 5 0 9
-18 9 -40 0 -22 4 -40 9 -40 5 0 12 -36 16 -80 7 -76 18 -101 28 -62 3 9 5
-23 5 -73 0 -49 5 -101 10 -115 10 -26 0 -316 -13 -417 -5 -35 -4 -53 3 -53 6
0 13 10 15 23 4 22 4 22 6 0 0 -12 -6 -28 -14 -37 -8 -8 -15 -26 -15 -40 0
-15 -6 -26 -13 -26 -9 0 -17 -27 -24 -90 -6 -58 -16 -97 -27 -108 -9 -10 -16
-35 -16 -55 0 -20 -4 -37 -10 -37 -5 0 -20 -23 -34 -52 -18 -38 -22 -54 -13
-60 7 -4 3 -10 -13 -16 -15 -6 -36 -30 -50 -57 -43 -80 -46 -85 -100 -141 -29
-30 -63 -57 -76 -60 -14 -4 -24 -14 -24 -24 0 -10 -8 -21 -17 -24 -37 -14 -63
-31 -63 -42 0 -10 -26 -26 -62 -38 -10 -3 -18 -11 -18 -18 -1 -18 -72 -51 -81
-37 -3 6 -25 9 -49 8 -41 -3 -43 -2 -66 40 -13 24 -28 49 -34 55 -5 5 -11 30
-12 55 -1 37 -2 40 -5 14 -2 -18 -8 -33 -14 -33 -5 0 -9 48 -8 113 1 117 4
120 18 22 8 -54 8 -48 7 50 0 61 -2 98 -4 83 -2 -16 -8 -28 -14 -28 -6 0 -7
11 -3 28 4 15 7 87 6 160 -1 94 2 131 10 126 8 -4 8 -1 1 12 -12 23 -15 574
-3 574 5 0 9 158 10 350 1 234 -3 350 -9 350 -7 0 -7 7 1 21 8 15 10 76 6 200
-4 150 -3 179 9 179 10 0 14 12 14 40 0 22 -4 40 -10 40 -5 0 -10 18 -10 40 0
29 4 40 15 40 11 0 15 11 15 40 0 22 -4 40 -10 40 -5 0 -10 18 -10 40 0 27 4
40 14 40 11 0 14 39 18 197 3 139 8 198 16 201 18 6 15 82 -3 82 -11 0 -15 11
-15 40 0 22 5 40 10 40 6 0 10 17 10 39 l0 39 48 -6 c36 -4 54 -12 80 -38z"/>
<path d="M15635 18502 c-20 -13 -46 -24 -57 -25 -11 -1 -24 -10 -30 -21 -6
-12 -17 -27 -25 -34 -7 -7 -13 -24 -13 -37 0 -13 -5 -27 -11 -31 -13 -7 -4
-257 11 -334 5 -25 12 -141 15 -259 3 -118 12 -264 20 -324 17 -125 19 -191 6
-183 -4 3 -6 28 -3 56 2 27 0 50 -4 50 -5 0 -10 19 -11 43 -2 86 -16 197 -24
197 -5 0 -9 -36 -9 -80 0 -47 4 -80 10 -80 6 0 10 -18 10 -40 0 -22 -4 -40
-10 -40 -6 0 -10 -32 -10 -75 0 -46 -6 -90 -16 -115 -9 -23 -14 -44 -10 -47 8
-9 -33 -82 -68 -121 -17 -18 -31 -43 -31 -55 0 -12 -6 -22 -14 -22 -8 0 -23
-16 -34 -35 -10 -19 -25 -39 -33 -43 -8 -4 -14 -17 -14 -27 0 -16 -7 -20 -35
-20 -19 0 -34 -3 -34 -7 3 -18 -2 -27 -9 -16 -4 6 -21 15 -37 19 -27 7 -29 6
-16 -9 12 -15 11 -17 -7 -17 -12 0 -34 17 -52 40 -17 22 -42 43 -55 46 -13 3
-28 18 -34 32 -7 15 -26 44 -44 65 -33 37 -57 115 -57 185 0 17 -5 42 -11 56
-10 20 -9 32 4 58 17 34 14 48 -8 48 -8 0 -15 18 -19 53 -13 113 -24 319 -25
462 -2 191 -14 326 -36 392 -21 63 -99 143 -140 143 -16 0 -25 6 -25 15 0 10
-10 15 -31 15 -43 0 -129 -32 -129 -47 0 -7 -5 -13 -11 -13 -5 0 -7 -5 -4 -10
4 -6 11 -8 16 -5 5 3 6 -1 3 -9 -3 -8 -12 -17 -20 -20 -8 -3 -14 -12 -14 -21
0 -8 -4 -15 -8 -15 -5 0 -15 -18 -22 -40 -7 -22 -16 -40 -19 -40 -4 0 -5 -18
-3 -40 3 -25 0 -40 -7 -40 -6 0 -12 -19 -12 -42 l-2 -43 -6 40 c-3 22 -3 42 2
43 4 2 7 13 7 24 0 28 -24 17 -28 -13 -7 -70 -14 -94 -21 -75 -4 11 -7 -3 -7
-33 0 -32 -5 -56 -13 -60 -10 -6 -11 -27 -6 -85 6 -66 5 -76 -9 -76 -13 0 -16
-13 -16 -80 0 -73 2 -80 20 -80 22 0 20 16 25 -213 2 -81 8 -133 15 -142 7 -8
10 -26 6 -39 -8 -33 4 -86 19 -86 7 0 16 15 20 33 7 30 8 29 17 -28 13 -89 58
-283 79 -343 22 -61 23 -65 9 -57 -5 3 -10 -2 -10 -11 0 -10 3 -14 6 -11 12
12 42 -12 47 -38 3 -19 -2 -33 -17 -47 l-21 -20 30 -26 c17 -15 36 -39 43 -54
6 -16 16 -28 22 -28 5 0 10 -7 10 -16 0 -24 38 -82 58 -88 9 -3 22 -16 27 -28
6 -13 24 -27 40 -33 17 -5 36 -18 43 -27 7 -10 19 -18 26 -18 8 0 16 -7 20
-15 7 -18 50 -21 44 -2 -3 6 -14 13 -26 15 -12 2 -22 7 -22 12 0 5 -7 16 -16
24 -14 15 -14 16 0 16 9 0 16 -4 16 -9 0 -7 30 -23 150 -81 32 -15 129 -40
191 -49 65 -9 195 4 299 29 25 6 68 16 95 21 28 6 57 17 66 25 8 8 21 14 28
14 28 0 234 232 270 304 51 105 79 192 78 242 -1 32 3 57 13 69 9 11 15 45 17
99 1 44 8 128 14 186 11 111 3 372 -12 402 -5 10 -10 167 -10 350 0 191 -5
350 -11 373 -10 38 -37 69 -130 150 -19 17 -44 38 -56 48 -33 29 -130 28 -177
-1z"/>
<path d="M16720 9490 c0 -6 -33 -10 -80 -10 -61 0 -80 -3 -80 -14 0 -10 -37
-16 -162 -24 -105 -6 -126 -9 -60 -8 l102 3 0 -39 0 -38 44 0 c30 0 46 5 50
15 3 8 10 15 16 15 5 0 10 -7 10 -15 0 -11 11 -15 40 -15 22 0 40 5 40 10 0 6
18 10 40 10 22 0 40 5 40 10 0 6 18 10 40 10 l40 0 0 50 0 50 -40 0 c-22 0
-40 -4 -40 -10z"/>
<path d="M10423 29490 c-50 -5 -122 -13 -160 -19 -166 -27 -297 -42 -320 -36
-16 4 -22 2 -18 -5 4 -6 -9 -10 -34 -10 -22 0 -60 -6 -83 -14 -24 -8 -61 -18
-83 -21 -76 -14 -190 -46 -265 -77 -41 -17 -84 -34 -95 -39 -19 -7 -19 -8 2
-8 13 -1 53 12 90 28 38 16 104 38 148 51 44 12 94 25 110 30 17 5 89 18 160
29 72 12 155 26 185 31 30 6 102 15 160 21 58 6 127 15 154 20 27 5 71 9 97 9
27 0 49 5 49 10 0 6 -1 9 -2 9 -2 -1 -44 -5 -95 -9z"/>
<path d="M8828 29318 c-26 -9 -28 -14 -28 -64 l0 -55 78 3 77 3 3 38 3 37 -40
0 c-37 0 -41 2 -41 25 0 27 -9 29 -52 13z"/>
<path d="M16551 28930 c-1 -19 -10 -66 -21 -105 -10 -38 -17 -71 -15 -74 3 -2
18 2 35 9 43 18 146 8 193 -19 46 -26 50 -26 37 -1 -6 12 -21 20 -35 20 -14 0
-25 5 -25 10 0 6 -6 10 -14 10 -8 0 -29 15 -47 33 -19 19 -44 39 -56 46 -13 6
-23 18 -23 26 0 8 -4 15 -9 15 -6 0 -12 15 -14 33 l-4 32 -2 -35z"/>
<path d="M15064 28104 c-10 -38 2 -124 22 -164 24 -47 85 -120 101 -120 7 0
13 -4 13 -10 0 -5 6 -10 13 -10 8 0 22 -9 32 -20 10 -11 24 -20 31 -20 13 0
75 -30 84 -41 3 -3 22 -9 43 -13 20 -4 37 -10 37 -15 0 -4 17 -16 38 -27 20
-10 39 -21 42 -24 3 -3 31 -14 63 -24 31 -11 57 -23 57 -28 0 -4 8 -8 18 -8
30 0 48 -29 78 -120 15 -47 45 -111 66 -144 21 -32 38 -61 38 -65 0 -3 13 -21
28 -38 15 -18 43 -54 62 -79 59 -78 133 -167 168 -200 17 -18 32 -37 32 -43 0
-6 4 -11 9 -11 5 0 31 -22 57 -48 75 -74 158 -132 189 -132 8 0 15 -4 15 -10
0 -5 7 -10 15 -10 8 0 24 -9 35 -20 11 -11 28 -20 39 -20 10 0 24 -7 31 -15 7
-8 19 -15 26 -15 8 0 14 -4 14 -10 0 -11 158 -14 209 -4 17 4 36 15 42 26 14
27 11 259 -4 338 -12 59 -14 62 -21 35 -10 -39 -39 -70 -92 -96 -48 -23 -29
-28 -172 44 -28 15 -68 27 -87 27 -31 0 -35 3 -35 25 0 23 -4 25 -40 25 -29 0
-40 4 -40 15 0 11 -11 15 -42 14 -35 0 -39 -2 -23 -10 l20 -9 -20 3 c-16 2
-19 9 -17 37 2 29 1 32 -8 18 -6 -10 -15 -18 -19 -18 -18 0 -71 55 -71 73 0
10 -5 15 -11 12 -6 -4 -26 10 -46 31 -19 22 -54 59 -77 84 -61 65 -136 158
-136 169 0 6 -7 14 -16 19 -35 20 -109 157 -151 282 -27 81 -35 199 -16 235 5
11 13 33 17 49 6 26 5 28 -8 17 -9 -8 -16 -20 -16 -27 0 -8 -4 -14 -10 -14 -5
0 -16 -15 -23 -32 l-14 -33 -12 24 c-9 16 -16 20 -20 12 -9 -14 -229 -27 -284
-17 -36 7 -52 26 -23 26 8 0 18 5 21 10 4 6 -9 10 -32 10 -27 0 -34 -3 -23
-10 8 -5 11 -12 7 -16 -4 -4 -13 -2 -19 4 -7 7 -18 12 -25 12 -16 0 -105 86
-122 118 -16 29 -29 28 -37 -4z"/>
<path d="M7318 26442 c-31 -34 -38 -50 -38 -82 0 -33 3 -40 20 -40 17 0 20 -7
20 -40 0 -38 26 -80 49 -80 22 0 29 135 7 147 -10 6 -16 29 -18 72 l-3 64 -37
-41z"/>
</g>
</svg>
