<?xml version="1.0" standalone="no"?>
<!DOCTYPE svg PUBLIC "-//W3C//DTD SVG 20010904//EN"
 "http://www.w3.org/TR/2001/REC-SVG-20010904/DTD/svg10.dtd">
<svg version="1.0" xmlns="http://www.w3.org/2000/svg"
 width="3000.000000pt" height="4000.000000pt" viewBox="0 0 3000.000000 4000.000000"
 preserveAspectRatio="xMidYMid meet">
<metadata>
Created by potrace 1.16, written by Peter Selinger 2001-2019
</metadata>
<g transform="translate(0.000000,4000.000000) scale(0.100000,-0.100000)"
fill="#000000" stroke="none">
<path d="M15686 31160 c5 -29 3 -40 -6 -40 -20 0 -50 -41 -50 -67 0 -13 -5
-33 -10 -43 -22 -42 -41 -237 -55 -560 -3 -85 -12 -218 -20 -295 -8 -77 -14
-147 -13 -155 4 -26 -13 -143 -29 -200 -8 -30 -19 -80 -23 -110 -4 -30 -13
-80 -19 -111 -6 -31 -14 -89 -16 -130 -3 -41 -9 -110 -15 -154 -5 -44 -12
-145 -15 -225 -3 -80 -10 -206 -14 -280 -5 -74 -7 -162 -6 -195 6 -94 -7 -355
-16 -355 -5 0 -9 16 -9 36 0 23 -7 42 -20 52 -11 10 -26 42 -33 72 -10 37 -20
56 -31 58 -11 2 -15 10 -12 18 3 8 -2 48 -11 89 -14 66 -19 75 -39 75 -12 0
-25 6 -27 13 -4 10 -6 10 -6 0 -1 -7 -10 -13 -21 -13 -17 0 -20 7 -20 40 0 29
-4 40 -15 40 -8 0 -15 5 -15 10 0 6 -7 10 -15 10 -8 0 -15 5 -15 10 0 6 -9 10
-21 10 -12 0 -23 8 -26 20 -8 30 -31 25 -25 -5 3 -21 0 -25 -18 -25 -18 0 -21
4 -18 25 5 24 3 25 -48 25 -46 0 -54 3 -54 18 0 15 -13 22 -55 31 -30 7 -55
17 -55 22 0 5 -18 8 -40 7 -29 -1 -47 5 -63 20 -13 12 -26 19 -30 16 -4 -4
-10 1 -13 11 -4 10 -1 21 7 26 9 6 0 9 -28 9 -36 0 -43 3 -43 20 0 14 -9 21
-34 26 -19 3 -39 3 -45 0 -5 -4 -16 3 -25 15 -10 15 -21 20 -35 16 -14 -3 -21
0 -21 9 0 10 -12 14 -40 14 -22 0 -40 5 -40 10 0 6 -8 10 -17 10 -10 0 -33 9
-51 20 -24 15 -50 20 -102 20 -40 0 -70 4 -70 10 0 6 -18 10 -40 10 -60 0
-120 21 -120 42 0 16 -10 18 -75 18 -60 0 -76 -3 -84 -17 -9 -17 -10 -17 -16
0 -4 9 -14 17 -22 17 -9 0 -22 -8 -29 -17 -12 -16 -13 -16 -14 -1 0 9 6 19 13
22 10 5 10 7 0 12 -9 4 -13 29 -13 75 0 60 -2 69 -18 69 -12 0 -25 14 -37 40
-17 38 -20 40 -62 38 -23 -1 -43 -6 -43 -12 0 -6 -5 -5 -12 2 -16 16 -49 16
-43 0 10 -27 -12 -33 -97 -30 -79 3 -88 5 -88 23 0 15 -7 19 -37 19 -31 0 -42
6 -58 30 -24 36 -79 58 -100 40 -10 -8 -19 -8 -34 -1 -11 6 -36 11 -55 11 -33
0 -36 2 -36 29 0 35 -20 53 -57 51 -78 -5 -103 0 -103 20 0 18 -7 20 -80 20
-73 0 -80 2 -80 20 0 17 -7 20 -40 20 -29 0 -40 4 -40 15 0 8 -11 17 -25 21
-16 4 -25 13 -25 25 0 14 -7 19 -29 19 -18 0 -40 11 -59 30 -18 17 -36 30 -42
30 -5 0 -10 5 -10 10 0 6 -9 10 -20 10 -11 0 -20 6 -20 13 0 8 -4 7 -10 -3 -9
-13 -11 -13 -20 1 -5 9 -30 24 -55 34 -25 11 -45 23 -45 27 0 4 -18 8 -39 8
-30 0 -41 5 -46 18 -3 11 -17 24 -31 31 -14 6 -22 16 -19 21 4 6 -6 10 -24 10
-21 0 -32 6 -36 20 -5 16 -15 20 -46 20 -21 0 -39 5 -39 10 0 6 -10 8 -23 5
-15 -4 -28 -1 -36 9 -10 12 -33 16 -97 16 l-84 0 0 40 0 40 -78 0 c-65 0 -79
3 -89 19 -8 13 -32 23 -70 31 -32 6 -65 15 -74 20 -9 5 -123 9 -253 10 -235 1
-236 1 -236 -21 0 -18 -4 -20 -27 -14 -53 14 -133 17 -133 6 0 -6 -6 -11 -13
-11 -19 0 -47 -33 -47 -56 0 -17 -7 -19 -67 -17 -38 1 -80 5 -95 9 -19 4 -32
0 -47 -15 -12 -12 -25 -21 -30 -21 -11 0 -21 -25 -21 -52 0 -12 11 -40 24 -62
15 -27 26 -66 31 -111 4 -38 11 -74 15 -80 21 -29 63 -181 70 -254 5 -59 12
-86 23 -92 8 -5 25 -39 37 -77 12 -37 24 -74 28 -82 3 -8 11 -40 18 -70 6 -30
19 -80 28 -110 10 -30 19 -66 22 -80 3 -14 9 -34 14 -45 9 -21 16 -59 26 -137
4 -27 10 -48 13 -48 4 0 13 -24 20 -52 8 -29 18 -59 23 -65 6 -7 8 -20 4 -28
-3 -8 -1 -15 5 -15 6 0 8 -30 5 -77 -2 -55 -2 -63 3 -28 4 28 9 43 13 35 10
-27 28 -110 28 -129 0 -11 6 -26 14 -34 8 -8 18 -44 21 -83 4 -38 15 -98 26
-133 10 -35 19 -73 19 -86 0 -12 11 -42 23 -66 21 -39 53 -206 42 -218 -10 -9
-105 22 -105 35 0 10 -15 14 -58 14 -54 0 -60 2 -71 26 -6 15 -10 28 -8 31 9
8 37 -10 42 -28 7 -21 25 -26 25 -6 0 25 -43 57 -78 57 -11 0 -38 14 -62 31
-38 27 -42 29 -38 11 4 -14 2 -19 -7 -15 -10 3 -12 -2 -8 -16 4 -16 1 -21 -15
-21 -11 0 -25 7 -32 15 -21 26 -50 19 -51 -12 0 -27 -1 -27 -9 -5 -6 13 -19
23 -32 24 -13 0 -34 3 -48 4 -14 2 -43 5 -65 8 -22 2 -60 9 -85 14 -26 6 -46
7 -48 2 -4 -10 -42 8 -54 25 -4 6 -20 11 -35 12 -15 1 -74 8 -129 15 -104 13
-327 9 -534 -10 -110 -11 -195 -32 -265 -67 -14 -7 -71 -7 -168 -1 -130 8
-149 7 -172 -8 -14 -10 -29 -25 -33 -35 -11 -28 -55 -75 -84 -90 -22 -11 -30
-12 -43 -1 -8 7 -19 9 -23 5 -4 -4 -1 -10 6 -12 21 -8 13 -23 -13 -23 -14 0
-34 -9 -45 -20 -21 -21 -60 -27 -60 -10 0 6 -7 10 -15 10 -8 0 -15 -4 -15 -10
0 -5 -18 -10 -39 -10 -22 0 -42 -5 -44 -12 -4 -10 -8 -10 -15 0 -7 10 -29 13
-79 10 -68 -3 -69 -3 -65 21 l5 24 -76 -8 c-58 -5 -80 -3 -92 7 -8 7 -21 19
-29 26 -8 6 -40 12 -71 12 -30 0 -55 5 -55 10 0 6 -16 10 -35 10 -37 0 -125
36 -125 51 0 14 -28 11 -34 -3 -5 -10 -7 -10 -12 0 -3 6 -12 12 -20 12 -8 0
-14 5 -14 10 0 6 -47 10 -120 10 -73 0 -120 -4 -120 -10 0 -5 -18 -10 -40 -10
-22 0 -40 5 -40 10 0 6 -18 10 -40 10 -22 0 -40 4 -40 9 0 16 -192 20 -217 5
-16 -10 -58 -14 -143 -14 l-120 0 0 30 c0 28 -2 30 -39 30 -22 0 -41 -5 -44
-12 -3 -10 -9 -10 -26 0 -11 6 -28 12 -36 12 -8 0 -15 9 -15 20 0 16 -7 20
-36 20 -19 0 -44 -5 -55 -11 -15 -8 -26 -7 -42 3 -14 9 -34 12 -52 8 -16 -4
-54 -5 -82 -2 -49 4 -53 3 -53 -17 0 -20 -4 -21 -123 -21 -111 0 -126 2 -142
20 -10 11 -26 20 -37 20 -10 0 -18 5 -18 10 0 18 -74 11 -108 -10 -44 -27 -52
-25 -52 10 0 17 -5 30 -11 30 -5 0 -8 -4 -5 -9 7 -10 -69 -31 -113 -31 -21 0
-31 5 -31 15 0 8 -3 15 -7 16 -5 0 -22 2 -40 5 -30 3 -33 1 -43 -36 -6 -22
-15 -40 -20 -40 -6 0 -10 -9 -10 -21 0 -22 -24 -52 -34 -42 -3 4 -6 1 -6 -5 0
-7 10 -12 23 -12 l22 -1 -24 -19 -23 -20 4 -243 c4 -209 9 -262 33 -392 15
-82 31 -159 36 -170 4 -11 10 -42 13 -70 27 -260 28 -276 17 -289 -9 -11 -18
-12 -41 -3 -17 6 -30 15 -30 19 0 4 -9 12 -20 18 -26 14 -70 -8 -127 -63 l-42
-40 27 -15 c30 -15 54 -18 154 -21 64 -1 98 -16 98 -42 0 -14 -79 -11 -125 5
-22 8 -80 18 -130 24 -49 6 -103 17 -120 26 -16 9 -53 16 -82 16 -37 0 -55 5
-61 16 -11 20 -233 27 -239 7 -3 -7 -14 -13 -26 -13 -12 0 -31 -7 -41 -15 -28
-21 -45 -19 -55 8 -11 28 1 42 27 28 14 -7 24 -7 36 2 15 11 13 16 -19 49 -20
20 -48 39 -63 43 -29 6 -66 36 -92 74 -8 11 -20 21 -27 21 -7 0 -13 5 -13 10
0 6 -5 10 -11 10 -6 0 -17 6 -24 14 -18 17 -86 31 -94 18 -8 -13 -88 -18 -126
-8 -16 5 -46 20 -65 35 -19 15 -64 45 -100 67 -36 21 -67 42 -68 47 -2 4 -8 7
-14 7 -6 0 -41 21 -79 46 -38 25 -73 42 -79 39 -31 -19 -64 -14 -112 17 -48
31 -49 33 -24 36 18 2 26 9 26 23 0 16 -7 19 -40 19 -22 0 -40 4 -40 10 0 5
-20 7 -48 3 -37 -4 -52 -1 -64 11 -9 9 -24 16 -33 16 -9 0 -34 10 -55 22 l-39
23 -23 -23 c-14 -12 -31 -22 -40 -22 -9 0 -18 -6 -21 -13 -3 -7 -24 -19 -46
-27 -23 -7 -44 -17 -46 -20 -8 -13 20 -59 37 -64 10 -2 18 -11 18 -20 0 -9 8
-16 20 -16 14 0 20 -7 20 -24 0 -17 7 -26 25 -30 14 -4 25 -11 25 -16 0 -6 7
-10 15 -10 8 0 15 -7 15 -15 0 -9 -9 -15 -24 -15 -13 0 -31 -3 -39 -6 -10 -4
-17 2 -21 18 -3 13 -3 -2 -1 -32 2 -30 11 -69 20 -87 14 -29 14 -34 -2 -67
-10 -19 -25 -36 -34 -36 -8 0 -19 -4 -25 -10 -6 -6 -33 -6 -74 0 -36 5 -94 10
-129 10 -59 0 -68 3 -122 43 -64 47 -96 106 -75 139 16 26 -2 38 -75 48 -51 7
-67 6 -79 -5 -10 -9 -37 -15 -67 -15 l-50 0 -26 58 c-53 117 -56 114 -57 -45
0 -136 1 -143 20 -143 18 0 20 -7 20 -80 0 -60 3 -80 13 -80 21 0 40 -185 23
-219 -7 -14 -11 -34 -9 -43 3 -13 -5 -19 -31 -24 -21 -3 -36 -12 -36 -20 0 -9
-12 -14 -34 -14 -36 0 -46 -12 -46 -56 0 -13 -4 -24 -10 -24 -5 0 -10 -18 -10
-40 0 -22 5 -40 10 -40 6 0 10 -16 10 -35 0 -35 35 -85 60 -85 5 0 10 -9 10
-20 0 -11 -7 -20 -15 -20 -8 0 -15 -4 -15 -9 0 -10 -55 -71 -64 -71 -18 0 -32
-26 -28 -52 3 -21 0 -28 -12 -28 -9 0 -16 -6 -16 -14 0 -7 -9 -16 -20 -19 -11
-3 -23 -13 -27 -24 -11 -32 -80 -93 -97 -87 -12 5 -16 0 -16 -19 0 -20 -7 -28
-36 -37 -19 -7 -36 -10 -37 -8 -1 1 -8 13 -15 26 -7 13 -8 22 -2 22 5 0 10 18
10 40 0 29 4 40 15 40 8 0 15 5 15 10 0 6 -7 10 -15 10 -8 0 -15 -4 -15 -8 0
-11 -35 -52 -44 -52 -4 0 -14 -6 -22 -14 -17 -17 -20 -171 -4 -181 6 -3 10
-15 10 -26 0 -10 4 -19 9 -19 5 0 13 -9 16 -20 3 -11 12 -20 19 -20 8 0 16
-17 20 -40 4 -26 11 -40 21 -40 12 0 15 -16 15 -80 l0 -80 -59 0 -59 0 1 -55
c1 -30 4 -55 7 -55 3 0 11 -9 18 -21 11 -18 10 -23 -7 -38 -17 -15 -21 -30
-21 -85 0 -59 -2 -66 -19 -66 -13 0 -28 -15 -42 -40 -13 -22 -26 -40 -31 -40
-4 0 -8 -18 -8 -40 0 -22 5 -40 10 -40 6 0 10 -21 10 -47 0 -26 5 -62 12 -80
10 -27 17 -33 40 -33 l28 0 0 -80 c0 -44 4 -80 9 -80 9 0 21 -35 26 -76 2 -12
8 -31 14 -42 16 -29 13 -142 -4 -172 -16 -29 -20 -110 -5 -110 6 0 10 -18 10
-40 0 -35 3 -40 23 -40 17 0 28 -10 40 -35 9 -20 24 -38 32 -41 10 -4 15 -20
15 -45 0 -26 4 -39 14 -39 7 0 19 -13 26 -29 6 -16 18 -32 26 -35 8 -3 14 -14
14 -24 0 -22 22 -72 32 -72 16 0 48 -41 48 -60 0 -13 7 -20 20 -20 11 0 20 -4
20 -9 0 -9 57 -71 66 -71 14 0 54 -46 54 -62 0 -15 9 -18 55 -18 30 0 55 -4
55 -9 0 -11 91 -38 158 -46 28 -4 52 -11 52 -16 0 -5 36 -9 80 -9 79 0 80 0
80 -25 0 -18 7 -28 26 -36 26 -9 26 -12 20 -67 -4 -31 -11 -61 -16 -66 -6 -6
-10 -18 -10 -28 0 -10 -4 -18 -10 -18 -15 0 -12 -19 5 -36 8 -9 15 -25 15 -37
0 -13 6 -31 14 -42 8 -13 15 -67 19 -152 5 -113 4 -133 -8 -133 -12 0 -15 -16
-15 -80 0 -64 3 -80 15 -80 12 0 15 -15 15 -73 0 -40 6 -98 14 -128 24 -89 19
-424 -6 -440 -6 -4 -7 -36 -3 -83 6 -65 10 -76 26 -76 16 0 19 -8 19 -52 0
-35 7 -64 20 -86 18 -29 20 -50 20 -187 0 -148 1 -155 20 -155 19 0 20 -7 20
-178 0 -98 3 -314 7 -480 5 -242 9 -302 20 -302 7 0 13 -4 13 -10 0 -6 -47
-10 -120 -10 -73 0 -120 4 -120 10 0 6 -26 10 -57 10 -44 0 -62 -5 -80 -22
-13 -12 -23 -16 -23 -10 0 9 -38 12 -134 12 -79 0 -137 4 -141 10 -3 6 -15 10
-26 10 -15 0 -19 7 -19 39 l0 39 -62 -1 c-39 0 -63 4 -66 11 -2 7 -10 12 -18
12 -8 0 -14 7 -14 16 0 14 -10 15 -80 9 -52 -5 -80 -4 -80 3 0 10 -49 16 -214
28 -59 4 -81 2 -88 -8 -7 -10 -11 -10 -15 0 -20 49 -123 -45 -123 -112 0 -20
-4 -36 -10 -36 -5 0 -10 -18 -10 -40 0 -30 4 -40 16 -40 16 0 16 -4 -8 -52
-12 -26 -18 -28 -73 -28 -56 0 -61 -2 -78 -31 -9 -17 -17 -49 -17 -72 0 -77
49 -217 75 -217 6 0 16 -9 22 -19 7 -11 29 -29 50 -41 47 -27 76 -64 75 -99 0
-30 43 -81 70 -81 25 0 64 -36 79 -74 15 -37 58 -86 76 -86 7 0 13 -5 13 -11
0 -13 58 -69 71 -69 5 0 9 -6 9 -13 0 -19 53 -67 74 -67 19 0 27 -8 121 -119
28 -33 55 -60 61 -60 7 -1 19 -12 28 -26 9 -13 38 -45 66 -71 43 -40 50 -52
50 -85 0 -32 -3 -39 -20 -39 -17 0 -20 -7 -20 -40 0 -22 -4 -40 -10 -40 -6 0
-10 -33 -10 -80 0 -47 -4 -80 -10 -80 -5 0 -10 -18 -10 -40 l0 -40 -40 0 -40
0 0 -40 0 -40 120 0 c105 0 120 2 120 17 0 15 1 15 18 0 10 -10 28 -17 40 -17
15 0 22 -6 22 -20 0 -18 7 -20 80 -20 47 0 80 -4 80 -10 0 -5 20 -10 44 -10
25 0 48 -5 51 -11 4 -6 19 -10 33 -9 77 5 111 0 117 -19 9 -28 40 -61 59 -61
12 0 16 -10 16 -40 l0 -40 50 0 c28 0 50 -3 50 -7 0 -16 56 -33 107 -33 29 0
53 -4 53 -10 0 -5 7 -10 15 -10 8 0 15 -4 15 -10 0 -5 7 -10 15 -10 11 0 15
-11 15 -40 0 -29 -4 -40 -15 -40 -13 0 -15 -24 -15 -160 0 -136 2 -160 15
-160 13 0 15 -113 15 -960 l0 -960 55 0 55 0 0 -80 c0 -47 -4 -80 -10 -80 -6
0 -10 -46 -10 -118 0 -66 -3 -174 -7 -240 l-6 -122 -39 0 -38 0 0 -80 c0 -67
-3 -80 -16 -80 -15 0 -16 -16 -9 -157 4 -87 11 -159 16 -161 15 -6 11 -270 -3
-275 -7 -2 -2 -3 12 -1 14 2 41 -5 60 -14 34 -17 35 -19 33 -67 -4 -92 -14
-150 -36 -195 -18 -36 -22 -61 -21 -130 5 -265 9 -245 -52 -244 -28 1 -63 8
-77 15 -14 8 -61 32 -104 53 -43 21 -80 43 -81 47 -2 5 -14 9 -27 9 -13 0 -37
5 -52 11 -161 64 -196 75 -201 61 -2 -6 -20 -16 -40 -23 -20 -6 -47 -21 -60
-32 -21 -20 -22 -28 -21 -134 2 -102 1 -115 -17 -127 -10 -8 -21 -10 -22 -5
-2 5 -15 0 -29 -11 -14 -11 -35 -20 -47 -20 -29 0 -46 -18 -46 -48 0 -13 -4
-32 -10 -42 -12 -23 16 -110 36 -110 8 0 14 -6 14 -13 0 -7 8 -20 19 -28 11
-10 21 -37 25 -68 4 -29 12 -51 19 -51 7 -1 28 -22 47 -47 19 -26 47 -58 61
-72 19 -19 30 -45 38 -91 12 -67 26 -120 41 -155 4 -11 16 -48 26 -83 9 -34
23 -67 31 -73 7 -6 13 -15 13 -19 0 -16 105 -129 154 -167 22 -16 29 -31 29
-55 0 -17 -5 -34 -11 -36 -7 -2 -12 -12 -12 -22 0 -10 -5 -22 -10 -25 -14 -8
-13 -101 1 -127 16 -30 62 -68 76 -63 7 2 12 1 10 -3 -1 -4 17 -25 40 -46 24
-21 43 -44 43 -51 0 -7 6 -15 13 -18 9 -3 9 -7 -2 -20 -26 -32 7 -175 48 -208
12 -10 21 -27 21 -38 0 -12 4 -21 8 -21 5 0 17 -18 27 -40 10 -22 22 -40 27
-40 5 0 11 -7 15 -16 10 -27 154 -169 168 -166 7 1 28 -15 46 -36 29 -33 46
-42 107 -57 41 -9 76 -24 79 -31 7 -19 87 -18 121 0 15 8 48 18 75 21 26 3 47
10 47 16 0 5 18 9 40 9 22 0 40 5 40 10 0 6 8 10 18 10 11 0 27 9 37 20 13 14
31 20 63 20 41 0 44 2 40 23 -4 20 -1 23 19 19 14 -3 32 3 43 13 20 18 20 17
20 -38 l0 -57 40 0 40 0 0 -80 0 -80 40 0 40 0 0 -80 0 -80 40 0 40 0 0 -40 0
-40 40 0 40 0 0 -120 0 -120 40 0 40 0 0 -40 0 -40 -40 0 -40 0 0 -120 0 -120
40 0 40 0 0 -40 0 -40 -40 0 -40 0 0 -40 0 -40 80 0 80 0 0 -40 0 -40 -120 0
-120 0 0 40 0 40 -40 0 c-43 0 -46 7 -42 79 0 13 -5 30 -13 38 -8 8 -15 25
-15 38 0 14 -11 32 -27 45 -20 16 -27 29 -25 51 2 28 0 29 -38 29 -35 0 -40 3
-40 22 0 20 -5 18 -43 -20 -29 -28 -51 -42 -70 -42 l-27 0 0 -80 c0 -47 -4
-80 -10 -80 -5 0 -10 18 -10 40 l0 40 -40 0 -40 0 0 -46 0 -46 -77 7 c-43 4
-79 11 -81 16 -2 5 -21 9 -43 9 -26 0 -39 4 -39 13 0 8 -8 22 -19 31 -12 11
-20 35 -23 71 -3 31 -12 63 -21 73 -11 12 -17 36 -17 65 0 26 -4 47 -10 47 -5
0 -10 18 -10 40 0 28 -4 40 -14 40 -8 0 -16 7 -20 15 -5 15 -32 20 -58 10 -18
-7 -12 -117 8 -157 11 -21 11 -27 1 -31 -9 -3 -7 -14 7 -41 11 -20 23 -36 28
-36 4 0 8 -18 8 -40 0 -22 5 -40 10 -40 6 0 10 -17 10 -37 0 -22 9 -49 20 -63
11 -14 20 -35 20 -47 0 -12 9 -27 19 -32 38 -21 50 -96 29 -176 -10 -38 -16
-45 -37 -45 -13 0 -33 -8 -44 -17 -17 -16 -46 -18 -233 -21 -145 -2 -214 0
-214 7 0 6 -19 11 -42 10 l-43 0 43 -17 c23 -9 42 -22 42 -29 0 -7 7 -13 15
-13 11 0 15 -11 15 -39 0 -22 7 -45 15 -53 33 -30 45 -38 54 -38 9 0 36 -11
111 -44 14 -6 31 -17 38 -23 7 -7 27 -13 43 -13 19 0 29 -5 29 -15 0 -11 11
-15 40 -15 22 0 40 -4 40 -9 0 -5 16 -12 36 -16 59 -11 83 -26 94 -60 6 -18
21 -37 33 -42 16 -7 27 -26 36 -62 8 -31 18 -51 27 -51 8 0 14 -10 14 -24 0
-13 7 -27 16 -30 10 -4 14 -15 12 -33 -3 -24 1 -28 25 -31 15 -2 27 1 27 7 0
6 9 11 19 11 11 0 23 5 26 10 3 6 32 10 64 10 32 0 72 5 89 11 27 9 34 8 54
-11 13 -12 33 -29 46 -37 12 -9 22 -22 22 -29 0 -8 4 -14 10 -14 5 0 36 -33
70 -72 82 -99 80 -95 80 -110 0 -7 29 -37 65 -67 35 -29 67 -61 70 -70 3 -9
17 -24 32 -34 16 -9 44 -30 63 -47 19 -17 47 -39 62 -48 15 -9 28 -20 28 -24
0 -4 7 -8 15 -8 8 0 37 -13 65 -30 28 -16 57 -30 65 -30 8 0 15 -9 15 -20 0
-11 6 -20 13 -20 6 0 26 -14 44 -30 18 -17 36 -30 41 -30 11 0 34 -47 37 -77
2 -12 12 -35 22 -50 10 -15 28 -45 38 -66 13 -25 38 -50 72 -70 29 -18 53 -38
53 -44 0 -8 13 -13 32 -13 17 0 54 -6 82 -14 28 -8 73 -19 101 -26 27 -6 57
-18 66 -26 8 -8 21 -14 28 -14 8 0 30 -13 50 -30 45 -36 98 -81 116 -98 7 -6
18 -12 24 -12 6 0 11 -4 11 -10 0 -5 11 -10 25 -10 16 0 25 -6 25 -15 0 -8 6
-15 13 -15 20 1 146 -64 146 -75 1 -6 13 -16 28 -23 64 -29 149 -75 168 -91
11 -10 47 -31 80 -48 33 -16 69 -34 80 -40 11 -6 43 -22 70 -34 28 -13 52 -26
55 -29 12 -12 51 -30 65 -30 8 0 15 -6 15 -12 1 -15 63 -48 90 -48 11 0 20 -4
20 -10 0 -5 11 -10 25 -10 15 0 25 -6 25 -15 0 -8 14 -17 35 -21 20 -3 49 -19
65 -35 15 -16 37 -29 47 -29 10 0 27 -14 38 -30 11 -16 24 -30 28 -30 5 0 23
-11 40 -24 18 -13 57 -36 87 -52 30 -16 57 -32 58 -36 2 -5 10 -8 18 -8 8 0
23 -9 33 -19 24 -24 74 -51 95 -51 8 0 16 -3 18 -7 12 -28 65 -57 124 -69 38
-8 75 -21 84 -28 16 -15 131 -70 168 -81 12 -3 22 -11 22 -16 0 -5 7 -9 15 -9
15 0 55 -19 65 -31 8 -9 95 -49 107 -49 6 0 13 -7 16 -14 6 -15 104 -66 126
-66 7 0 18 -6 25 -13 14 -14 46 -24 176 -57 47 -11 112 -28 145 -36 33 -8 77
-19 99 -23 21 -5 41 -13 45 -19 16 -25 163 -92 204 -92 9 0 17 -4 17 -9 0 -5
8 -12 19 -16 10 -3 30 -16 43 -28 23 -21 115 -59 191 -78 21 -5 59 -19 85 -30
88 -40 107 -47 141 -54 19 -4 49 -15 66 -25 17 -10 46 -21 63 -25 18 -3 32
-11 32 -16 0 -5 12 -9 28 -9 15 0 40 -7 56 -15 15 -8 39 -15 53 -15 13 0 78
-18 144 -40 94 -31 135 -40 190 -40 38 0 69 -3 69 -8 0 -4 18 -26 40 -49 27
-28 52 -43 78 -47 50 -9 136 -37 142 -47 9 -14 187 -29 222 -18 54 15 118 12
118 -7 0 -9 14 -21 30 -27 17 -6 30 -17 30 -24 0 -10 36 -12 153 -10 145 2
153 1 174 -20 12 -12 39 -25 60 -29 21 -3 48 -12 60 -20 15 -9 52 -14 109 -14
76 0 85 -2 74 -15 -7 -9 -9 -19 -5 -23 4 -4 10 -1 12 6 5 13 83 17 83 4 0 -11
262 -41 428 -49 72 -3 132 -10 132 -14 0 -5 18 -9 41 -9 29 0 40 -4 36 -12 -3
-10 17 -14 77 -16 44 -2 95 -10 111 -17 31 -13 380 -35 563 -35 51 0 135 -4
185 -10 269 -28 359 -33 439 -23 85 10 310 -4 335 -20 7 -4 19 -4 27 0 8 4 55
6 104 3 49 -3 109 -2 133 1 24 3 59 2 78 -3 18 -5 63 -7 100 -4 70 6 352 15
591 19 119 2 151 5 179 20 27 15 35 16 42 6 6 -11 12 -11 33 0 20 11 59 13
173 8 81 -3 157 -2 168 3 14 6 -4 9 -60 11 -78 2 -78 2 -25 8 30 3 60 10 67
14 6 4 14 3 18 -3 8 -13 75 -13 75 0 0 6 6 10 14 10 8 0 16 5 18 10 2 6 29 11
61 11 46 1 59 5 68 20 7 14 21 19 53 19 59 0 227 45 242 64 6 9 16 16 21 16 6
0 10 8 9 17 -2 26 39 29 61 4 18 -22 43 -28 43 -11 0 6 18 10 40 10 22 0 40 4
40 8 0 5 18 15 40 22 22 7 40 17 40 22 0 4 18 8 40 8 22 0 40 5 40 10 0 6 15
10 34 10 19 0 47 5 63 11 15 6 43 12 62 15 19 2 42 11 51 19 9 8 26 15 38 15
12 0 32 6 43 13 17 9 23 9 26 0 6 -18 51 -16 69 2 9 8 33 15 55 15 22 0 39 5
39 11 0 8 17 10 50 7 33 -3 56 0 69 9 12 7 57 15 108 18 48 3 90 10 91 15 2 6
21 10 43 10 21 0 39 4 39 9 0 5 35 12 78 16 42 4 87 13 98 20 12 8 55 16 95
18 41 3 86 10 100 15 15 6 63 16 108 22 44 7 81 16 81 21 0 5 14 9 31 9 17 0
59 7 92 16 34 9 96 22 139 29 42 8 90 21 107 29 16 9 51 16 77 16 25 0 67 7
93 15 25 8 80 19 121 25 115 16 140 22 140 30 0 4 21 10 48 13 89 10 177 27
237 46 71 23 185 44 192 37 3 -3 15 -1 26 5 20 11 156 38 215 43 18 1 38 8 44
14 7 7 20 12 30 12 9 0 32 6 50 14 18 8 70 22 116 32 45 9 82 21 82 25 0 4 19
9 43 12 94 11 277 56 277 68 0 5 36 9 80 9 63 0 80 3 80 14 0 10 16 17 48 21
82 11 100 16 113 31 6 8 24 14 40 14 16 0 37 4 47 10 32 18 143 51 153 44 5
-3 21 1 34 10 13 9 35 16 48 16 12 0 27 4 33 9 5 5 41 16 79 26 45 11 80 26
98 43 22 21 27 22 27 9 0 -21 8 -21 31 -1 9 8 48 22 86 30 71 15 158 43 135
44 -27 0 -1 18 44 29 26 7 56 19 68 27 11 7 27 14 36 14 8 0 38 12 65 25 28
14 56 25 62 25 7 0 27 9 45 20 18 11 43 20 54 20 12 0 27 6 33 13 6 8 28 19
50 25 21 7 44 19 51 27 7 8 23 15 35 15 12 0 28 7 35 15 7 8 20 15 29 15 9 0
26 6 38 13 12 6 57 30 100 52 43 22 93 50 111 62 18 12 46 24 62 28 17 4 30
11 30 16 0 5 9 9 19 9 11 0 54 18 96 40 42 22 88 40 101 40 15 0 24 6 24 15 0
8 8 15 18 15 10 0 22 4 28 9 5 4 32 14 59 22 28 7 59 21 69 31 11 10 27 18 35
18 17 0 144 62 149 73 2 4 12 7 23 7 11 0 48 18 84 39 54 33 75 40 132 44 72
4 230 57 226 75 -1 5 12 15 30 22 87 32 107 44 107 61 0 11 13 22 38 30 20 7
43 20 50 31 7 10 19 18 27 18 27 0 119 53 147 86 17 19 35 34 42 34 6 0 22 9
36 20 14 11 33 20 43 20 9 0 17 5 17 10 0 6 18 17 40 26 37 15 40 19 40 56 0
30 6 44 28 63 15 13 31 25 35 25 4 0 22 13 40 30 18 16 37 30 44 30 7 0 23 11
37 25 14 14 32 25 41 25 8 0 15 5 15 10 0 17 52 70 69 70 9 0 40 25 70 55 30
30 60 55 68 55 7 0 13 10 13 23 0 21 13 50 21 47 12 -4 39 14 39 26 0 8 10 18
23 23 25 10 51 37 60 64 4 9 18 22 32 27 14 5 30 21 35 35 5 13 18 30 30 37
11 7 20 18 20 25 0 7 4 13 9 13 5 0 20 17 32 38 13 20 27 39 31 40 4 2 8 10 8
19 0 8 9 26 20 40 11 14 20 32 20 39 0 7 10 20 21 28 13 9 19 21 16 30 -9 22
12 75 34 87 10 5 19 17 19 27 1 9 12 35 26 57 13 22 27 48 30 58 4 9 10 17 14
17 4 0 11 16 14 35 4 19 12 38 19 42 7 5 26 30 43 56 16 27 41 62 57 78 15 16
27 35 27 42 0 18 24 67 33 67 4 0 7 8 7 18 0 10 10 26 21 36 16 13 18 20 9 26
-9 6 -8 14 4 38 10 20 18 73 22 156 4 69 11 126 16 126 4 0 8 72 8 160 0 100
4 160 10 160 6 0 10 18 10 39 0 22 5 41 12 43 9 3 9 25 1 92 -11 92 -2 146 24
146 7 0 13 6 13 13 0 6 18 39 41 72 22 33 47 72 57 87 12 20 22 26 36 22 13
-5 29 5 56 35 21 23 42 41 47 41 5 0 15 28 22 63 l12 62 62 29 c84 41 145 104
132 138 -3 8 1 21 10 28 8 7 15 18 15 26 0 7 7 17 16 22 12 7 14 17 9 45 -4
20 -12 37 -17 37 -5 0 -7 8 -4 18 5 14 -3 19 -39 28 -37 9 -45 8 -45 -4 0 -25
-110 -11 -128 16 -8 12 -24 22 -36 22 -19 1 -19 2 -3 11 9 5 22 7 27 4 6 -4
22 3 36 14 17 13 41 21 65 21 32 0 39 -3 39 -20 0 -11 -5 -20 -12 -20 -6 0 -9
-3 -6 -6 9 -8 48 19 48 32 0 7 -31 41 -70 77 -38 36 -70 71 -70 79 0 7 25 38
55 68 30 30 55 63 55 73 0 9 5 17 10 17 6 0 10 7 10 16 0 13 -7 15 -32 10 -18
-4 -41 -7 -50 -7 -10 0 -18 -7 -18 -15 0 -10 -12 -14 -40 -14 -22 0 -40 -4
-40 -10 0 -5 10 -10 21 -10 17 0 19 -3 10 -14 -15 -18 -104 -10 -157 15 -22
10 -45 19 -51 19 -6 0 -13 6 -16 13 -5 16 -47 -20 -47 -41 0 -8 -11 -23 -25
-34 -32 -25 -32 -36 3 -41 19 -3 14 -4 -15 -6 -37 -1 -43 2 -43 19 0 12 -10
24 -24 30 -13 5 -28 15 -33 23 -18 30 -57 47 -93 40 -36 -6 -67 -29 -56 -41 4
-3 34 -5 66 -4 54 2 60 1 60 -18 0 -17 -6 -20 -40 -20 -22 0 -40 -4 -40 -10 0
-5 6 -10 14 -10 26 0 66 -48 65 -77 -1 -20 -3 -22 -6 -8 -4 20 -71 55 -105 55
-9 0 -22 8 -27 18 -9 15 -12 15 -20 2 -8 -12 -13 -12 -23 -2 -9 9 -9 12 5 12
9 0 17 7 17 16 0 14 -8 16 -56 11 -49 -5 -57 -3 -61 13 -5 18 -46 32 -70 23
-20 -8 -15 -33 7 -33 11 0 20 -7 20 -15 0 -8 7 -15 15 -15 8 0 15 -9 15 -19 0
-11 12 -29 26 -40 l27 -21 -62 0 c-39 0 -60 4 -56 10 3 5 13 10 21 10 8 0 14
10 14 24 0 23 -2 24 -32 16 -31 -9 -73 -4 -93 10 -16 12 -115 -1 -115 -15 0
-6 25 -17 55 -24 61 -14 74 -26 53 -48 -13 -12 -21 -11 -63 11 -48 26 -125 36
-125 16 0 -5 5 -10 12 -10 6 0 8 -3 5 -7 -4 -4 -21 3 -37 15 -34 26 -60 28
-60 7 0 -8 -7 -15 -15 -15 -8 0 -15 -6 -15 -14 0 -10 -17 -14 -65 -15 -51 -1
-65 2 -65 14 0 8 5 15 11 15 8 0 8 5 -1 15 -7 8 -19 15 -26 15 -8 0 -16 11
-20 24 -3 13 -14 26 -25 29 -10 3 -19 12 -19 21 0 20 -16 21 -24 1 -5 -15 30
-95 43 -95 3 0 5 -20 3 -45 l-4 -45 -49 0 c-27 0 -49 -4 -49 -10 0 -5 -18 -10
-40 -10 -37 0 -40 2 -40 28 0 16 -8 32 -20 40 -11 7 -20 17 -20 22 0 6 9 10
20 10 18 0 20 6 19 53 0 28 -3 46 -6 40 -2 -7 -13 -13 -24 -13 -15 0 -19 7
-19 38 0 42 7 56 33 65 14 5 17 1 17 -28 0 -41 12 -45 28 -9 14 29 1 64 -24
64 -8 0 -20 11 -26 25 -6 14 -23 28 -37 31 -14 3 -46 12 -71 20 -25 7 -90 15
-145 18 -55 3 -107 5 -115 6 -8 1 8 8 35 16 58 16 214 19 229 4 5 -5 18 -10
27 -10 10 0 20 -6 23 -12 5 -10 7 -10 12 0 7 15 36 16 52 0 9 -9 12 -9 12 0 0
15 76 16 85 2 3 -5 46 -10 96 -10 53 0 89 4 89 10 0 6 23 10 50 10 28 0 50 5
50 10 0 6 7 10 15 10 8 0 15 -4 15 -10 0 -25 19 -5 39 39 11 28 26 53 31 56 6
3 10 17 10 31 0 18 5 24 22 24 12 0 30 7 40 17 17 15 18 15 18 0 0 -10 5 -17
10 -17 6 0 10 18 10 40 0 33 3 40 19 40 11 0 22 6 25 13 5 9 7 9 12 0 3 -7 12
-13 20 -13 10 0 14 12 14 40 0 33 3 40 19 40 16 0 21 8 24 43 l4 42 1 -42 c1
-31 6 -43 17 -43 11 0 15 11 15 40 0 29 4 40 15 40 12 0 15 16 15 80 0 47 4
80 10 80 6 0 10 -11 10 -25 0 -32 13 -32 38 0 11 14 25 25 31 25 6 0 11 4 11
9 0 12 59 71 71 71 5 0 9 28 9 61 l0 62 61 -7 c34 -3 70 -6 80 -6 16 0 19 -8
19 -55 0 -42 -3 -55 -15 -55 -11 0 -15 -11 -15 -40 0 -22 -4 -40 -10 -40 -5 0
-10 -18 -10 -39 0 -22 -5 -41 -10 -43 -15 -5 -26 -228 -12 -237 17 -10 -9 -81
-30 -81 -14 0 -18 -9 -18 -40 0 -25 5 -40 12 -40 7 0 2 -7 -10 -16 -31 -21
-28 -28 19 -49 35 -16 42 -17 50 -4 17 26 22 61 10 68 -7 5 -3 15 14 31 25 24
33 50 15 50 -17 0 -11 16 15 44 18 20 25 38 25 68 0 28 12 65 39 117 21 42 42
97 45 124 4 26 11 47 15 47 5 0 12 17 16 38 4 20 13 51 21 67 23 52 43 142 49
233 4 48 9 107 11 132 3 25 9 88 14 140 14 144 13 670 -1 670 -8 0 -10 18 -5
62 3 34 1 101 -5 149 -9 72 -9 95 2 121 11 25 13 76 11 211 -2 120 0 177 7
177 7 0 11 41 11 118 1 75 6 131 15 157 9 24 11 41 5 43 -15 5 -13 479 2 484
8 3 13 62 16 199 3 110 9 197 14 200 6 4 0 23 -13 47 -24 41 -24 41 -5 77 11
20 27 35 37 35 10 0 30 11 44 25 24 25 25 30 25 160 0 113 -2 135 -15 135 -11
0 -15 11 -15 39 0 22 -3 41 -7 43 -5 2 -16 20 -25 41 -10 20 -23 37 -30 37
-26 0 -42 62 -39 150 2 47 6 87 11 90 4 3 11 40 15 83 4 42 11 77 16 77 5 0 9
18 9 40 0 29 4 40 15 40 20 0 20 58 -1 110 -13 32 -15 58 -9 125 4 47 11 85
16 85 5 0 9 36 9 80 0 72 2 80 19 80 22 0 31 19 31 64 0 31 3 33 51 44 28 7
64 12 80 12 22 0 29 5 29 20 0 19 7 20 108 20 96 0 109 2 122 20 8 11 25 20
37 20 13 0 23 5 23 10 0 6 7 10 15 10 8 0 15 3 15 8 0 10 66 38 115 48 36 8
40 13 46 46 3 20 11 44 18 52 7 8 10 19 7 24 -3 6 0 15 8 21 8 7 17 23 20 36
4 16 13 25 26 25 17 0 20 7 20 40 0 24 12 66 30 103 16 35 30 73 30 84 0 10
15 34 34 52 19 18 32 39 29 47 -8 22 20 74 41 74 35 0 56 38 56 102 0 35 -4
58 -11 58 -7 0 -9 17 -4 53 4 28 9 118 11 200 5 143 6 147 27 147 16 0 28 12
42 42 11 23 37 59 57 81 31 31 38 46 38 78 0 24 -5 39 -12 39 -9 0 -9 3 0 12
7 7 12 25 12 40 0 23 4 28 24 28 21 0 76 51 76 72 0 4 5 8 11 8 24 0 38 28 32
64 -4 24 -2 36 6 36 7 0 11 35 11 110 0 91 -3 110 -15 110 -11 0 -15 11 -15
38 0 56 -10 82 -31 82 -10 0 -24 9 -31 20 -14 21 -48 28 -48 9 0 -8 -17 -10
-54 -5 -67 8 -86 14 -86 31 0 9 -13 14 -41 13 -59 -1 -71 17 -24 36 21 9 43
16 50 16 8 0 15 23 19 61 10 96 9 99 -19 99 -21 0 -25 5 -25 28 0 20 -7 30
-27 40 -31 14 -49 15 -56 5 -2 -5 -3 -3 -1 3 1 6 -9 17 -22 23 -31 14 -121 15
-129 1 -3 -5 -23 -10 -43 -10 -58 0 -82 -10 -82 -32 0 -17 5 -20 29 -15 18 4
42 0 60 -9 36 -18 36 -18 14 -44 -20 -23 -51 -26 -59 -6 -4 11 -22 15 -62 15
-38 -1 -71 6 -97 19 -31 16 -44 18 -60 9 -27 -15 -55 -17 -85 -7 -14 5 -37 11
-51 14 -14 3 -31 16 -37 28 -10 22 -11 21 -11 -9 -1 -31 -3 -33 -35 -33 -18 0
-46 6 -61 14 -25 13 -65 50 -65 60 0 10 67 20 113 17 39 -2 47 0 47 14 0 14
-8 16 -47 14 -27 -2 -59 1 -73 5 -14 5 -34 10 -45 11 -11 1 -23 3 -27 4 -14 2
-8 27 12 49 11 12 20 32 20 45 0 19 -8 27 -40 37 -39 13 -40 14 -40 60 0 132
14 290 25 290 22 0 28 266 26 1104 -2 614 1 811 10 816 14 9 17 218 5 328 -7
55 -6 72 4 72 9 0 12 28 9 118 -2 64 -2 300 -1 524 l2 406 43 -5 c23 -4 43
-10 45 -14 9 -22 118 -119 134 -119 10 0 18 -7 18 -16 0 -13 7 -15 35 -11 35
6 42 10 96 58 22 20 29 35 29 63 0 23 5 36 13 36 7 0 26 22 42 50 17 27 35 50
40 50 6 0 17 10 25 21 23 33 52 59 61 54 7 -5 71 42 77 58 2 4 12 7 23 7 31 0
86 26 114 54 18 18 37 26 63 27 20 0 32 3 25 5 -20 9 -2 34 23 34 17 0 24 6
24 20 0 12 7 20 16 20 36 0 85 93 85 162 0 147 1 177 10 218 10 44 57 99 86
100 7 0 10 7 7 15 -7 18 36 71 82 103 19 12 34 29 34 37 0 14 12 19 32 16 4 0
14 12 23 28 15 30 12 54 -11 81 -7 8 -14 26 -16 40 -3 26 -70 70 -76 50 -5
-15 -80 -12 -85 3 -6 16 -46 -19 -59 -53 -6 -15 -12 -20 -15 -12 -3 6 -16 12
-29 12 -21 0 -24 4 -24 40 0 22 5 40 10 40 6 0 10 6 10 13 0 21 38 47 70 47
30 0 49 15 28 23 -10 3 -10 7 0 20 23 27 6 57 -33 57 l-33 0 -6 68 c-3 37 -6
79 -6 94 -1 15 -5 30 -10 33 -6 4 -10 21 -10 40 0 42 -19 85 -37 85 -7 0 -13
7 -13 16 0 8 -4 13 -9 10 -4 -3 -19 6 -32 20 -19 20 -21 27 -10 34 12 7 11 11
-2 25 -16 15 -18 15 -34 -1 -13 -13 -14 -19 -5 -22 6 -2 12 -10 12 -18 0 -11
-17 -14 -78 -14 -59 0 -86 -5 -116 -21 -31 -16 -41 -18 -47 -8 -6 10 -9 10
-15 -4 -3 -10 -17 -17 -31 -17 -25 0 -25 2 -19 47 3 26 14 56 25 67 10 12 23
36 30 55 6 18 22 44 36 57 18 16 25 33 25 59 0 19 -4 35 -9 35 -5 0 -12 18
-16 40 -6 34 -10 40 -32 40 -24 0 -25 -2 -20 -40 4 -28 1 -40 -8 -40 -8 0 -14
-22 -18 -60 -4 -34 -11 -70 -17 -80 -7 -14 -7 -20 0 -20 5 0 10 -9 10 -20 0
-11 -4 -20 -10 -20 -5 0 -10 -9 -10 -20 0 -18 -7 -20 -55 -20 -42 0 -55 3 -55
15 0 8 7 15 15 15 12 0 15 14 15 65 l0 65 -40 0 c-37 0 -40 2 -40 28 0 15 -5
33 -12 40 -9 9 0 12 40 12 38 0 52 4 52 14 0 10 -21 16 -79 21 l-79 7 -20 51
c-12 29 -23 73 -27 100 -4 33 -11 47 -22 47 -14 0 -15 18 -11 156 3 86 10 159
15 163 6 3 13 59 17 124 6 113 5 117 -14 117 -12 0 -20 7 -20 18 0 29 -34 43
-59 26 -11 -8 -21 -21 -21 -28 0 -8 -20 -32 -45 -55 l-45 -41 -84 0 c-60 0
-87 4 -95 14 -7 8 -26 17 -42 20 -16 3 -42 9 -59 12 -26 5 -30 3 -30 -18 0
-18 -9 -26 -37 -36 -102 -35 -203 -39 -203 -7 0 8 -7 15 -15 15 -8 0 -25 6
-36 13 -17 10 -23 10 -26 0 -6 -16 -143 -18 -143 -3 0 6 -9 10 -20 10 -12 0
-35 7 -52 16 -32 17 -42 14 -135 -28 -12 -6 -34 -8 -50 -4 -18 4 -23 3 -14 -3
11 -7 8 -10 -10 -16 -46 -13 -90 -37 -96 -51 -3 -8 -16 -14 -29 -14 -13 0 -24
-6 -24 -12 0 -7 -16 -26 -35 -43 -19 -16 -35 -35 -35 -42 0 -8 -15 -13 -40
-13 -22 0 -40 -5 -40 -11 0 -5 -4 -8 -9 -5 -5 3 -12 43 -16 88 -8 95 -41 187
-55 153 -8 -17 -9 -17 -9 8 -1 16 5 30 14 33 8 4 15 12 15 20 0 10 -7 13 -25
8 -18 -4 -25 -2 -25 8 0 7 -15 22 -34 32 -19 10 -37 24 -39 31 -4 9 -22 10
-74 2 -37 -5 -120 -6 -183 -2 -175 10 -199 10 -280 0 -81 -9 -153 -9 -265 0
-63 6 -73 4 -89 -14 -16 -17 -31 -21 -82 -21 -86 0 -204 -45 -204 -78 0 -13
-32 -38 -57 -45 -14 -3 -32 2 -47 14 -32 25 -48 24 -76 -6 -13 -14 -30 -25
-37 -25 -18 0 -43 24 -43 42 0 7 -10 18 -22 23 -12 6 -24 17 -28 25 -24 53
-47 88 -67 105 -13 11 -23 29 -23 40 0 27 -42 85 -62 85 -12 0 -18 8 -18 23 0
12 -9 33 -20 47 -11 14 -20 28 -20 32 0 3 -27 35 -59 70 -42 44 -63 76 -71
106 -7 29 -16 42 -28 42 -17 0 -72 54 -72 71 0 5 -5 9 -11 9 -17 0 -35 23 -43
53 -3 15 -13 27 -21 27 -7 0 -17 9 -20 20 -3 11 -10 20 -15 20 -5 0 -12 9 -15
20 -3 11 -11 20 -17 20 -16 0 -37 32 -38 58 0 13 -6 22 -15 22 -10 0 -15 10
-15 28 0 38 -36 51 -144 51 -86 -1 -89 -2 -117 -32 -16 -17 -29 -35 -29 -39 0
-5 -7 -8 -15 -8 -8 0 -15 -6 -15 -12 0 -16 -62 -142 -72 -146 -5 -2 -8 -10 -8
-18 0 -18 -36 -91 -61 -123 -11 -14 -19 -40 -19 -62 0 -22 -5 -39 -11 -39 -13
0 -48 -41 -49 -57 0 -7 -9 -28 -20 -48 -11 -20 -20 -43 -20 -51 0 -16 -38 -76
-52 -82 -4 -2 -8 -19 -8 -37 0 -19 -6 -38 -13 -42 -7 -4 -21 -26 -31 -48 -10
-22 -23 -48 -27 -57 -5 -10 -9 -25 -9 -34 0 -8 -7 -22 -15 -30 -8 -9 -18 -27
-22 -42 -3 -14 -15 -35 -25 -46 -10 -11 -18 -28 -18 -37 0 -17 -45 -138 -71
-191 -19 -37 -57 -48 -162 -45 l-88 2 7 50 c3 28 12 68 20 90 14 42 42 172 69
320 9 50 21 110 26 134 6 24 14 100 20 170 5 69 14 167 20 216 15 134 22 505
9 505 -5 0 -10 18 -10 40 0 22 -5 40 -10 40 -14 0 -70 55 -70 69 0 6 -7 11
-15 11 -16 0 -65 46 -65 61 0 5 -8 13 -17 16 -27 11 -54 36 -64 61 -5 13 -17
22 -29 22 -12 0 -28 6 -36 14 -7 8 -18 16 -24 18 -6 2 -12 13 -13 26 -1 24
-25 30 -45 10 -9 -9 -12 -9 -12 0 0 16 -48 62 -65 62 -8 0 -15 7 -15 16 0 9
-8 14 -17 13 -40 -3 -63 2 -63 14 0 15 -54 67 -70 67 -5 0 -10 5 -10 10 0 6
-14 10 -30 10 -24 0 -35 7 -48 30 -13 24 -24 30 -49 30 -26 0 -33 4 -33 20 0
18 -7 20 -57 20 -72 0 -103 8 -103 26 0 11 -17 14 -66 14 -52 0 -70 4 -83 18
-9 10 -32 24 -51 32 -19 8 -38 19 -42 24 -5 7 -12 4 -21 -8 -14 -19 -15 -19
-27 5 -18 34 -81 89 -102 89 -10 0 -18 4 -18 8 0 5 -13 23 -28 40 -20 22 -38
32 -58 32 -18 0 -34 7 -42 20 -9 15 -23 20 -57 20 -25 0 -45 5 -45 10 0 6 10
10 23 10 12 0 29 5 37 10 10 7 -23 10 -102 10 -72 0 -118 4 -118 10 0 6 -26
10 -57 10 -87 0 -100 6 -116 53 -9 27 -21 43 -34 47 -12 3 -35 17 -52 33 -17
15 -38 27 -46 27 -8 0 -15 5 -15 10 0 6 -11 10 -25 10 -27 0 -65 32 -65 55 0
16 -46 65 -60 65 -6 0 -10 5 -10 10 0 18 -72 11 -86 -7 -12 -16 -13 -16 -8 -1
7 22 -28 42 -44 26 -9 -9 -15 -7 -26 8 -8 10 -10 21 -5 22 27 10 2 22 -44 22
-62 0 -107 18 -107 43 0 9 -7 17 -15 17 -8 0 -15 5 -15 10 0 6 -11 10 -25 10
-16 0 -25 6 -25 15 0 17 -48 64 -65 65 -5 0 -23 14 -39 30 -16 17 -34 30 -40
30 -7 0 -18 9 -26 21 -28 39 -47 59 -59 59 -6 0 -11 5 -11 10 0 19 -29 10 -62
-20 -18 -16 -35 -30 -39 -30 -7 0 -19 111 -19 175 0 29 -5 44 -20 53 -11 7
-20 21 -20 31 0 11 -18 38 -40 60 -22 22 -40 45 -40 52 0 7 -14 10 -40 7 -28
-2 -40 0 -40 9 0 7 -7 13 -15 13 -9 0 -18 12 -21 30 -4 17 -13 30 -21 30 -8 0
-21 7 -29 15 -9 8 -29 15 -45 15 -16 0 -29 4 -29 8 0 13 -68 42 -100 42 -17 0
-30 4 -30 8 0 5 -11 14 -24 20 -13 6 -27 20 -31 32 -5 17 -13 21 -31 17 -20
-3 -24 0 -24 19 0 19 -5 24 -24 24 -16 0 -27 7 -31 20 -4 14 -15 20 -36 20
-16 0 -29 5 -29 11 0 7 -11 9 -26 6 -34 -6 -94 13 -94 30 0 7 -7 13 -15 13 -8
0 -15 5 -15 10 0 6 -11 10 -25 10 -14 0 -25 5 -25 10 0 6 -18 10 -40 10 -32 0
-43 5 -57 28 -9 15 -18 29 -20 31 -2 3 -9 -3 -16 -12 -12 -17 -57 -14 -57 4 0
5 -11 9 -25 9 -15 0 -25 6 -25 15 0 8 -14 17 -36 21 -19 3 -41 15 -47 25 -8
12 -23 19 -44 19 -18 0 -33 5 -33 10 0 6 -8 10 -18 10 -11 0 -27 9 -37 20 -10
11 -22 17 -26 14 -5 -3 -12 2 -15 10 -4 10 -18 16 -35 16 -16 0 -29 4 -29 8 0
5 -18 15 -40 22 -22 7 -42 21 -45 32 -4 10 -10 18 -15 18 -5 0 -11 8 -14 18
-8 25 -52 42 -107 42 -26 0 -51 5 -54 10 -4 6 -77 10 -186 10 -113 0 -179 -4
-179 -10 0 -6 -30 -10 -70 -10 -40 0 -70 4 -70 10 0 6 -5 10 -10 10 -6 0 -8
-15 -4 -40z m8434 -4095 c11 -13 8 -19 -14 -40 -14 -13 -26 -28 -26 -33 0 -5
-11 -15 -25 -22 -14 -7 -25 -17 -25 -22 0 -4 -6 -8 -12 -8 -7 0 -24 -9 -38
-20 -14 -11 -32 -20 -42 -20 -9 0 -18 -4 -20 -10 -3 -9 -52 -12 -178 -11 -58
1 -75 -4 -155 -43 -49 -25 -142 -62 -206 -84 -64 -22 -124 -44 -135 -50 -62
-33 -211 -102 -219 -102 -14 0 -65 59 -65 75 0 7 11 16 25 19 14 4 25 10 25
15 0 4 26 16 58 26 54 18 97 44 150 90 13 11 42 23 65 26 85 13 152 30 155 39
2 6 16 10 31 10 15 0 47 7 72 15 61 21 222 44 234 34 17 -16 41 -9 63 16 13
15 33 25 48 25 14 0 32 7 41 16 10 9 29 14 50 12 28 -2 40 3 57 23 32 40 65
49 86 24z m-600 -4166 c0 -6 18 -9 46 -8 35 2 48 -1 55 -14 6 -9 16 -17 24
-17 19 0 65 -51 65 -72 0 -31 -55 -21 -169 28 -144 62 -151 66 -151 76 0 11
14 10 44 -3 19 -9 29 -8 47 5 27 19 39 20 39 5z m1956 -2564 c10 -8 35 -15 54
-15 27 0 38 -6 46 -24 7 -15 8 -30 2 -41 -7 -11 -5 -22 6 -34 9 -10 16 -23 16
-29 0 -7 9 -12 20 -12 15 0 20 -7 20 -26 0 -17 -6 -28 -20 -31 -11 -3 -20 -14
-20 -24 0 -24 -5 -24 -31 2 -17 17 -28 19 -75 13 -41 -5 -54 -3 -54 7 0 21 31
49 55 49 11 0 30 6 40 14 16 12 17 18 8 39 -9 18 -9 27 0 36 14 14 -3 33 -35
38 -37 5 -88 24 -88 32 0 24 28 27 56 6z m1049 -383 c17 -9 34 -15 40 -13 22
6 75 -11 75 -24 0 -8 -6 -15 -14 -15 -7 0 -19 -7 -27 -16 -8 -9 -21 -13 -35
-10 -35 9 -84 -4 -84 -23 0 -28 -63 -55 -107 -45 -21 4 -59 6 -85 5 -47 -3
-48 -2 -48 26 0 17 8 33 20 41 11 7 20 20 20 30 0 24 19 42 45 42 11 0 28 7
37 14 22 17 122 9 163 -12z m-179 -177 l28 -26 -22 -22 c-16 -15 -25 -18 -30
-11 -5 9 -16 9 -41 0 -39 -13 -53 -36 -22 -36 29 0 26 -19 -5 -30 -18 -7 -31
-7 -40 0 -17 15 -86 9 -92 -7 -2 -7 2 -15 10 -17 7 -2 34 -10 61 -17 42 -12
47 -16 47 -42 0 -25 3 -29 23 -24 12 2 30 8 40 12 13 5 17 2 17 -13 0 -14 -8
-22 -22 -25 -22 -3 -22 -4 -4 -12 13 -6 21 -5 24 3 2 7 10 12 18 12 12 0 14
-10 12 -42 l-3 -43 -50 -6 c-59 -7 -66 -4 -37 17 25 17 29 42 8 50 -14 5 -75
-51 -76 -69 0 -4 11 -13 25 -19 18 -8 25 -19 25 -40 0 -15 -2 -28 -4 -28 -15
0 -76 32 -76 40 0 6 -18 10 -40 10 -33 0 -40 -3 -40 -19 0 -30 40 -66 88 -79
23 -7 42 -17 42 -22 0 -30 -66 -21 -105 16 -18 17 -38 24 -66 24 -28 0 -39 4
-39 15 0 8 -6 15 -14 15 -7 0 -19 -7 -26 -15 -18 -21 -34 -19 -68 10 -17 14
-35 25 -41 25 -6 0 -11 12 -11 26 0 14 -10 34 -22 43 l-21 18 39 19 c21 10 43
28 49 39 6 12 17 19 28 17 25 -5 46 15 65 62 9 22 18 34 20 28 8 -24 37 -11
55 25 15 29 16 38 5 44 -11 7 -11 9 0 9 8 0 27 9 42 20 16 11 35 17 44 14 11
-4 16 0 16 14 0 11 8 23 18 26 9 3 28 13 42 21 40 23 95 19 126 -10z m-470
-515 c36 -36 44 -49 44 -70 0 -17 6 -20 39 -20 22 0 44 -6 51 -15 7 -8 25 -15
41 -15 16 0 29 -5 29 -12 0 -16 71 -88 87 -88 15 0 17 -26 3 -35 -5 -3 -10 -2
-10 3 0 11 -59 20 -182 28 -68 5 -78 3 -78 -11 0 -28 23 -41 80 -43 65 -3 92
-10 85 -23 -4 -5 -1 -9 4 -9 6 0 11 7 11 15 0 11 11 15 40 15 22 0 40 -4 40
-10 0 -14 23 -12 56 5 37 19 53 19 60 0 4 -8 14 -15 23 -15 20 0 48 -73 31
-78 -6 -2 -10 -11 -10 -20 0 -9 -7 -26 -15 -36 -8 -11 -15 -40 -15 -64 0 -43
-1 -44 -30 -40 -16 3 -28 2 -25 0 7 -7 -34 -61 -60 -78 -27 -18 -65 -11 -65
12 0 8 -10 14 -25 14 -14 0 -25 3 -25 8 0 10 58 42 76 42 8 0 17 7 20 15 4 8
12 15 19 15 17 0 26 35 12 49 -6 6 -23 11 -38 11 -22 0 -26 -4 -22 -20 4 -14
0 -20 -11 -20 -9 0 -16 7 -16 16 0 14 -8 16 -47 11 -33 -3 -51 -1 -61 10 -11
11 -29 13 -76 8 -76 -7 -121 4 -121 31 0 12 8 20 23 22 15 2 22 -2 22 -12 0
-12 10 -16 34 -16 19 0 38 5 41 10 3 6 2 10 -4 10 -5 0 -22 5 -38 12 -48 19
-113 7 -113 -22 0 -28 -12 -25 -43 9 -19 21 -32 28 -49 24 -38 -8 -68 -26 -68
-40 0 -10 -6 -9 -27 4 -31 20 -53 39 -53 46 0 9 30 16 45 11 8 -4 15 -15 15
-25 0 -10 5 -19 10 -19 6 0 10 7 10 15 0 10 10 15 28 15 42 0 46 11 11 32 -16
10 -27 23 -24 28 3 6 1 10 -4 10 -6 0 -11 7 -11 15 0 26 12 21 78 -36 18 -15
99 -16 114 -1 10 10 10 14 -1 21 -10 6 -10 13 -2 28 10 19 7 21 -37 26 -62 8
-80 12 -88 20 -4 4 -15 7 -24 7 -20 0 -60 32 -60 49 0 6 8 11 18 11 9 1 28 7
42 15 l25 14 -32 1 c-21 0 -33 5 -33 14 0 18 42 28 84 21 24 -5 38 -1 56 14
l25 20 -25 1 c-29 1 -78 35 -67 47 5 4 27 -3 50 -15 23 -12 49 -22 58 -22 8 0
20 -5 26 -11 8 -8 19 -8 40 -1 l28 10 -32 1 c-38 1 -43 20 -15 50 22 25 24 25
48 1z m-20768 -460 c25 0 30 -5 36 -30 5 -26 10 -30 40 -30 19 0 38 -4 41 -10
3 -5 22 -10 41 -10 30 0 34 -3 34 -27 0 -37 10 -50 40 -55 20 -4 17 -6 -17
-13 -24 -4 -43 -11 -43 -16 0 -18 -77 -9 -103 11 -14 11 -30 20 -36 20 -6 0
-12 19 -12 43 -2 29 -3 34 -6 15 -5 -35 -16 -35 -41 -3 -11 14 -25 25 -31 25
-6 0 -11 12 -12 28 0 15 -3 21 -6 15 -7 -19 -73 -17 -73 2 0 7 -8 19 -17 24
-14 8 -4 10 40 11 32 0 57 4 57 10 0 7 6 7 19 0 11 -5 33 -10 49 -10z m-405
-1032 c9 -9 17 -20 17 -25 0 -4 14 -16 30 -25 17 -9 30 -21 30 -27 0 -5 -32
-11 -70 -13 -70 -3 -70 -3 -70 23 0 23 -5 28 -36 34 -22 4 -39 2 -43 -4 -7
-11 -81 9 -81 21 0 5 -15 8 -32 8 -32 1 -33 1 -10 14 16 8 61 12 136 12 91 -1
116 -4 129 -18z m20357 -2808 c0 -47 4 -80 10 -80 6 0 10 -18 10 -40 0 -33 -3
-40 -20 -40 -18 0 -20 -7 -20 -80 0 -44 4 -80 9 -80 10 0 21 -197 14 -267 -5
-50 -7 -53 -34 -53 -27 0 -29 -3 -29 -40 0 -33 -3 -40 -20 -40 -17 0 -20 -7
-20 -40 l0 -40 40 0 40 0 0 -80 c0 -47 4 -80 10 -80 6 0 10 -18 10 -40 0 -22
-4 -40 -10 -40 -5 0 -10 -18 -10 -40 0 -22 -4 -40 -10 -40 -5 0 -10 -18 -10
-40 0 -22 5 -40 10 -40 6 0 10 -47 10 -120 0 -100 -2 -120 -15 -120 -11 0 -15
-11 -15 -40 0 -33 -3 -40 -20 -40 -17 0 -20 -7 -20 -40 0 -36 -2 -40 -25 -40
-22 0 -25 -4 -25 -40 0 -33 -3 -40 -20 -40 -17 0 -20 -7 -20 -40 l0 -40 -40 0
-40 0 0 -50 0 -50 -40 0 c-38 0 -40 -2 -40 -30 l0 -30 -120 0 -120 0 0 -40 c0
-29 -4 -40 -15 -40 -11 0 -15 11 -15 40 0 29 4 40 15 40 13 0 15 20 15 120 l0
120 40 0 40 0 0 40 0 40 -85 0 -85 0 0 40 c0 29 -4 40 -15 40 -18 0 -19 12 -3
28 18 18 28 15 28 -8 0 -17 7 -20 40 -20 39 0 40 1 39 33 0 17 -4 57 -8 87 -9
63 -4 70 52 70 l38 0 -4 63 c-3 34 -2 45 0 25 4 -37 5 -38 44 -38 l39 0 0 80
c0 64 -3 80 -15 80 -11 0 -15 11 -15 40 0 22 4 40 9 40 5 0 12 35 16 77 7 74
9 80 50 120 23 24 52 43 64 43 20 0 21 4 21 120 0 73 4 120 10 120 6 0 10 18
10 40 0 22 -4 40 -10 40 -5 0 -10 18 -10 40 0 22 -4 40 -10 40 -5 0 -10 18
-10 40 0 36 3 40 25 40 23 0 25 4 25 40 0 22 -4 40 -10 40 -15 0 -12 78 3 83
7 2 0 14 -20 31 -18 15 -33 32 -33 37 0 5 32 9 70 9 l70 0 0 40 0 40 80 0 80
0 0 40 c0 22 5 40 10 40 6 0 10 -33 10 -80z m-20420 -1533 c0 -25 25 -67 40
-67 15 0 40 -42 40 -67 0 -7 7 -13 15 -13 18 0 21 -54 5 -94 -11 -30 -29 -32
-71 -11 -29 16 -29 16 -27 97 2 58 -1 82 -9 85 -15 5 -18 83 -3 83 6 0 10 -6
10 -13z m243 -1587 c37 0 37 0 37 -40 0 -33 3 -40 20 -40 11 0 20 -4 20 -10 0
-5 -18 -10 -40 -10 -22 0 -40 5 -40 10 0 6 -37 10 -90 10 l-90 0 0 39 0 40 53
4 c28 2 61 2 72 0 11 -1 37 -3 58 -3z m18913 -489 c5 -5 20 -11 33 -13 37 -5
36 -25 -1 -41 -18 -8 -39 -21 -47 -30 -7 -10 -21 -17 -30 -17 -9 0 -22 -5 -28
-11 -24 -24 -199 -7 -206 20 -3 13 3 15 39 13 40 -4 45 -1 54 23 9 25 13 26
50 20 35 -6 43 -3 62 19 23 26 56 34 74 17z m367 -108 c18 -10 34 -21 37 -25
3 -4 26 -10 50 -14 44 -7 44 -8 17 -17 -20 -6 -39 -5 -66 6 -58 23 -81 13 -81
-34 l0 -39 43 0 c39 -1 41 -2 23 -15 -11 -8 -22 -11 -25 -7 -3 5 -30 12 -58
15 -41 5 -53 3 -53 -7 0 -25 29 -39 70 -33 35 4 40 3 40 -14 0 -17 -5 -18 -40
-13 -33 5 -40 4 -40 -10 0 -11 -12 -18 -40 -22 -34 -6 -40 -10 -40 -30 0 -21
-5 -24 -40 -24 -23 0 -40 5 -40 11 0 8 -5 7 -16 -2 -14 -12 -14 -14 0 -25 28
-20 18 -22 -45 -9 -72 15 -86 25 -35 25 26 0 36 4 33 13 -2 6 -10 11 -17 9
-13 -3 -60 36 -60 50 0 4 6 8 14 8 8 0 16 10 18 22 3 23 28 38 28 18 0 -16 39
-50 58 -50 9 0 2 15 -22 44 -20 24 -36 50 -36 56 0 6 12 24 28 39 21 22 40 29
86 34 32 3 66 13 76 22 17 16 61 32 88 34 8 1 28 -7 45 -16z m817 -273 c0 -5
-4 -10 -10 -10 -13 0 -13 -37 1 -46 6 -3 19 -25 29 -48 19 -45 19 -59 -2 -268
l-11 -118 -28 0 -29 0 0 -80 c0 -47 -4 -80 -10 -80 -6 0 -10 -47 -10 -120 0
-100 -2 -120 -15 -120 -11 0 -15 -11 -15 -40 0 -22 -4 -40 -8 -40 -13 0 -42
-68 -36 -84 3 -7 -4 -29 -15 -47 -12 -19 -21 -44 -21 -55 0 -12 -7 -24 -15
-28 -8 -3 -15 -13 -15 -22 0 -31 -24 -84 -37 -84 -8 0 -13 -14 -13 -40 0 -29
-4 -40 -15 -40 -8 0 -15 -7 -15 -15 0 -9 -11 -20 -25 -25 -18 -7 -25 -17 -25
-36 0 -16 -10 -34 -25 -46 -14 -11 -25 -28 -25 -39 0 -11 -7 -22 -15 -25 -8
-4 -15 -17 -15 -30 0 -19 -5 -24 -26 -24 -31 0 -54 -21 -54 -51 0 -13 -17 -39
-40 -61 -22 -22 -40 -46 -40 -53 0 -8 -28 -41 -62 -74 -34 -33 -70 -73 -80
-88 -13 -21 -18 -23 -18 -10 0 24 -3 22 -48 -23 -21 -22 -44 -40 -50 -40 -16
0 -62 -48 -62 -65 0 -9 -10 -15 -26 -15 -14 0 -32 -7 -40 -15 -9 -8 -33 -15
-55 -15 -28 0 -39 4 -39 15 0 19 -76 21 -83 3 -2 -8 -8 -9 -13 -4 -5 5 -4 11
4 13 7 3 12 22 12 44 l0 39 -81 0 -81 0 5 -77 c2 -43 2 -63 0 -45 -4 30 -7 32
-44 32 l-39 0 0 45 0 45 -40 0 c-29 0 -40 -4 -40 -15 0 -11 -11 -15 -40 -15
-29 0 -40 4 -40 15 0 11 -11 15 -40 15 l-40 0 0 -40 0 -40 -80 0 -80 0 0 -40
0 -40 -80 0 -80 0 0 -40 0 -40 -80 0 -80 0 0 -40 c0 -29 -4 -40 -15 -40 -11 0
-15 -11 -15 -40 0 -38 2 -40 30 -40 28 0 30 -2 30 -40 l0 -40 -55 0 -55 0 0
-40 0 -40 -40 0 -40 0 0 -40 c0 -40 0 -40 39 -40 l39 0 7 -76 c4 -41 4 -78 1
-81 -3 -4 -6 12 -6 35 l0 42 -40 0 -40 0 0 40 0 40 -40 0 -40 0 0 -40 0 -40
-40 0 -40 0 0 -40 0 -40 40 0 c29 0 40 -4 40 -15 0 -11 -11 -15 -40 -15 -29 0
-40 4 -40 15 0 11 -11 15 -40 15 l-40 0 0 -40 c0 -33 3 -40 20 -40 23 0 26
-13 8 -27 -20 -15 -108 -4 -108 13 0 10 -12 14 -40 14 -40 0 -40 0 -40 -39 0
-39 1 -40 38 -44 20 -2 10 -3 -22 -1 -32 2 -85 4 -117 4 l-59 0 0 40 0 40
-120 0 -120 0 0 -40 0 -40 -80 0 -80 0 0 -40 0 -40 -120 0 -120 0 0 -40 0 -40
-120 0 -120 0 0 -25 c0 -22 -4 -25 -40 -25 -36 0 -40 3 -40 25 0 23 -4 25 -40
25 l-40 0 0 -40 0 -40 -40 0 -40 0 0 40 0 40 -40 0 -40 0 0 -40 0 -40 -40 0
-40 0 0 40 0 40 -40 0 -40 0 0 40 c0 22 -3 40 -6 40 -3 0 -17 -13 -31 -30 -13
-16 -29 -30 -34 -30 -5 0 -9 14 -9 30 l0 30 -80 0 -80 0 0 -40 0 -40 80 0 80
0 0 -40 0 -40 40 0 c29 0 40 -4 40 -15 0 -11 -11 -15 -40 -15 -38 0 -40 -2
-40 -30 0 -28 -2 -30 -40 -30 -22 0 -40 -4 -40 -10 0 -5 -18 -10 -40 -10 -29
0 -40 4 -40 15 0 13 -29 15 -200 15 l-200 0 0 -40 0 -40 -65 0 -65 0 0 40 0
40 -55 0 -55 0 0 -40 c0 -32 -4 -40 -18 -40 -9 0 -23 -9 -30 -20 -21 -35 -32
-22 -32 40 l0 60 -40 0 -40 0 0 40 0 40 -40 0 -40 0 0 -80 0 -80 -80 0 -80 0
0 40 0 40 -80 0 -80 0 0 -40 c0 -29 -4 -40 -15 -40 -11 0 -15 11 -15 40 0 29
4 40 15 40 11 0 15 11 15 40 l0 40 120 0 120 0 0 40 0 40 -95 0 -95 0 0 40 c0
29 4 40 15 40 12 0 15 16 15 80 l0 80 -40 0 c-29 0 -40 4 -40 15 0 11 11 15
40 15 29 0 40 -4 40 -15 0 -12 16 -15 80 -15 l80 0 0 -40 0 -40 55 0 55 0 0
40 c0 22 5 40 10 40 6 0 10 18 10 40 0 36 -2 40 -25 40 -14 0 -25 5 -25 11 0
7 8 9 23 4 12 -5 55 -10 95 -12 l72 -5 0 41 c0 37 2 41 25 41 16 0 25 6 25 16
0 22 41 64 63 64 11 0 17 8 17 25 0 23 4 25 40 25 29 0 40 4 40 15 0 13 20 15
120 15 l120 0 0 40 0 40 80 0 80 0 0 80 0 80 -40 0 -40 0 0 -40 0 -40 -40 0
c-29 0 -40 -4 -40 -15 0 -12 -16 -15 -80 -15 -64 0 -80 3 -80 15 0 11 11 15
40 15 l40 0 0 80 0 80 80 0 80 0 0 40 c0 36 3 40 25 40 23 0 25 4 25 40 0 38
2 40 30 40 28 0 30 2 30 40 0 29 -4 40 -15 40 -11 0 -15 11 -15 40 l0 40 40 0
c29 0 40 4 40 15 0 11 11 15 40 15 34 0 40 3 40 21 0 23 79 109 100 109 7 0
23 10 36 23 19 18 24 32 24 80 l0 57 40 0 40 0 0 40 0 40 80 0 80 0 0 -40 0
-40 55 0 55 0 0 40 c0 29 -4 40 -15 40 -11 0 -15 11 -15 40 l0 40 40 0 40 0 0
80 0 80 40 0 40 0 0 40 0 40 40 0 40 0 0 40 0 40 40 0 40 0 0 -40 0 -40 40 0
40 0 0 40 c0 38 2 40 29 40 16 0 32 6 35 13 5 10 7 10 12 0 4 -9 31 -13 85
-13 l79 0 0 40 0 40 -110 0 c-67 0 -110 -4 -110 -10 0 -5 -4 -10 -10 -10 -6 0
-9 36 -8 93 1 50 3 73 5 50 l4 -43 195 0 194 0 0 45 0 45 40 0 40 0 0 -45 0
-45 40 0 40 0 0 40 0 40 40 0 40 0 0 55 0 55 40 0 c29 0 40 -4 40 -15 0 -12
16 -15 80 -15 l80 0 0 40 0 40 -40 0 -40 0 0 40 0 40 40 0 40 0 0 -40 0 -40
95 0 95 0 0 -40 c0 -36 3 -40 25 -40 25 0 25 1 25 80 l0 80 -40 0 c-22 0 -40
5 -40 10 0 15 69 12 85 -4 12 -11 13 -38 8 -130 -4 -85 -3 -116 5 -116 7 0 12
-16 12 -38 0 -28 7 -45 25 -62 14 -13 25 -20 25 -16 0 5 7 3 15 -4 8 -7 15
-23 15 -35 0 -13 11 -32 25 -43 19 -15 25 -29 25 -57 0 -36 18 -65 39 -65 6 0
11 -18 11 -40 0 -29 4 -40 15 -40 11 0 15 -11 15 -40 l0 -40 80 0 80 0 0 -45
0 -45 -40 0 -40 0 0 -75 c0 -68 2 -75 20 -75 11 0 20 -4 20 -10 0 -5 -9 -15
-20 -22 -13 -9 -20 -24 -20 -45 0 -32 2 -33 40 -33 22 0 40 -4 40 -10 0 -5 18
-10 40 -10 29 0 40 -4 40 -15 0 -8 7 -15 15 -15 11 0 15 11 15 40 0 36 3 40
25 40 20 0 25 5 25 25 0 23 4 25 40 25 28 0 40 4 40 14 0 8 -6 17 -12 20 -10
5 -10 7 0 12 6 3 12 12 12 20 0 10 12 14 40 14 29 0 40 4 40 15 0 8 7 15 15
15 11 0 15 11 15 40 0 29 -4 40 -15 40 -12 0 -15 15 -15 78 0 78 0 78 40 117
27 26 36 41 28 46 -9 6 -9 11 1 23 10 12 33 16 92 16 72 0 79 2 79 20 0 17 7
20 40 20 29 0 40 4 40 15 0 11 11 15 40 15 36 0 40 3 40 25 0 23 4 25 40 25
22 0 40 5 40 10 0 6 18 10 40 10 22 0 40 5 40 10 0 6 17 10 38 10 32 1 41 7
71 45 38 51 51 56 51 20 0 -16 6 -25 15 -25 8 0 15 4 15 10 0 17 42 59 54 54
7 -3 18 7 26 21 7 14 22 25 32 25 11 0 29 11 42 25 13 14 32 25 42 25 16 0 16
1 2 13 -15 11 -15 15 0 50 9 20 24 40 34 43 15 4 48 90 48 123 0 6 4 11 10 11
5 0 21 20 35 44 14 24 38 49 54 56 16 6 34 22 41 36 8 13 17 24 22 24 11 0 10
78 -2 82 -16 5 0 47 21 53 16 6 39 58 39 93 0 15 27 16 32 1 3 -8 16 -10 41
-5 28 5 37 12 37 26 0 11 6 20 13 20 7 0 37 12 66 26 38 19 51 31 46 42 -8 20
13 32 45 26 19 -4 31 2 50 25 25 31 40 39 40 21z m-997 -116 c3 -4 23 -7 44
-8 21 -1 52 -10 68 -19 17 -9 38 -19 48 -23 9 -3 17 -10 17 -15 0 -13 24 -11
56 5 30 16 44 13 44 -10 0 -9 11 -14 30 -14 17 0 30 -4 30 -9 0 -5 11 -12 25
-15 24 -6 36 -26 15 -26 -5 0 -10 -18 -10 -40 0 -29 4 -40 15 -40 8 0 15 -7
15 -16 0 -12 -6 -15 -22 -10 -13 3 -26 6 -30 6 -4 0 -8 14 -10 32 -3 31 -3 32
-22 12 -18 -17 -18 -19 -3 -22 13 -3 17 -14 17 -45 0 -30 3 -38 10 -27 12 19
35 -2 27 -24 -10 -25 -127 -20 -127 5 0 5 11 9 25 9 23 0 25 4 25 40 0 22 -4
40 -10 40 -13 0 -60 41 -60 52 0 4 9 8 20 8 13 0 20 7 20 19 0 15 -10 21 -40
26 -22 4 -40 11 -40 16 0 5 -18 9 -40 9 -29 0 -40 4 -40 15 0 9 -9 15 -23 15
-12 0 -33 7 -45 16 -20 14 -23 14 -28 0 -8 -21 -34 -20 -50 2 -10 12 -13 13
-14 3 0 -11 -3 -11 -15 -1 -21 18 -19 33 5 27 11 -3 23 -1 26 4 6 10 38 12 47
3z m-18703 -654 l0 -40 80 0 80 0 0 -120 0 -120 40 0 40 0 0 -80 c0 -73 2 -80
20 -80 17 0 20 -7 20 -40 0 -33 3 -40 20 -40 17 0 20 -7 20 -40 l0 -40 40 0
40 0 0 -40 0 -40 40 0 40 0 0 -40 0 -40 40 0 40 0 0 40 c0 22 5 40 10 40 6 0
10 -18 10 -40 0 -22 -4 -40 -10 -40 -5 0 -10 -18 -10 -40 l0 -40 40 0 c37 0
40 2 40 27 l0 26 26 -24 26 -24 -26 -3 c-26 -3 -26 -5 -26 -83 l0 -79 -40 0
-40 0 0 -60 0 -60 -40 0 c-34 0 -40 3 -40 21 0 19 -5 21 -40 17 -30 -3 -40 0
-40 11 0 19 -49 71 -67 71 -7 0 -13 9 -13 20 0 17 -7 20 -40 20 -22 0 -40 5
-40 10 0 6 -18 10 -40 10 -22 0 -40 5 -40 10 0 6 -18 10 -40 10 -33 0 -40 3
-40 20 0 16 -7 20 -37 20 -51 0 -83 32 -83 82 0 21 -4 38 -10 38 -5 0 -10 18
-10 40 0 22 -4 40 -10 40 -5 0 -10 18 -10 40 0 22 -4 40 -10 40 -5 0 -10 18
-10 40 0 38 -2 40 -30 40 -25 0 -30 4 -30 24 0 13 -7 30 -17 37 -21 18 -163
19 -181 2 -18 -18 -42 -16 -42 2 0 11 -11 15 -40 15 -22 0 -40 5 -40 10 0 6
18 10 41 10 32 0 47 6 71 30 16 17 34 30 39 30 5 0 9 24 9 54 0 49 2 55 23 58
18 2 23 10 25 45 2 23 -2 51 -8 63 -10 19 -8 20 55 20 l65 0 0 -40 0 -40 40 0
40 0 0 120 0 120 40 0 40 0 0 -40z m15120 -1175 l0 -95 -40 0 c-36 0 -40 -2
-40 -25 0 -22 -4 -25 -40 -25 l-40 0 -1 -42 -1 -43 -13 40 c-10 33 -10 41 1
43 9 2 14 18 14 43 0 39 0 39 40 39 l40 0 0 80 0 80 40 0 40 0 0 -95z m-880
-530 c0 -9 -9 -15 -25 -15 -22 0 -25 -4 -25 -40 0 -29 -4 -40 -15 -40 -11 0
-15 -11 -15 -40 l0 -40 -80 0 -80 0 0 40 0 40 40 0 40 0 0 40 0 40 40 0 c29 0
40 4 40 15 0 11 11 15 40 15 29 0 40 -4 40 -15z m-320 -50 l0 -45 -40 0 -40 0
0 -40 0 -40 -40 0 -40 0 0 -40 0 -40 -40 0 c-29 0 -40 -4 -40 -15 0 -11 -11
-15 -40 -15 -36 0 -40 -2 -40 -25 0 -21 -5 -25 -30 -25 -16 0 -30 3 -30 7 0 4
50 56 110 116 64 63 110 117 110 128 0 16 7 19 40 19 38 0 40 2 40 30 0 28 2
30 40 30 l40 0 0 -45z m-1339 -1183 c10 -14 19 -33 19 -43 0 -15 -8 -19 -40
-19 l-40 0 0 -40 c0 -33 -3 -40 -20 -40 -17 0 -20 7 -20 40 0 33 -3 40 -20 40
-11 0 -20 4 -20 10 0 5 9 15 20 22 11 7 20 22 20 34 0 13 12 26 35 37 19 9 36
22 36 29 1 7 4 0 6 -17 3 -16 13 -40 24 -53z"/>
<path d="M21280 9415 c0 -22 -4 -25 -40 -25 -29 0 -40 -4 -40 -15 0 -11 11
-15 40 -15 l40 0 0 -65 0 -65 40 0 c36 0 40 3 40 25 0 16 6 25 15 25 12 0 15
16 15 80 l0 80 -55 0 c-52 0 -55 -1 -55 -25z"/>
<path d="M21120 9000 c0 -36 -2 -40 -25 -40 -22 0 -25 -4 -25 -40 0 -29 -4
-40 -15 -40 -8 0 -15 7 -15 15 0 12 -16 15 -80 15 -64 0 -80 -3 -80 -15 0 -8
4 -15 9 -15 12 0 71 -59 71 -71 0 -5 36 -9 80 -9 l80 0 0 40 c0 36 3 40 25 40
23 0 25 4 25 40 0 22 -4 40 -10 40 -5 0 -10 18 -10 40 0 29 -4 40 -15 40 -11
0 -15 -11 -15 -40z"/>
<path d="M20800 8869 c0 -6 -11 -20 -25 -31 -14 -11 -25 -24 -25 -29 0 -5 11
-9 25 -9 25 0 25 -1 25 -80 l0 -80 40 0 40 0 0 80 c0 64 -3 80 -15 80 -11 0
-15 11 -15 40 0 36 -2 40 -25 40 -14 0 -25 -5 -25 -11z"/>
<path d="M20080 8305 c0 -11 -11 -15 -38 -15 -26 0 -46 -7 -62 -22 l-25 -23
23 -3 c18 -3 22 -10 22 -43 l0 -39 80 0 80 0 0 40 c0 29 4 40 15 40 11 0 15
11 15 40 l0 40 -55 0 c-42 0 -55 -3 -55 -15z"/>
<path d="M10240 28440 l0 -40 -40 0 -40 0 0 -40 0 -40 -64 0 c-61 0 -64 -1
-76 -30 -7 -16 -16 -30 -21 -30 -24 0 -4 -20 36 -37 25 -10 45 -21 45 -25 0
-5 50 -8 110 -8 91 0 110 -3 110 -15 0 -8 5 -15 10 -15 6 0 10 6 10 14 0 19
58 29 155 27 98 -2 129 5 121 24 -4 11 2 15 19 15 18 0 25 -5 25 -19 0 -15 11
-21 53 -29 28 -6 71 -17 94 -26 40 -15 123 -30 123 -22 0 2 -7 23 -15 46 -8
23 -15 53 -15 66 0 21 -5 24 -40 24 -22 0 -40 5 -40 10 0 6 -18 10 -40 10 -22
0 -40 5 -40 10 0 6 -18 10 -40 10 l-40 0 0 40 c0 36 -2 40 -25 40 -22 0 -25 4
-25 40 l0 40 -175 0 -175 0 0 -40z"/>
<path d="M380 8761 c0 -22 -5 -41 -10 -43 -13 -4 6 -309 19 -318 4 -3 11 -16
14 -30 3 -14 13 -45 22 -70 9 -25 21 -71 25 -102 5 -32 18 -71 30 -88 12 -16
17 -30 12 -30 -5 0 8 -33 28 -74 20 -41 40 -94 43 -117 3 -24 11 -45 16 -47 6
-2 11 -16 11 -30 0 -31 9 -46 30 -54 8 -3 21 -27 29 -54 8 -27 22 -61 33 -76
10 -14 18 -33 18 -41 0 -9 5 -19 10 -22 6 -3 10 -15 10 -26 0 -10 6 -19 14
-19 8 0 16 -10 20 -22 3 -13 24 -47 46 -76 22 -29 40 -60 40 -70 0 -10 16 -32
35 -49 19 -17 35 -37 35 -45 0 -7 7 -21 15 -31 7 -11 11 -25 8 -33 -3 -8 5
-17 20 -23 14 -6 28 -19 32 -30 3 -12 11 -21 16 -21 5 0 9 -7 9 -16 0 -9 10
-27 23 -39 34 -34 62 -79 59 -92 -2 -7 6 -13 18 -13 11 0 20 -4 20 -10 0 -5
21 -37 47 -70 25 -33 43 -63 40 -66 -7 -7 35 -44 50 -44 4 0 17 -17 28 -38 11
-20 29 -41 40 -46 21 -9 75 -79 75 -96 0 -6 6 -10 13 -10 8 0 24 -22 37 -50
20 -43 28 -50 52 -50 21 0 28 -5 28 -19 0 -10 7 -21 15 -25 8 -3 15 -12 15
-21 0 -8 7 -15 15 -15 8 0 15 -7 15 -15 0 -8 7 -15 15 -15 13 0 39 -34 40 -52
0 -9 15 -23 24 -23 19 0 81 -66 81 -86 0 -18 2 -19 15 -9 12 10 19 8 40 -11
13 -13 25 -32 25 -41 0 -10 6 -18 13 -18 6 0 18 -4 26 -9 13 -8 13 -12 0 -27
-13 -16 -12 -17 10 -11 17 4 30 -2 55 -27 17 -18 37 -42 45 -53 8 -11 33 -33
57 -48 27 -17 41 -32 37 -41 -3 -9 2 -14 15 -14 11 0 28 -8 38 -17 10 -10 20
-18 23 -18 3 0 30 -19 59 -43 30 -23 57 -42 62 -42 4 0 10 -9 13 -19 3 -11 21
-27 42 -35 21 -9 35 -21 32 -28 -2 -8 10 -17 32 -23 20 -6 40 -20 46 -31 14
-29 36 -49 75 -69 19 -10 37 -21 40 -25 3 -4 21 -15 40 -25 69 -35 119 -70
120 -85 0 -8 14 -23 31 -33 17 -9 36 -30 42 -46 7 -20 21 -32 45 -39 20 -6 40
-9 45 -5 5 3 6 -3 2 -16 -6 -19 -2 -21 28 -21 19 0 51 -7 72 -15 28 -13 34
-19 26 -29 -15 -18 10 -39 34 -30 12 5 24 -2 41 -22 17 -21 26 -26 32 -17 6 9
17 2 38 -26 20 -28 38 -41 59 -44 28 -4 29 -4 8 -12 -13 -4 -23 -11 -23 -15 0
-13 38 -22 60 -15 15 5 20 2 20 -13 0 -16 10 -22 53 -30 83 -16 140 -41 164
-72 17 -20 29 -27 45 -22 18 4 20 2 15 -17 -5 -20 -2 -22 19 -18 13 2 24 0 24
-4 0 -5 6 -6 13 -3 7 2 23 -10 36 -27 17 -23 29 -30 46 -27 13 3 34 -1 46 -8
20 -11 21 -13 6 -14 -24 0 -16 -24 9 -27 76 -7 154 -33 154 -52 0 -4 18 -14
41 -21 22 -8 44 -21 49 -30 5 -9 43 -27 84 -41 42 -13 76 -26 76 -29 0 -3 -18
-4 -40 -2 -25 3 -40 0 -40 -7 0 -6 17 -11 39 -11 22 0 42 -5 44 -12 4 -10 8
-9 16 2 8 12 13 12 23 2 6 -6 23 -12 36 -12 21 0 22 -2 12 -15 -10 -12 -9 -16
6 -22 11 -3 30 -15 43 -25 18 -14 27 -15 37 -7 10 8 27 4 69 -20 30 -17 63
-31 74 -31 26 0 37 -19 20 -32 -10 -7 0 -8 29 -5 38 5 44 3 54 -19 11 -24 41
-40 57 -29 5 3 12 1 16 -5 3 -5 1 -10 -4 -10 -6 0 -11 -4 -11 -9 0 -6 24 -7
55 -4 43 5 55 3 53 -7 -2 -8 10 -18 27 -23 60 -19 96 -37 90 -47 -3 -6 -1 -10
4 -10 6 0 11 7 11 17 0 15 1 15 18 0 10 -10 24 -17 30 -17 7 0 12 -4 12 -10 0
-5 13 -10 30 -10 19 0 33 -7 40 -20 6 -11 20 -20 30 -20 11 0 53 -15 93 -34
39 -19 89 -38 110 -42 20 -3 37 -10 37 -15 0 -5 17 -17 37 -27 21 -9 48 -28
60 -41 16 -16 30 -22 47 -19 14 3 23 1 20 -4 -3 -5 13 -16 35 -26 26 -11 41
-24 41 -34 0 -20 44 -26 55 -8 11 18 25 10 25 -15 0 -21 5 -25 29 -25 48 0
131 -22 131 -35 0 -8 17 -12 51 -10 29 1 45 -1 38 -6 -9 -5 -1 -13 27 -26 21
-10 41 -21 44 -24 3 -3 17 -9 32 -12 15 -4 33 -14 42 -22 16 -17 86 -21 86 -5
0 19 19 10 53 -25 26 -27 42 -35 69 -35 23 0 38 -6 42 -15 4 -11 23 -15 81
-15 56 0 75 -3 75 -13 0 -24 35 -47 72 -47 20 0 49 -7 64 -15 16 -8 46 -15 67
-15 20 0 37 -3 37 -7 0 -5 21 -8 47 -8 40 0 48 -3 47 -17 -1 -14 6 -18 32 -18
19 0 34 -4 34 -10 0 -5 18 -10 39 -10 22 0 42 -4 46 -9 3 -5 36 -16 73 -25 37
-9 88 -22 115 -30 26 -8 47 -13 47 -10 0 2 13 -2 30 -11 16 -8 45 -15 65 -15
19 0 54 -9 78 -20 55 -25 152 -50 197 -50 19 0 44 -6 55 -14 11 -7 36 -16 55
-19 19 -3 51 -10 70 -15 19 -6 82 -22 140 -37 58 -14 119 -30 136 -35 17 -6
41 -10 53 -10 12 0 29 -7 38 -16 10 -10 25 -13 44 -9 15 4 38 1 51 -6 13 -7
37 -14 53 -16 17 -2 43 -8 59 -13 16 -6 44 -10 61 -10 19 0 35 -6 38 -14 3 -7
25 -16 49 -19 88 -13 143 -28 154 -42 16 -21 21 -19 28 10 8 32 24 32 32 -1 5
-20 11 -24 28 -20 12 3 34 -1 49 -9 29 -15 206 -55 245 -55 13 0 20 -4 17 -10
-3 -5 -1 -10 4 -10 6 0 11 5 11 11 0 15 104 3 143 -16 15 -7 27 -9 27 -4 0 14
26 11 40 -6 7 -9 30 -15 54 -15 22 -1 61 -5 86 -11 25 -6 70 -14 101 -19 31
-5 77 -17 103 -25 26 -9 79 -18 119 -20 66 -3 190 -27 227 -42 8 -4 34 -7 58
-7 24 -1 46 -7 51 -14 4 -7 41 -14 92 -18 143 -9 206 -21 235 -45 13 -10 17
-10 24 2 8 11 13 12 30 2 11 -7 32 -13 48 -13 15 0 33 -5 40 -12 7 -7 48 -12
107 -12 81 -1 95 -3 95 -17 0 -15 16 -17 123 -18 129 -2 223 -12 272 -29 35
-12 144 -26 343 -44 78 -6 142 -16 142 -20 0 -4 11 -8 24 -8 33 0 56 -10 56
-24 0 -21 118 -59 167 -53 25 3 40 2 34 -2 -9 -6 -8 -11 4 -21 13 -11 143 -13
673 -14 433 -1 664 -5 677 -11 18 -10 117 -10 315 -3 80 3 233 -11 244 -22 6
-6 44 -10 86 -9 46 0 67 3 55 8 -16 7 -13 9 19 15 27 5 41 4 46 -5 5 -8 21
-10 44 -6 20 3 36 2 36 -2 0 -4 23 -7 52 -7 33 1 53 -4 55 -11 6 -17 108 -46
133 -38 13 4 25 -1 37 -14 10 -12 23 -21 30 -21 7 0 13 -4 13 -10 0 -5 18 -10
40 -10 22 0 40 5 40 10 0 6 22 10 49 10 28 0 53 5 56 11 10 15 49 28 55 19 10
-16 86 -13 131 4 32 12 53 15 65 9 11 -5 61 -7 112 -5 80 3 92 6 92 22 0 26
40 29 391 31 333 1 802 15 857 25 25 5 32 3 32 -10 0 -12 10 -16 40 -16 29 0
40 4 40 15 0 18 8 18 140 4 75 -7 111 -7 134 1 48 18 277 33 561 36 143 2 267
4 275 4 8 0 104 -1 213 -2 169 -3 441 6 320 10 -41 2 -63 22 -25 22 98 2 274
22 306 35 21 9 70 19 109 22 59 5 75 11 95 32 16 18 25 22 29 14 3 -9 31 -13
91 -13 90 0 152 15 152 37 0 8 12 13 30 13 17 0 42 7 56 16 21 14 34 15 82 6
31 -5 68 -14 82 -18 22 -7 24 -6 12 9 -12 14 -11 17 10 21 12 3 37 5 53 5 50
-1 174 18 188 29 16 12 66 22 145 29 34 2 62 8 62 12 0 4 23 7 51 7 41 -1 54
3 69 22 21 25 36 28 43 8 3 -8 22 -18 41 -22 20 -3 36 -10 36 -14 0 -4 17 -4
38 1 20 5 56 9 80 9 35 0 42 3 42 20 0 22 35 29 42 8 4 -10 10 -10 32 0 16 7
55 15 87 19 32 3 56 9 54 14 -3 4 0 11 6 15 6 3 15 1 19 -6 6 -10 17 -9 51 4
24 10 75 20 114 23 38 3 90 15 114 25 24 10 72 21 105 24 70 7 163 31 171 45
4 5 17 9 30 9 13 0 27 5 30 10 3 6 23 10 43 10 21 0 55 9 77 20 22 11 51 20
65 20 14 0 31 5 37 11 6 6 35 13 63 14 29 2 55 7 59 13 3 5 44 16 91 25 47 9
111 27 143 41 31 14 83 29 115 32 31 4 84 17 117 31 33 13 96 27 140 32 44 5
98 16 120 25 22 10 69 20 105 22 36 3 88 14 115 24 47 18 127 36 205 47 19 3
40 9 46 14 6 5 47 12 90 15 43 4 99 15 124 24 25 10 62 20 84 24 21 4 52 17
68 29 21 16 31 18 36 9 6 -8 12 -6 24 8 9 10 36 24 60 30 44 12 103 37 171 71
21 10 54 19 75 19 20 0 62 10 92 21 30 12 87 25 125 30 44 5 99 21 145 42 41
19 91 37 110 41 19 3 73 21 120 40 47 18 108 42 135 53 28 11 49 25 48 31 -3
12 32 26 45 18 5 -3 21 2 36 10 16 7 37 14 47 14 11 0 61 20 112 45 52 25 101
45 110 45 9 0 26 10 37 22 17 18 23 20 29 9 7 -11 15 -10 40 9 18 12 64 30
104 40 40 10 106 34 147 53 41 19 93 38 115 42 54 9 75 22 75 45 0 18 5 20 43
14 l42 -7 -19 22 c-19 21 -19 21 5 21 13 0 38 8 54 18 17 10 55 24 85 31 30 8
66 21 78 29 13 9 52 21 85 28 74 16 168 42 175 49 3 3 -8 5 -24 5 -22 0 -26 3
-14 10 8 5 26 10 39 10 31 0 91 21 91 32 0 4 17 8 38 9 40 0 93 17 60 18 -37
2 -16 21 22 21 33 0 48 7 74 33 18 17 31 37 29 44 -2 6 1 14 6 18 6 3 11 -1
11 -10 0 -14 3 -14 30 0 16 8 52 15 80 15 40 0 50 -3 50 -17 0 -13 9 -8 35 17
19 19 30 37 25 40 -6 4 -4 14 5 26 14 19 14 18 15 -3 0 -20 5 -23 40 -23 l40
0 0 50 c0 38 -4 50 -15 50 -19 0 -19 16 0 24 9 3 15 0 15 -9 0 -11 11 -15 40
-15 25 0 40 -5 40 -12 0 -7 19 7 43 30 23 23 46 42 49 42 10 0 68 60 68 71 0
5 8 9 19 9 10 0 31 17 46 37 16 21 42 54 60 73 17 19 45 57 60 85 36 62 113
138 174 170 25 14 73 49 106 78 37 32 87 64 130 82 39 16 85 39 103 52 17 13
62 38 100 55 37 17 83 44 102 58 19 15 67 43 106 63 39 20 85 47 101 61 17 14
53 36 79 48 60 28 162 108 164 128 1 10 3 11 6 3 7 -17 112 35 120 59 3 10 14
23 25 28 24 13 25 40 2 40 -14 0 -15 2 -4 13 11 10 14 10 18 0 7 -19 38 -16
58 6 10 12 33 21 58 23 30 2 43 8 45 21 2 10 -3 17 -12 17 -24 0 -19 19 7 30
29 12 87 68 87 84 0 8 11 17 25 20 14 4 25 14 25 24 0 9 14 30 30 46 16 16 32
37 35 47 3 10 15 21 26 24 16 5 18 10 8 21 -17 20 -4 43 31 56 17 5 37 22 45
37 8 14 14 21 15 14 0 -7 18 7 39 30 32 34 37 43 24 48 -24 8 1 24 42 28 9 0
20 12 25 26 5 14 14 25 20 25 5 0 10 6 10 13 0 7 9 20 21 30 12 10 18 25 15
35 -3 9 -2 23 3 31 11 17 32 5 24 -14 -3 -8 0 -15 6 -15 6 0 11 17 11 40 0 28
4 40 14 40 8 0 18 9 21 20 3 11 15 20 26 20 12 0 19 7 19 18 0 10 18 36 40 57
22 21 40 47 40 57 0 10 4 26 10 36 5 9 15 30 20 45 6 16 19 31 30 34 11 3 20
13 20 23 0 9 9 25 19 34 11 10 23 31 26 46 3 16 13 31 21 34 8 3 14 12 14 21
0 8 4 15 9 15 6 0 20 27 32 60 12 33 26 63 30 66 5 3 9 16 9 30 0 16 6 24 18
24 13 0 24 15 36 51 12 33 21 46 27 38 5 -8 10 1 15 26 4 22 18 51 30 64 13
14 24 33 24 41 0 9 11 31 24 49 18 25 23 41 19 62 -4 23 0 33 21 50 20 16 26
29 26 60 0 21 4 39 10 39 5 0 12 17 16 37 4 21 18 58 31 84 12 26 23 52 23 58
0 6 4 11 10 11 9 0 38 86 46 138 2 15 7 43 10 62 3 19 8 71 11 115 3 44 9 85
14 91 9 10 39 213 39 258 0 16 -5 13 -25 -16 -14 -20 -25 -46 -25 -57 0 -11
-6 -38 -14 -58 -7 -21 -18 -56 -23 -78 -12 -47 -46 -138 -54 -145 -9 -8 -39
-95 -39 -112 0 -10 -6 -21 -12 -25 -7 -4 -24 -42 -38 -83 -14 -41 -33 -82 -42
-92 -10 -10 -18 -26 -18 -36 0 -11 -9 -27 -20 -37 -11 -10 -20 -22 -20 -26 0
-12 -19 -52 -40 -84 -11 -16 -29 -49 -40 -71 -11 -23 -27 -47 -36 -55 -9 -7
-27 -37 -40 -66 -12 -29 -28 -53 -33 -53 -6 0 -11 -6 -11 -13 0 -8 -8 -22 -19
-31 -10 -9 -21 -30 -25 -47 -3 -17 -12 -29 -21 -29 -8 0 -15 -4 -15 -10 0 -8
-57 -98 -71 -110 -3 -3 -20 -26 -39 -52 -18 -27 -37 -48 -42 -48 -4 0 -8 -7
-8 -15 0 -8 -7 -23 -15 -32 -9 -10 -28 -32 -43 -49 -55 -63 -113 -130 -133
-154 -11 -14 -50 -56 -86 -95 -36 -38 -72 -80 -81 -92 -8 -13 -21 -23 -28 -23
-8 0 -14 -4 -14 -9 0 -12 -59 -71 -71 -71 -5 0 -9 -4 -9 -9 0 -11 -53 -64
-150 -151 -90 -81 -145 -131 -190 -176 -20 -18 -39 -34 -43 -34 -4 0 -15 -8
-25 -17 -26 -26 -121 -106 -146 -122 -12 -8 -27 -23 -34 -33 -7 -10 -22 -18
-33 -18 -10 0 -19 -6 -19 -12 0 -7 -14 -22 -30 -33 -16 -11 -30 -23 -30 -27 0
-5 -7 -8 -16 -8 -8 0 -27 -14 -41 -30 -13 -17 -31 -30 -38 -30 -7 0 -19 -7
-26 -16 -8 -9 -30 -27 -49 -39 -19 -12 -46 -34 -60 -48 -14 -15 -32 -27 -41
-27 -9 0 -22 -7 -29 -15 -7 -8 -19 -15 -26 -15 -8 0 -14 -4 -14 -10 0 -5 -7
-10 -15 -10 -8 0 -15 -4 -15 -10 0 -5 -13 -16 -29 -25 -16 -8 -35 -20 -43 -27
-7 -8 -36 -28 -65 -46 -28 -18 -57 -40 -63 -48 -7 -7 -20 -14 -29 -14 -10 0
-28 -11 -41 -25 -13 -14 -28 -25 -33 -25 -5 0 -28 -13 -52 -29 -23 -16 -72
-45 -109 -66 -36 -20 -66 -41 -66 -46 0 -5 -6 -9 -13 -9 -7 0 -35 -15 -62 -33
-28 -18 -65 -39 -82 -46 -18 -8 -33 -17 -33 -22 0 -5 -7 -9 -16 -9 -8 0 -30
-11 -48 -25 -18 -14 -38 -25 -45 -25 -12 0 -62 -29 -71 -42 -3 -3 -34 -20 -68
-37 -35 -16 -71 -35 -80 -43 -22 -17 -49 -32 -125 -69 -34 -17 -75 -38 -92
-46 -16 -9 -39 -21 -50 -26 -11 -6 -27 -14 -35 -18 -64 -35 -381 -184 -422
-199 -21 -8 -38 -18 -38 -22 0 -4 -6 -8 -13 -8 -7 0 -40 -13 -72 -30 -32 -16
-67 -30 -76 -30 -10 0 -21 -4 -24 -10 -3 -6 -17 -10 -31 -10 -13 0 -24 -4 -24
-8 0 -9 -200 -102 -220 -102 -5 0 -35 -12 -67 -26 -66 -30 -71 -32 -173 -73
-41 -17 -80 -31 -87 -31 -7 0 -13 -4 -13 -9 0 -4 -21 -14 -47 -21 -27 -7 -59
-19 -73 -27 -50 -27 -487 -184 -690 -249 -41 -13 -113 -36 -160 -52 -47 -16
-112 -37 -145 -46 -33 -10 -69 -21 -80 -27 -18 -8 -94 -31 -255 -75 -30 -8
-64 -19 -75 -24 -11 -5 -47 -17 -80 -26 -93 -24 -185 -51 -240 -68 -49 -15
-290 -78 -545 -142 -36 -9 -74 -20 -85 -24 -11 -5 -36 -11 -55 -13 -19 -3 -69
-15 -110 -27 -41 -12 -113 -29 -160 -39 -47 -10 -139 -31 -205 -46 -66 -15
-142 -31 -169 -36 -26 -4 -62 -12 -80 -18 -17 -5 -85 -19 -151 -31 -66 -12
-154 -30 -195 -40 -41 -10 -104 -23 -140 -29 -36 -6 -123 -23 -195 -37 -71
-14 -157 -29 -190 -33 -33 -5 -100 -16 -150 -25 -116 -21 -292 -51 -425 -72
-58 -8 -139 -22 -181 -30 -42 -8 -101 -14 -133 -14 -31 0 -64 -4 -74 -9 -16
-9 -304 -48 -522 -71 -52 -5 -126 -14 -165 -20 -96 -14 -348 -40 -655 -69
-362 -35 -446 -42 -640 -56 -118 -8 -246 -18 -285 -20 -154 -11 -659 -36 -810
-40 -88 -3 -187 -7 -220 -10 -33 -3 -152 -5 -264 -5 -187 -1 -205 -2 -230 -21
-24 -17 -31 -18 -54 -8 -15 7 -27 15 -27 18 0 3 -174 5 -387 3 -396 -4 -1152
11 -1458 28 -267 15 -543 30 -750 40 -169 8 -480 31 -620 45 -27 3 -99 10
-160 15 -173 17 -558 58 -690 75 -66 8 -163 20 -215 25 -52 5 -124 14 -160 20
-66 10 -147 22 -280 39 -41 6 -136 19 -210 31 -74 11 -169 25 -210 30 -75 11
-340 53 -435 70 -27 5 -81 14 -120 20 -38 7 -113 20 -165 30 -52 11 -135 27
-185 36 -107 20 -124 23 -325 63 -85 16 -209 42 -275 56 -66 14 -142 30 -170
35 -27 4 -61 13 -75 18 -14 6 -54 16 -90 22 -36 7 -99 22 -140 33 -41 11 -102
26 -135 33 -73 15 -179 41 -220 54 -16 5 -57 14 -90 19 -32 6 -64 16 -69 21
-6 6 -19 10 -30 10 -11 0 -33 4 -50 10 -17 5 -69 19 -116 32 -47 12 -86 26
-88 30 -2 5 -12 8 -23 8 -27 0 -226 48 -269 65 -19 7 -75 25 -125 40 -169 49
-230 67 -300 90 -38 13 -178 58 -310 100 -132 42 -253 82 -270 89 -16 7 -68
25 -115 40 -47 16 -98 35 -115 42 -16 7 -55 22 -85 33 -62 22 -175 64 -205 76
-11 5 -42 17 -70 27 -27 10 -59 23 -70 27 -11 5 -54 22 -95 36 -74 27 -106 40
-174 70 -19 8 -37 15 -40 15 -4 0 -39 15 -79 34 -40 18 -101 45 -137 59 -36
14 -87 37 -115 50 -27 13 -67 30 -87 36 -21 7 -38 17 -38 22 0 5 -9 9 -19 9
-11 0 -22 4 -25 9 -3 5 -17 12 -31 15 -15 4 -78 31 -141 61 -63 30 -119 55
-125 55 -5 0 -9 5 -9 10 0 6 -6 10 -12 10 -7 0 -103 45 -213 100 -110 55 -205
100 -211 100 -5 0 -19 8 -30 18 -27 24 -185 102 -207 102 -9 0 -17 6 -17 13 0
8 -18 20 -40 27 -22 7 -40 19 -40 27 0 7 -9 13 -19 13 -11 0 -22 4 -26 9 -3 5
-19 12 -35 16 -17 4 -30 11 -30 16 0 5 -11 11 -25 15 -14 3 -25 9 -25 13 0 4
-25 20 -56 36 -31 16 -58 35 -61 42 -3 8 -12 12 -21 8 -8 -3 -18 -2 -21 2 -11
14 -65 49 -106 68 -22 10 -56 31 -76 47 -20 15 -44 28 -53 28 -9 0 -16 5 -16
10 0 6 -7 10 -16 10 -9 0 -25 11 -36 25 -11 14 -24 25 -29 25 -5 0 -32 18 -61
40 -29 22 -61 40 -70 40 -10 0 -18 5 -18 11 0 14 -38 47 -72 62 -15 7 -42 26
-61 42 -18 17 -40 35 -49 40 -45 29 -79 54 -134 97 -34 26 -65 48 -68 48 -4 0
-25 16 -46 37 -22 20 -54 44 -70 54 -17 10 -30 23 -30 29 0 5 -6 10 -14 10 -8
0 -16 3 -18 8 -1 4 -37 36 -78 71 -41 36 -76 68 -78 73 -2 4 -9 8 -17 8 -7 0
-32 19 -57 43 -24 23 -84 78 -133 122 -122 110 -325 314 -325 326 0 5 -11 14
-25 19 -14 5 -28 18 -32 27 -4 10 -26 37 -50 61 -24 23 -43 46 -43 50 0 4 -21
30 -46 57 -25 28 -52 62 -61 77 -9 14 -27 31 -40 37 -13 6 -21 15 -18 21 3 5
-3 17 -15 27 -11 10 -20 21 -20 25 0 5 -8 16 -17 26 -10 11 -27 31 -37 46 -11
14 -29 37 -40 50 -12 14 -43 61 -71 105 -27 44 -55 80 -60 80 -6 1 -23 27 -38
59 -30 63 -45 89 -66 111 -8 8 -20 31 -28 50 -8 19 -25 49 -38 65 -12 17 -29
49 -36 71 -8 22 -16 42 -19 45 -11 11 -38 62 -65 125 -10 22 -22 47 -26 55
-24 43 -48 99 -54 125 -8 35 -13 49 -49 126 -14 31 -26 61 -26 68 0 7 -11 37
-25 67 -16 35 -25 73 -25 104 0 28 -4 50 -10 50 -5 0 -10 -18 -10 -39z"/>
</g>
</svg>
