<?xml version="1.0" standalone="no"?>
<!DOCTYPE svg PUBLIC "-//W3C//DTD SVG 20010904//EN"
 "http://www.w3.org/TR/2001/REC-SVG-20010904/DTD/svg10.dtd">
<svg version="1.0" xmlns="http://www.w3.org/2000/svg"
 width="2485.000000pt" height="3371.000000pt" viewBox="0 0 2485.000000 3371.000000"
 preserveAspectRatio="xMidYMid meet">
<metadata>
Created by potrace 1.16, written by Peter Selinger 2001-2019
</metadata>
<g transform="translate(0.000000,3371.000000) scale(0.100000,-0.100000)"
fill="#000000" stroke="none">
<path d="M11774 30605 c-4 -8 -14 -15 -24 -15 -11 0 -22 -5 -25 -10 -4 -6 -23
-21 -43 -34 -21 -13 -50 -35 -65 -50 -15 -14 -31 -26 -35 -26 -15 -1 -62 -50
-62 -65 0 -8 -4 -15 -10 -15 -5 0 -10 -9 -10 -19 0 -11 -4 -22 -8 -25 -8 -5
-37 -92 -95 -281 -14 -44 -28 -102 -32 -130 -3 -27 -24 -97 -44 -155 -21 -58
-44 -136 -51 -175 -13 -67 -30 -109 -30 -72 0 9 -4 17 -10 17 -5 0 -10 18 -10
40 0 22 -4 40 -8 40 -4 0 -13 44 -19 98 -6 53 -20 151 -32 217 -24 145 -35
210 -62 378 -21 138 -46 256 -57 274 -4 7 -22 8 -47 4 -39 -6 -40 -7 -46 -56
-7 -58 -45 -253 -59 -306 -6 -20 -10 -56 -10 -80 0 -24 -7 -71 -15 -105 -12
-50 -36 -215 -62 -414 -2 -19 -8 -44 -13 -55 -5 -11 -11 -42 -14 -70 -3 -27
-9 -77 -15 -110 -6 -33 -13 -90 -17 -127 -4 -38 -11 -68 -15 -68 -5 0 -9 5 -9
10 0 6 -9 10 -20 10 -11 0 -20 4 -20 9 0 5 -10 13 -22 17 -25 8 -258 236 -258
253 0 6 -4 11 -9 11 -4 0 -24 13 -42 30 -19 16 -41 30 -49 30 -8 0 -27 11 -42
25 -15 14 -30 25 -32 25 -22 0 -287 276 -315 328 -6 11 -36 51 -68 89 -87 106
-97 120 -114 171 -11 33 -22 48 -36 50 -19 3 -20 -1 -16 -45 6 -53 33 -143 73
-235 5 -13 24 -61 41 -108 18 -47 36 -86 41 -88 4 -2 8 -11 8 -20 1 -34 176
-353 227 -413 7 -8 13 -23 13 -31 0 -9 4 -18 8 -20 4 -1 18 -20 31 -40 12 -21
27 -38 32 -38 5 0 9 -7 9 -15 0 -15 44 -99 65 -125 7 -8 15 -28 19 -45 6 -30
6 -30 -11 -9 -10 11 -22 22 -28 23 -28 9 -41 16 -51 25 -6 6 -26 22 -43 36
-17 14 -40 33 -52 42 -12 10 -30 20 -40 23 -11 4 -19 11 -19 16 0 5 -6 9 -12
9 -7 0 -25 10 -40 23 -15 12 -46 33 -69 47 -23 14 -56 37 -73 52 -17 15 -35
28 -39 28 -5 0 -23 11 -40 24 -18 13 -52 34 -77 47 -25 13 -55 34 -68 47 -13
12 -27 22 -32 22 -5 0 -15 6 -22 13 -28 25 -59 37 -97 37 -23 0 -41 5 -44 13
-7 18 -131 65 -194 73 -54 7 -123 -1 -123 -15 0 -14 94 -113 135 -141 22 -15
55 -42 72 -59 18 -17 35 -31 38 -31 2 0 25 -20 51 -46 54 -52 128 -114 137
-114 3 0 31 -25 62 -55 31 -30 70 -63 86 -72 16 -10 29 -21 29 -25 0 -4 4 -8
10 -8 9 0 28 -13 64 -45 6 -5 38 -30 71 -55 33 -25 62 -48 63 -52 2 -5 9 -8
15 -9 7 0 23 -14 36 -30 l23 -30 -27 5 c-14 3 -43 15 -63 26 -19 12 -58 24
-86 27 -28 4 -57 12 -64 20 -7 7 -23 13 -36 13 -12 0 -27 5 -33 11 -6 6 -40
15 -75 20 -95 12 -132 21 -139 31 -3 5 -43 9 -89 9 -49 0 -95 5 -116 14 -32
13 -34 13 -34 -6 0 -11 -6 -22 -14 -25 -22 -8 -27 -32 -13 -56 6 -11 39 -46
71 -77 33 -31 68 -64 78 -73 10 -10 21 -18 26 -18 4 0 47 -41 96 -90 l89 -90
61 0 c34 0 131 4 216 10 752 48 1011 58 1765 71 383 6 600 14 660 23 l90 13
-132 2 c-73 0 -133 5 -133 10 0 5 7 14 16 22 8 7 32 47 51 88 20 42 40 78 45
80 14 5 68 128 68 154 0 11 6 28 13 36 7 9 22 43 31 76 10 33 22 68 27 77 5
10 9 27 9 38 0 11 4 20 8 20 5 0 14 18 21 40 6 22 16 40 20 40 5 0 11 8 14 18
4 9 13 35 21 57 33 86 14 110 -87 110 -47 0 -72 -4 -74 -12 -3 -7 -11 -13 -19
-13 -13 0 -52 -18 -64 -30 -18 -18 -72 -50 -85 -50 -8 0 -15 -8 -15 -18 0 -23
-19 -42 -42 -42 -10 0 -18 -6 -18 -12 0 -7 -26 -34 -58 -60 -83 -69 -199 -190
-203 -213 -3 -11 -12 -21 -21 -23 -15 -3 -16 14 -11 214 4 124 1 347 -7 523
-14 328 -9 395 31 504 11 29 22 60 26 70 3 9 13 17 23 17 42 0 73 103 50 164
-11 29 -47 36 -56 11z"/>
<path d="M14475 30036 c-22 -8 -69 -17 -104 -20 -36 -3 -75 -13 -87 -21 -13
-8 -31 -15 -41 -15 -10 0 -31 -7 -48 -16 -16 -9 -52 -22 -80 -29 -56 -15 -105
-36 -150 -65 -16 -10 -37 -19 -46 -19 -8 -1 -25 -14 -37 -31 -14 -18 -32 -30
-46 -30 -33 0 -84 -28 -103 -56 -8 -13 -21 -24 -28 -24 -15 0 -55 -20 -75 -38
-8 -7 -48 -36 -88 -65 -40 -29 -92 -66 -115 -84 -23 -17 -47 -32 -53 -32 -6
-1 -17 -15 -24 -31 -12 -28 -39 -50 -82 -66 -10 -3 -18 -13 -18 -20 0 -8 -11
-19 -25 -24 -14 -5 -25 -17 -25 -26 0 -9 -43 -58 -95 -109 -52 -51 -95 -97
-95 -102 0 -6 -8 -17 -19 -27 -10 -9 -26 -34 -36 -56 -10 -22 -22 -40 -27 -40
-4 0 -8 -6 -8 -13 0 -8 -17 -40 -38 -73 -21 -32 -46 -76 -55 -96 -10 -20 -28
-50 -42 -66 -13 -15 -27 -42 -31 -58 -4 -16 -11 -37 -16 -48 -8 -15 -12 -16
-19 -5 -7 11 -46 14 -201 12 -124 -1 -194 -6 -196 -13 -4 -12 -82 -14 -82 -1
0 5 -53 7 -117 5 -65 -2 -311 -4 -548 -5 -236 0 -461 -5 -500 -10 -38 -6 -146
-10 -239 -10 -100 0 -177 -4 -189 -10 -14 -8 -18 -8 -13 0 5 7 -2 11 -18 11
-14 0 -27 -4 -30 -9 -4 -5 -70 -9 -149 -9 -78 0 -194 -5 -257 -11 -63 -6 -155
-11 -205 -11 -49 0 -137 -4 -195 -10 -141 -13 -500 -40 -630 -47 -58 -3 -106
-9 -108 -14 -2 -5 -29 -9 -60 -9 -108 0 -191 -12 -185 -26 4 -10 -23 -13 -124
-12 -151 0 -166 -1 -133 -12 17 -5 2 -8 -48 -7 -42 0 -78 -5 -84 -11 -7 -7
-48 -12 -103 -12 -50 0 -169 -7 -265 -15 -96 -8 -222 -16 -280 -18 -67 -3
-106 -9 -108 -16 -5 -14 -123 -4 -134 12 -4 7 -40 6 -110 -2 -56 -7 -123 -14
-148 -17 -25 -2 -67 -5 -95 -8 -27 -2 -119 -7 -203 -11 -127 -7 -155 -6 -163
6 -7 12 -12 12 -31 0 -14 -9 -53 -15 -98 -16 -41 -1 -106 -8 -145 -14 -38 -7
-92 -14 -120 -15 -162 -8 -405 -30 -405 -37 0 -6 -39 -10 -212 -23 -21 -1 -41
-5 -44 -9 -9 -8 -44 15 -44 30 0 16 -58 122 -85 155 -13 15 -33 48 -45 73 -12
26 -29 49 -36 52 -8 3 -14 16 -14 29 0 13 -6 24 -12 24 -7 0 -22 14 -33 30
-11 16 -23 30 -27 30 -5 0 -8 5 -8 11 0 6 -11 20 -25 31 -14 11 -25 28 -25 39
0 10 -6 19 -12 19 -7 0 -40 26 -73 59 -64 63 -147 112 -260 154 -53 20 -92 27
-160 29 -94 3 -264 -23 -275 -43 -8 -12 -58 -39 -72 -39 -13 0 -58 -47 -58
-61 0 -5 -12 -21 -27 -35 l-28 -25 95 7 c111 8 201 6 250 -6 160 -40 254 -88
344 -175 60 -58 133 -144 160 -189 11 -17 34 -53 52 -81 42 -64 94 -159 143
-260 51 -106 91 -194 91 -201 0 -3 11 -29 24 -57 13 -29 36 -83 51 -122 15
-38 31 -79 35 -90 17 -41 83 -243 105 -320 72 -251 115 -456 120 -574 2 -42 8
-77 15 -81 7 -4 16 -41 21 -81 11 -97 11 -101 -1 -94 -6 4 -10 -14 -10 -46 0
-46 2 -50 13 -35 12 17 14 16 25 -8 10 -23 9 -26 -8 -26 -11 0 -20 -9 -23 -22
l-4 -23 -2 23 c-2 39 -21 24 -21 -18 0 -22 5 -40 10 -40 6 0 10 -10 11 -22 1
-22 1 -22 9 2 7 21 8 19 9 -17 1 -24 -3 -43 -9 -43 -15 0 -12 -47 4 -53 10 -4
12 -19 8 -56 -3 -34 -1 -51 7 -51 8 0 11 -48 11 -159 0 -98 4 -161 10 -163 6
-2 8 -27 4 -66 -5 -40 -10 -59 -15 -50 -5 7 -7 24 -4 38 3 14 1 39 -4 55 -9
29 -9 30 -10 4 -1 -14 -4 -46 -7 -71 -5 -32 -2 -48 8 -59 11 -11 13 -21 6 -39
-7 -20 -11 -22 -19 -10 -7 11 -10 8 -8 -15 3 -70 -1 -105 -14 -105 -13 0 -40
-66 -52 -127 -4 -19 -13 -33 -21 -33 -10 0 -14 -12 -14 -40 0 -24 5 -40 12
-40 7 0 -5 -17 -25 -38 -21 -21 -35 -41 -31 -44 8 -9 -15 -78 -27 -78 -5 0 -9
-18 -9 -40 0 -22 -4 -40 -8 -40 -4 0 -14 -16 -21 -36 -10 -29 -11 -38 -1 -44
10 -6 10 -9 0 -15 -7 -4 -16 -1 -21 6 -6 9 -9 0 -9 -28 0 -29 -4 -43 -13 -43
-15 0 -37 -55 -37 -93 0 -17 -5 -27 -15 -27 -8 0 -15 -5 -15 -12 0 -28 -46
-107 -62 -108 -10 0 -18 -5 -18 -11 0 -6 9 -8 20 -4 15 5 20 2 20 -14 0 -11
-9 -22 -21 -26 -12 -4 -18 -12 -15 -21 3 -8 -3 -22 -13 -31 -10 -10 -23 -28
-30 -40 -7 -15 -17 -20 -27 -16 -13 5 -15 2 -10 -15 6 -16 2 -21 -16 -24 -15
-2 -24 -11 -26 -25 -2 -11 -21 -33 -43 -48 -21 -15 -39 -32 -39 -36 0 -14 -28
-11 -34 4 -3 6 -4 3 -3 -8 1 -12 -5 -21 -18 -23 -11 -3 -30 -13 -43 -23 -22
-17 -165 -39 -202 -30 -8 1 -33 4 -55 6 -22 2 -51 6 -64 11 l-24 7 7 -94 c4
-51 11 -96 15 -99 5 -3 12 -76 16 -162 5 -115 11 -158 20 -158 17 0 25 -91 25
-301 0 -104 4 -179 10 -181 5 -1 14 -73 20 -158 6 -85 15 -156 20 -158 18 -6
11 -86 -10 -112 -11 -14 -20 -31 -20 -37 0 -7 -4 -13 -10 -13 -5 0 -10 -7 -10
-16 0 -8 -7 -22 -16 -31 -8 -9 -13 -22 -9 -31 7 -18 -13 -82 -26 -82 -5 0 -9
-18 -9 -40 0 -22 -5 -40 -11 -40 -23 0 6 -382 31 -400 4 -3 10 -39 12 -80 3
-41 11 -76 17 -78 7 -2 11 -51 11 -150 0 -81 7 -194 16 -252 8 -58 21 -163 29
-235 7 -71 25 -222 40 -335 14 -113 29 -229 32 -257 3 -29 10 -53 14 -53 5 0
9 -18 9 -40 0 -22 5 -40 10 -40 6 0 10 -47 10 -120 0 -119 0 -120 23 -120 23
0 24 -5 41 -152 20 -180 23 -291 15 -643 -5 -214 -9 -267 -23 -299 -14 -31
-16 -54 -11 -112 l7 -74 -26 0 c-24 0 -26 -4 -26 -40 0 -22 4 -40 9 -40 5 0
23 -14 40 -31 24 -23 31 -40 31 -68 0 -20 5 -42 12 -49 9 -9 9 -12 0 -12 -8 0
-12 -28 -12 -96 l0 -95 -27 3 c-23 3 -29 10 -40 53 -7 31 -9 51 -3 53 13 5 13
82 1 82 -5 0 -12 12 -14 28 -2 15 -4 -40 -5 -123 0 -82 3 -141 7 -131 7 18 8
18 14 3 4 -11 18 -17 37 -17 17 0 30 -5 30 -12 0 -10 3 -9 9 1 5 7 6 31 4 52
-6 39 -6 39 30 39 l35 0 1 -93 c0 -52 3 -106 6 -120 5 -18 3 -27 -5 -27 -7 0
-25 -14 -40 -30 -23 -25 -32 -29 -52 -21 -12 4 -24 18 -26 30 -3 17 -10 21
-43 21 l-39 0 0 -80 c0 -73 2 -80 20 -80 11 0 20 -3 20 -6 0 -11 -29 -34 -44
-34 -9 0 -16 -4 -16 -10 0 -5 -18 -10 -40 -10 -22 0 -40 -4 -40 -10 0 -5 11
-10 24 -10 19 0 26 -7 31 -30 4 -17 10 -30 15 -30 7 0 15 -77 25 -245 1 -27 5
-75 9 -105 3 -30 8 -95 11 -143 3 -49 8 -94 12 -100 17 -27 33 -86 39 -147 6
-55 43 -182 58 -197 2 -3 32 -7 65 -10 34 -3 61 -10 61 -14 0 -5 -5 -9 -11 -9
-5 0 -8 -4 -5 -8 2 -4 1 -14 -4 -22 -11 -17 6 -40 29 -40 9 0 25 -11 35 -25
10 -14 29 -25 42 -25 12 0 36 -11 52 -25 17 -14 35 -25 41 -25 6 0 11 -5 11
-10 0 -6 17 -18 38 -28 20 -9 46 -27 57 -38 11 -12 37 -27 57 -34 21 -6 40
-16 43 -21 4 -5 15 -9 26 -9 10 0 19 -4 19 -10 0 -5 8 -10 18 -10 10 0 22 -4
28 -9 12 -12 124 -41 158 -41 32 0 116 -36 116 -50 0 -6 6 -10 13 -10 8 0 36
-11 63 -25 27 -14 57 -25 66 -25 9 0 18 -4 20 -9 7 -21 380 -131 442 -131 13
0 26 -3 30 -7 16 -17 302 -60 476 -73 140 -10 189 -18 191 -31 1 -5 2 -14 3
-21 2 -21 66 -30 211 -29 148 0 359 -27 425 -55 94 -40 148 -45 575 -54 413
-9 521 -16 547 -37 30 -23 138 -36 236 -27 110 9 109 9 547 -4 533 -16 1435 0
1680 29 180 22 211 22 261 5 86 -29 378 -12 437 26 31 21 168 30 241 17 63
-12 135 -8 451 25 77 9 214 20 305 26 91 6 244 17 340 25 96 9 234 20 305 26
82 6 141 16 160 26 19 10 83 21 170 29 77 7 167 17 200 23 33 5 107 17 165 26
58 9 121 20 141 26 24 6 87 6 175 -1 318 -23 701 -23 1034 0 332 22 523 40
680 65 52 8 122 17 155 20 176 18 327 51 373 81 25 16 89 36 182 56 30 6 57
15 60 18 3 4 25 10 50 13 45 5 72 13 165 50 109 42 111 82 6 117 -24 8 -49 19
-55 25 -19 17 -49 34 -88 51 -21 9 -38 22 -38 29 0 13 73 45 103 45 9 0 17 4
17 8 0 5 18 15 40 22 22 7 40 17 40 22 0 4 6 8 13 8 17 0 67 23 67 32 0 3 -12
25 -27 47 -21 33 -34 43 -65 47 -53 9 -56 21 -11 40 95 42 139 62 181 83 9 5
50 23 90 42 39 18 72 36 72 41 0 4 9 8 19 8 10 0 21 6 24 14 3 8 20 17 37 21
17 4 36 15 43 26 6 10 15 19 19 19 6 0 28 17 89 70 31 27 59 113 59 184 0 59
-22 146 -37 146 -7 0 -13 6 -13 13 0 25 -25 67 -40 67 -9 0 -24 14 -34 31 -10
16 -34 45 -53 62 -19 18 -48 44 -64 59 -16 16 -34 28 -39 28 -17 0 -90 34 -90
42 0 4 -17 10 -37 14 -21 4 -40 10 -43 13 -8 11 -164 71 -183 71 -9 0 -19 5
-22 10 -3 6 -17 10 -31 10 -14 0 -39 7 -55 16 -17 8 -37 13 -45 10 -22 -8 -40
38 -27 67 29 61 43 97 43 111 0 9 7 16 15 16 8 0 15 6 15 14 0 8 7 21 15 29
17 18 53 75 61 100 4 9 13 17 20 17 8 0 14 6 14 14 0 24 57 150 79 174 23 26
28 52 10 52 -7 0 -9 11 -5 31 4 20 -3 62 -19 116 -19 66 -32 91 -57 114 -91
83 -166 108 -320 109 -97 0 -211 -21 -233 -44 -6 -6 -17 -32 -24 -58 -8 -27
-18 -48 -23 -48 -6 0 -7 7 -4 16 3 9 7 50 8 92 1 65 2 70 7 32 3 -25 6 32 6
125 0 105 7 221 18 303 9 74 17 160 17 193 0 33 4 59 10 59 6 0 10 24 10 54 0
30 -4 58 -10 61 -5 3 -10 15 -10 26 0 16 -7 19 -41 19 l-41 0 7 878 c7 1089 7
776 0 2645 -4 945 -2 1597 3 1597 5 0 12 96 16 213 4 116 11 307 17 422 5 116
12 272 15 348 4 75 10 137 15 137 5 0 9 141 9 320 0 267 2 320 14 320 11 0 15
34 20 168 3 92 19 282 36 422 17 140 30 281 30 313 0 31 4 57 10 57 6 0 10 33
10 80 0 64 3 80 15 80 12 0 15 12 14 53 0 28 -3 46 -6 40 -8 -21 -18 -16 -66
32 -26 25 -53 45 -62 45 -8 0 -15 4 -15 8 0 4 -21 13 -47 20 -27 7 -61 19 -78
27 -38 17 -124 35 -318 65 -32 5 -65 14 -73 21 -35 29 -34 -9 3 -166 42 -174
51 -231 59 -357 5 -81 4 -108 -5 -108 -8 0 -11 16 -10 48 3 76 -6 92 -52 92
-21 0 -39 5 -39 10 0 6 -18 10 -40 10 l-40 0 0 50 0 50 -40 0 c-22 0 -40 -4
-40 -10 0 -5 -18 -10 -40 -10 l-40 0 0 -40 0 -40 -80 0 -80 0 0 40 0 40 -240
0 c-153 0 -240 4 -240 10 0 6 -18 10 -40 10 -22 0 -40 -4 -40 -10 0 -5 -18
-10 -40 -10 -40 0 -40 0 -40 -39 0 -39 1 -40 38 -43 20 -2 -16 -2 -80 1 l-118
4 0 -81 c0 -70 3 -82 17 -82 15 0 15 -1 0 -18 -20 -22 -22 -58 -4 -65 6 -3 -7
-2 -30 0 l-43 6 0 -42 0 -41 -90 0 -90 0 0 -40 0 -40 -80 0 -80 0 0 -40 0 -40
40 0 40 0 0 -40 0 -40 100 0 100 0 0 -80 c0 -73 -2 -80 -20 -80 -17 0 -20 -7
-20 -40 l0 -40 50 0 50 0 0 -40 c0 -38 2 -40 30 -40 17 0 30 5 30 11 0 5 5 7
10 4 6 -3 10 -19 10 -36 0 -16 -4 -29 -10 -29 -5 0 -10 -7 -10 -15 0 -8 7 -15
15 -15 8 0 15 5 15 10 0 6 11 10 25 10 14 0 25 -4 25 -10 0 -5 18 -10 40 -10
38 0 40 -2 40 -30 0 -28 2 -30 40 -30 22 0 40 -4 40 -10 0 -5 18 -10 40 -10
l40 0 0 -40 0 -40 120 0 120 0 0 80 0 80 -40 0 -40 0 0 40 c0 22 -4 40 -10 40
-12 0 -12 67 0 95 7 17 9 17 9 3 1 -15 11 -18 61 -18 l60 0 0 -40 c0 -33 3
-40 20 -40 19 0 20 7 20 120 l0 120 80 0 80 0 0 -80 0 -80 40 0 40 0 0 40 0
40 40 0 40 0 0 -40 0 -40 80 0 80 0 0 -160 0 -160 46 0 46 0 -5 -62 c-3 -35
-3 -53 -1 -40 3 12 10 22 15 22 5 0 12 18 15 40 4 24 12 40 20 40 17 0 18 6
-11 -120 -32 -144 -44 -188 -54 -208 -5 -9 -19 -51 -31 -92 -13 -41 -27 -83
-31 -92 -5 -10 -9 -25 -9 -33 0 -8 -4 -15 -9 -15 -5 0 -17 -24 -27 -52 -9 -29
-20 -57 -24 -63 -4 -5 -11 -24 -14 -42 -4 -17 -14 -34 -22 -37 -8 -3 -14 -12
-14 -21 0 -13 -36 -90 -69 -145 -5 -8 -17 -32 -27 -53 -11 -21 -26 -46 -34
-55 -8 -10 -26 -37 -39 -62 -13 -25 -32 -54 -42 -65 -10 -11 -40 -55 -68 -97
-27 -42 -58 -85 -68 -95 -10 -10 -36 -41 -58 -68 -58 -72 -211 -220 -275 -265
-19 -13 -39 -28 -45 -32 -20 -16 -86 -58 -132 -84 -100 -57 -140 -73 -288
-119 -66 -20 -138 -42 -160 -50 -83 -27 -231 -40 -465 -40 -197 0 -245 3 -295
18 -158 47 -232 72 -250 84 -11 7 -27 13 -35 13 -23 0 -264 123 -291 149 -13
11 -27 21 -32 21 -5 0 -17 8 -26 18 -9 9 -38 35 -66 57 -27 22 -87 76 -133
120 -46 44 -90 81 -98 83 -8 2 -14 9 -14 16 0 7 -11 23 -25 36 -14 13 -25 29
-25 37 0 7 -7 13 -15 13 -9 0 -30 20 -47 45 -18 25 -35 45 -38 45 -9 0 -70 86
-70 99 0 22 19 10 41 -26 32 -52 59 -70 59 -38 0 8 -9 15 -20 15 -17 0 -20 7
-20 41 0 29 -4 40 -12 36 -10 -3 -12 8 -9 40 l3 45 -34 -4 c-31 -3 -34 -2 -30
20 3 13 -2 28 -10 35 -16 13 -13 107 3 107 5 0 9 36 9 80 l0 80 40 0 40 0 0
40 0 40 -40 0 c-22 0 -40 5 -40 10 0 6 18 10 40 10 22 0 40 -4 40 -10 0 -5 18
-10 40 -10 l40 0 0 80 0 80 40 0 40 0 0 80 0 80 40 0 40 0 0 40 0 40 40 0 40
0 0 80 0 80 40 0 40 0 0 40 0 40 -120 0 -120 0 0 40 0 40 -40 0 -40 0 0 40 0
40 -120 0 -120 0 0 40 0 40 -40 0 c-22 0 -40 -4 -40 -10 0 -5 -18 -10 -40 -10
-38 0 -40 2 -40 30 l0 30 -79 0 -80 0 -4 -52 c-2 -29 -4 6 -5 77 -1 72 4 186
10 255 6 69 10 143 9 165 -1 45 23 245 45 375 24 139 64 295 94 365 4 11 27
65 50 120 39 91 115 243 129 255 3 3 15 21 25 40 11 19 22 37 25 40 3 3 32 44
63 91 75 115 226 277 458 494 162 152 459 314 715 392 235 71 314 83 538 83
183 0 258 -11 475 -68 81 -22 165 -42 187 -45 l40 -6 -35 18 c-33 16 -83 47
-105 64 -5 4 -20 15 -32 25 -11 9 -31 24 -43 32 -12 8 -28 21 -36 28 -7 6 -20
12 -28 12 -9 0 -16 5 -16 10 0 6 -6 10 -12 10 -13 0 -139 60 -148 71 -3 3 -48
16 -100 28 -52 12 -111 26 -130 31 -77 20 -305 36 -314 22 -5 -8 -15 -8 -32
-2 -14 6 -26 10 -27 10 -1 -1 -20 -7 -42 -14z m-3983 -7822 c23 -10 51 -36 73
-68 37 -54 41 -66 25 -66 -5 0 -10 6 -10 13 0 15 -40 54 -85 82 -25 16 -48 19
-150 18 l-120 -1 -15 -31 c-8 -17 -19 -31 -24 -31 -11 0 2 51 18 70 7 8 15 22
18 30 5 13 22 14 119 8 71 -4 127 -13 151 -24z m2156 -41 c3 -17 -7 -18 -125
-19 -244 -1 -388 -7 -400 -17 -7 -5 -23 -7 -35 -4 -32 9 -113 -4 -96 -15 8 -5
-8 -6 -39 -2 -39 5 -59 3 -76 -9 -49 -32 -178 -41 -442 -32 -82 4 -245 6 -361
5 -197 0 -212 1 -234 20 -26 23 -52 27 -44 7 3 -8 -2 -20 -10 -27 -14 -11 -16
-7 -13 31 l2 44 50 4 c72 5 537 -18 690 -34 147 -15 223 -17 230 -5 3 4 14 6
24 3 11 -3 30 2 43 11 12 9 36 16 53 16 16 0 87 9 157 19 70 10 182 19 250 20
67 1 124 3 125 4 0 1 57 1 125 0 111 -1 123 -3 126 -20z m-3204 -1934 c76 1
156 -4 215 -14 109 -19 134 -27 164 -55 12 -12 32 -23 45 -27 15 -3 21 -11 18
-20 -5 -11 0 -13 17 -8 14 4 18 3 9 -3 -14 -10 -5 -45 9 -36 5 3 10 -1 10 -8
1 -7 3 -24 4 -38 4 -32 -15 -77 -35 -84 -8 -3 -31 -18 -50 -32 -33 -24 -40
-26 -115 -21 -44 3 -118 13 -165 22 -87 17 -182 24 -326 26 -128 1 -204 -40
-204 -113 0 -28 -4 -38 -16 -38 -15 0 -15 -2 0 -25 9 -13 16 -31 16 -39 0 -19
56 -66 79 -66 9 0 26 -7 37 -15 10 -8 29 -15 41 -15 12 0 24 -4 27 -9 3 -4 38
-16 78 -26 40 -9 80 -23 88 -30 16 -13 116 -39 195 -51 28 -3 74 -15 102 -26
30 -11 63 -17 75 -13 17 4 19 4 9 -3 -11 -8 -4 -15 28 -33 22 -13 41 -30 41
-36 0 -7 8 -13 18 -13 9 0 23 -9 30 -21 7 -11 19 -18 27 -15 15 5 47 -39 60
-84 4 -14 13 -28 19 -32 7 -5 4 -8 -6 -8 -16 0 -18 -10 -18 -79 0 -44 4 -81
10 -83 14 -4 -7 -64 -37 -105 -13 -17 -23 -36 -23 -42 0 -6 -6 -11 -14 -11 -7
0 -19 -7 -26 -15 -20 -25 -100 -64 -160 -80 -78 -20 -307 -20 -414 1 -89 17
-237 51 -276 64 -14 4 -52 14 -85 21 -33 7 -62 16 -65 19 -3 3 -22 16 -42 29
l-38 23 0 96 c0 142 30 180 127 165 23 -4 33 -11 33 -23 0 -15 37 -38 75 -47
22 -5 172 -45 201 -54 17 -5 46 -9 66 -9 25 0 38 -5 42 -17 6 -14 9 -15 16 -3
7 11 11 11 24 1 9 -7 22 -11 30 -8 7 3 31 1 52 -4 22 -5 59 -12 84 -15 24 -2
47 -9 51 -15 10 -17 80 1 106 27 27 27 29 63 7 110 -12 24 -23 34 -40 34 -12
0 -26 5 -29 10 -3 6 -19 10 -35 10 -36 0 -180 33 -263 61 -170 56 -309 130
-382 204 -79 79 -101 110 -122 168 -9 26 -20 47 -25 47 -4 0 -6 46 -5 103 2
94 5 107 35 166 52 98 124 150 209 151 47 0 174 24 216 42 23 9 27 15 22 35
-7 28 2 46 17 37 6 -4 66 -6 132 -5z m-1475 -29 c24 -11 49 -20 56 -20 8 0 17
-9 20 -20 3 -11 13 -27 21 -35 9 -9 17 -36 18 -63 1 -26 7 -57 14 -69 7 -12
12 -30 12 -39 0 -17 -1 -17 -12 -1 -21 29 -17 -113 4 -144 14 -21 19 -22 37
-11 19 11 21 10 21 -9 0 -11 5 -29 10 -40 15 -26 -6 -26 -22 1 -22 35 -39 24
-35 -22 1 -24 6 -49 10 -56 5 -6 12 -33 16 -60 5 -26 21 -87 36 -137 15 -49
33 -108 39 -130 20 -71 98 -132 121 -94 8 11 -22 49 -39 49 -15 1 -56 36 -56
48 0 6 6 13 13 15 9 4 8 8 -3 16 -13 9 -12 11 5 11 27 -1 66 -35 59 -53 -5
-13 23 -33 33 -23 2 2 7 82 10 177 3 124 1 189 -8 227 -10 44 -10 55 1 62 8 5
16 45 21 116 16 198 42 247 141 259 58 7 140 -14 169 -44 27 -28 39 -81 39
-167 0 -68 -3 -84 -15 -84 -11 0 -15 -11 -15 -40 0 -22 -5 -40 -10 -40 -6 0
-10 -23 -10 -52 1 -29 -4 -80 -10 -113 -6 -33 -13 -152 -17 -265 -3 -113 -9
-206 -14 -208 -5 -2 -9 -19 -9 -38 0 -39 -21 -124 -31 -124 -4 0 -13 -21 -20
-46 -8 -25 -22 -50 -31 -55 -10 -5 -18 -21 -18 -34 0 -23 -23 -35 -33 -17 -2
4 -3 2 -1 -4 4 -17 -8 -28 -46 -42 -42 -16 -101 -33 -115 -33 -129 1 -267 95
-326 221 -6 14 -20 42 -30 63 -11 22 -19 49 -19 62 0 13 -7 30 -15 39 -8 8
-15 26 -15 39 0 13 -7 44 -16 68 -25 71 -53 218 -41 222 5 1 3 10 -5 18 -9 8
-23 53 -31 100 -37 196 -44 229 -54 241 -6 7 -16 69 -23 138 -12 121 -12 127
9 170 16 35 31 50 68 67 59 28 86 28 142 3z m5521 -1410 c13 -9 13 -11 0 -20
-8 -5 -27 -10 -41 -10 -15 0 -43 -7 -63 -15 -21 -9 -56 -15 -80 -14 -23 2 -49
-2 -57 -7 -8 -5 -45 -12 -84 -16 -38 -4 -135 -14 -215 -24 -80 -9 -182 -18
-227 -21 -46 -2 -83 -8 -83 -13 0 -4 -39 -11 -87 -15 -111 -8 -176 -28 -193
-59 -14 -28 -53 -51 -69 -42 -6 4 -11 18 -11 32 0 21 3 24 23 19 16 -5 18 -4
8 3 -12 9 -12 15 -1 41 7 18 20 31 30 31 9 0 25 9 35 20 10 11 22 17 27 14 5
-3 17 1 26 9 13 11 66 18 207 27 105 6 244 18 310 26 66 9 143 13 170 10 46
-6 272 17 283 29 9 9 76 5 92 -5z m-6784 -40 c5 0 34 -27 64 -61 30 -33 67
-74 83 -90 15 -17 27 -34 27 -39 0 -4 7 -13 15 -20 27 -23 66 -102 60 -124 -5
-15 -4 -17 3 -8 7 10 14 3 26 -28 18 -46 13 -85 -10 -76 -11 4 -14 -5 -14 -39
l0 -45 -40 0 c-33 0 -40 3 -40 20 0 11 -4 20 -10 20 -5 0 -10 19 -10 43 0 47
-23 81 -66 97 -13 5 -30 25 -39 47 -15 37 -100 133 -117 133 -5 0 -24 16 -43
35 -28 27 -35 42 -35 74 0 42 13 51 77 51 27 0 30 3 25 23 -5 21 -4 21 15 5
11 -10 24 -18 29 -18z m5136 14 c26 -3 46 -10 43 -14 -3 -5 4 -6 15 -3 17 5
20 0 20 -28 0 -24 3 -30 11 -22 16 16 39 5 39 -18 0 -10 7 -19 15 -19 8 0 15
-7 15 -15 0 -8 -6 -15 -14 -15 -8 0 -21 7 -30 15 -11 11 -38 15 -107 15 l-93
0 -38 -37 c-21 -20 -38 -31 -38 -24 0 10 -6 10 -25 -3 -31 -20 -44 -20 -67 1
-22 19 -22 27 -5 45 8 7 18 26 23 41 5 16 23 36 39 45 17 9 32 20 35 24 8 10
81 27 100 22 8 -1 36 -6 62 -10z m-4272 -13 c69 -10 139 -25 155 -32 46 -21
115 -83 115 -103 0 -5 7 -18 17 -28 14 -15 14 -18 1 -18 -8 0 -30 -16 -49 -35
-23 -23 -43 -35 -61 -35 -16 0 -28 4 -28 8 0 12 -40 29 -84 37 -20 4 -36 13
-36 20 0 9 -20 15 -62 18 -35 2 -89 11 -121 20 -94 27 -177 18 -177 -20 -1
-17 -1 -17 -11 -1 -29 51 47 159 125 177 60 13 78 12 216 -8z m1310 -76 c24
-9 29 -14 15 -15 -16 -1 -15 -4 10 -17 41 -21 40 -20 20 -43 -19 -21 -45 -27
-45 -10 0 7 -6 7 -20 0 -10 -6 -47 -13 -82 -16 -49 -4 -60 -3 -48 6 13 10 12
11 -4 6 -12 -4 -37 2 -63 16 -43 23 -59 44 -25 34 10 -4 27 1 38 9 10 8 30 15
45 15 14 0 29 4 35 9 5 5 25 11 44 14 19 2 37 4 40 5 3 0 21 -6 40 -13z m1410
-20 c176 -33 358 -41 530 -25 74 6 138 17 141 22 9 15 135 4 214 -19 53 -14
70 -24 69 -36 -1 -12 6 -17 21 -17 15 0 26 -8 30 -20 3 -11 10 -20 13 -20 4 0
23 -15 43 -34 40 -39 86 -125 94 -176 5 -29 4 -31 -4 -12 -8 16 -19 22 -41 22
-23 0 -40 10 -67 40 -21 22 -46 40 -58 40 -12 0 -25 4 -30 8 -6 5 -36 17 -67
27 -32 11 -58 25 -58 32 0 10 -73 12 -336 13 -237 0 -341 3 -351 11 -13 12
-111 25 -238 34 -153 10 -157 10 -171 30 -11 15 -17 17 -23 7 -5 -9 -11 -5
-19 13 -10 21 -9 27 3 31 8 4 15 12 15 18 0 13 71 32 125 35 17 0 91 -10 165
-24z m-370 -944 c0 -5 8 -12 18 -15 9 -4 30 -14 47 -23 26 -14 50 -15 245 -4
206 12 579 9 602 -5 6 -4 8 2 4 17 -3 13 -3 18 0 12 3 -7 22 -13 43 -13 28 0
43 -7 60 -26 12 -14 20 -28 18 -30 -2 -3 -24 0 -48 5 -23 5 -47 7 -53 4 -11
-8 -248 -16 -413 -15 -68 0 -123 -3 -123 -8 0 -4 -36 -11 -80 -15 -44 -4 -80
-11 -80 -16 0 -13 -147 -11 -173 2 -12 7 -26 18 -30 25 -4 8 -15 14 -23 14 -8
0 -13 4 -9 9 3 6 -4 19 -16 30 -14 13 -19 26 -14 40 6 21 25 30 25 12z m-1621
-219 c-7 -59 -13 -129 -14 -157 -6 -168 -25 -273 -46 -259 -5 3 -23 -6 -40
-20 -35 -30 -56 -32 -78 -11 -9 9 -31 28 -50 44 -30 25 -33 31 -24 56 9 27 13
29 69 32 132 6 120 1 132 57 6 28 14 74 17 101 2 28 9 95 15 150 11 106 20
149 27 127 3 -7 -1 -61 -8 -120z m-1504 -479 c-3 -16 -11 -29 -16 -31 -5 -2
-9 -12 -9 -23 0 -29 -44 -108 -89 -161 -20 -23 -32 -28 -70 -28 -39 0 -48 4
-58 25 -10 23 -9 25 13 25 13 0 24 4 24 9 0 5 12 13 28 19 45 15 112 83 139
139 26 57 50 72 38 26z m3213 -424 c44 -21 55 -21 257 -14 288 10 632 11 642
1 14 -13 -29 -36 -69 -36 -26 0 -44 -6 -55 -20 -14 -16 -30 -20 -80 -20 -49 0
-63 -3 -63 -15 0 -12 -16 -15 -80 -15 -44 0 -80 -4 -80 -9 0 -5 -94 -7 -212
-5 -165 2 -221 6 -250 19 -36 15 -52 44 -25 46 6 1 -1 4 -17 8 -17 3 -29 9
-28 14 1 4 2 21 2 37 0 17 2 30 6 30 3 0 26 -10 52 -21z m-408 -166 c0 -5 12
-14 28 -20 15 -7 34 -17 42 -22 60 -39 67 -40 522 -40 317 0 444 3 449 11 4 7
51 12 126 14 65 1 160 6 211 10 66 5 92 4 92 -5 0 -7 -25 -11 -74 -11 -41 0
-85 -4 -98 -9 -13 -5 -83 -11 -157 -15 -73 -3 -138 -9 -143 -12 -15 -10 -848
-4 -890 5 -20 5 -44 16 -53 25 -9 8 -24 21 -33 28 -26 20 -62 69 -62 86 0 10
7 6 20 -11 11 -14 20 -29 20 -34z"/>
<path d="M3648 27020 c-16 -16 -35 -30 -42 -30 -14 0 -44 -225 -32 -237 3 -4
6 12 6 35 l0 42 50 0 50 0 0 -40 c0 -23 -6 -44 -16 -52 -54 -45 -82 -83 -95
-133 -13 -45 -4 -312 10 -329 5 -6 12 -28 16 -48 4 -21 11 -38 16 -38 5 0 9
-7 9 -15 0 -9 13 -24 30 -33 l30 -17 0 -207 0 -208 40 0 40 0 0 -80 c0 -47 4
-80 10 -80 6 0 10 -33 10 -80 l0 -80 30 0 30 0 0 -80 0 -80 45 0 45 0 0 -80 0
-80 35 0 35 0 0 -80 0 -80 45 0 45 0 0 -80 c0 -79 0 -80 25 -80 21 0 25 5 25
28 0 15 5 34 10 42 8 12 10 11 10 -6 0 -13 8 -24 20 -27 11 -3 20 -12 20 -21
0 -9 7 -16 15 -16 10 0 15 -11 16 -32 0 -18 3 -27 6 -20 2 7 22 12 44 12 l39
0 0 60 0 60 -40 0 -40 0 0 40 0 40 40 0 40 0 0 40 0 40 -40 0 -40 0 0 80 0 80
-40 0 -40 0 0 120 0 120 80 0 80 0 0 -40 0 -40 40 0 40 0 0 40 0 40 120 0 120
0 0 80 0 80 40 0 40 0 0 40 0 40 40 0 40 0 0 80 0 80 40 0 40 0 0 40 0 40 -80
0 -80 0 0 40 0 40 40 0 40 0 0 40 0 40 40 0 40 0 0 120 0 120 -40 0 -40 0 0
80 0 80 -40 0 -40 0 0 40 0 40 -80 0 -80 0 0 50 0 50 -40 0 c-22 0 -40 -4 -40
-10 0 -6 -33 -10 -80 -10 l-80 0 0 40 0 40 -80 0 -80 0 0 40 0 40 -40 0 c-33
0 -40 -3 -40 -20 0 -17 -7 -20 -40 -20 -34 0 -40 -3 -40 -21 0 -19 -6 -17 -49
22 -41 37 -49 50 -50 82 -1 20 -5 37 -11 37 -5 0 -10 18 -10 40 0 33 -3 40
-20 40 -11 0 -20 5 -20 10 0 6 -12 22 -27 36 -20 18 -24 27 -15 31 10 4 6 13
-14 34 -39 41 -94 40 -136 -1z"/>
<path d="M3725 23640 l0 -70 58 0 57 0 0 70 0 70 -58 0 -58 0 1 -70z"/>
<path d="M18701 17314 c-16 -19 -32 -84 -21 -84 15 0 -2 -40 -21 -51 -11 -5
-19 -20 -19 -32 0 -13 -7 -32 -15 -43 -19 -25 -19 -34 0 -34 22 0 19 -9 -10
-32 -14 -11 -25 -26 -25 -34 0 -8 -4 -14 -10 -14 -5 0 -10 -19 -11 -42 -1 -32
-3 -37 -8 -20 l-6 24 -19 -21 c-11 -12 -27 -21 -38 -21 -10 0 -18 -7 -18 -15
0 -18 -47 -65 -65 -65 -8 0 -15 -4 -15 -9 0 -5 -14 -23 -31 -40 -17 -17 -35
-31 -40 -31 -5 0 -9 -18 -9 -40 0 -40 0 -40 -39 -40 -22 0 -41 5 -43 12 -3 9
-6 9 -12 0 -4 -7 -2 -12 3 -12 6 0 11 -18 11 -40 l0 -40 -40 0 -40 0 0 -41 0
-40 -197 4 c-109 2 -145 2 -80 0 l117 -4 0 -79 0 -80 -40 0 -40 0 0 -40 0 -40
-80 0 -80 0 0 -80 0 -80 -40 0 -40 0 0 -40 0 -40 -40 0 -40 0 0 -40 0 -40 40
0 40 0 0 -80 0 -80 -40 0 -40 0 0 -240 0 -240 -40 0 -40 0 0 -40 0 -40 40 0
40 0 0 -40 0 -40 -40 0 -40 0 0 -40 0 -40 40 0 40 0 0 -40 0 -40 -40 0 -40 0
0 -40 0 -40 40 0 40 0 0 40 0 40 40 0 40 0 0 -40 0 -40 40 0 40 0 0 -40 0 -40
-40 0 -40 0 0 -120 0 -120 -40 0 -40 0 0 -160 0 -160 -40 0 -40 0 0 -80 0 -80
-120 0 -120 0 0 -40 0 -40 -160 0 -160 0 0 -40 0 -40 -40 0 -40 0 0 40 0 40
-40 0 -40 0 0 -40 0 -40 -120 0 -120 0 0 40 0 40 -160 0 -160 0 0 -40 0 -40
-120 0 -120 0 0 -40 0 -40 -40 0 -40 0 0 -40 0 -40 -160 0 -160 0 0 -40 0 -40
-80 0 -80 0 0 -40 0 -40 -160 0 -160 0 0 -40 0 -40 -120 0 -120 0 0 -40 0 -40
-160 0 -160 0 0 -40 0 -40 -120 0 -120 0 0 -40 0 -40 -120 0 -120 0 0 -40 0
-40 -40 0 -40 0 0 -40 0 -40 -80 0 -80 0 0 -40 0 -40 -40 0 -40 0 0 -40 0 -40
-40 0 -40 0 0 -40 c0 -36 -2 -40 -25 -40 -22 0 -25 -4 -25 -40 l0 -40 -55 0
-55 0 0 -39 c0 -39 1 -40 38 -44 20 -2 2 -2 -40 1 l-78 4 0 -41 0 -41 -40 0
-40 0 0 -40 0 -40 -40 0 -40 0 0 -40 c0 -33 3 -40 20 -40 23 0 26 -10 8 -28
-18 -18 -28 -15 -28 8 0 18 -7 20 -80 20 l-80 0 0 -79 c0 -54 4 -81 13 -84 7
-2 8 -8 3 -13 -5 -5 -11 -4 -13 4 -3 7 -22 12 -44 12 -39 0 -39 0 -39 -40 0
-22 5 -40 10 -40 6 0 10 -4 10 -9 0 -4 -22 -6 -50 -3 l-50 5 0 -37 c0 -32 -3
-36 -25 -36 -22 0 -25 -4 -25 -40 0 -29 -4 -40 -15 -40 -11 0 -15 11 -15 40
l0 40 -40 0 -40 0 0 -80 0 -80 -40 0 c-40 0 -40 0 -40 -39 0 -22 5 -41 13 -44
7 -2 8 -8 3 -13 -5 -5 -11 -4 -13 4 -3 7 -22 12 -44 12 -39 0 -39 0 -39 -39 0
-22 5 -41 13 -44 7 -2 8 -8 3 -13 -5 -5 -11 -4 -13 4 -3 7 -22 12 -44 12 -39
0 -39 0 -39 -39 0 -22 5 -42 13 -44 21 -9 -15 -27 -55 -27 -33 0 -38 -3 -38
-24 0 -13 6 -26 13 -29 7 -2 8 -8 3 -13 -5 -5 -11 -4 -13 4 -3 7 -22 12 -45
12 l-40 0 7 -80 7 -80 -31 0 c-30 0 -31 -2 -31 -40 l0 -40 -40 0 c-40 0 -40 0
-40 -37 0 -41 -18 -77 -27 -55 -2 7 -22 12 -44 12 l-39 0 0 -80 c0 -79 0 -80
-25 -80 -22 0 -25 -4 -25 -40 0 -38 -2 -40 -30 -40 -28 0 -30 -2 -30 -40 0
-22 -4 -40 -10 -40 -5 0 -10 -20 -10 -44 0 -26 -6 -48 -15 -56 -12 -10 -15
-10 -15 4 0 9 -7 16 -15 16 -11 0 -15 -11 -15 -40 0 -23 -5 -40 -11 -40 -8 0
-10 -17 -7 -51 4 -42 2 -53 -13 -62 -11 -7 -19 -20 -19 -29 0 -10 -7 -18 -16
-18 -13 0 -15 -9 -12 -49 3 -44 -1 -53 -26 -80 -28 -30 -29 -31 -8 -31 27 0
27 -10 2 -55 -15 -27 -20 -54 -20 -110 0 -60 -3 -75 -15 -75 -11 0 -15 -11
-15 -40 0 -22 -4 -40 -10 -40 -5 0 -10 -18 -10 -40 0 -22 5 -40 10 -40 6 0 10
-47 10 -120 0 -73 -4 -120 -10 -120 -6 0 -10 -33 -10 -80 0 -47 4 -80 10 -80
6 0 10 -33 10 -80 0 -62 3 -80 14 -80 10 0 16 -22 21 -80 4 -44 11 -80 16 -80
5 0 9 -53 9 -118 0 -88 -4 -123 -15 -138 -8 -10 -15 -29 -15 -41 0 -13 -6 -23
-14 -23 -10 0 -16 -22 -21 -80 -4 -44 -11 -80 -16 -80 -5 0 -9 -18 -9 -40 0
-22 -4 -40 -10 -40 -6 0 -10 -33 -10 -80 0 -79 0 -80 -25 -80 -25 0 -25 -1
-25 -80 0 -64 -3 -80 -15 -80 -12 0 -15 -20 -15 -120 l0 -120 40 0 40 0 0
-200 0 -200 40 0 40 0 0 -80 0 -80 40 0 40 0 0 -80 0 -80 50 0 50 0 0 -40 c0
-23 -5 -40 -11 -40 -12 0 51 -78 64 -79 4 -1 7 7 7 16 0 14 2 15 13 4 10 -11
10 -14 0 -18 -7 -3 -13 -11 -13 -18 0 -19 47 -65 65 -65 8 0 15 -6 15 -14 0
-7 7 -19 15 -26 25 -21 18 -40 -15 -40 -28 0 -30 -2 -30 -40 l0 -40 55 0 c52
0 55 -1 55 -25 0 -22 4 -25 40 -25 46 0 43 13 40 -152 l-2 -118 41 0 41 0 0
-80 0 -80 40 0 40 0 0 -80 c0 -64 3 -80 15 -80 11 0 15 -11 15 -40 0 -22 5
-40 10 -40 6 0 10 -47 10 -120 0 -98 3 -120 14 -120 10 0 16 14 19 42 2 24 4
6 5 -39 2 -69 5 -83 18 -83 14 0 15 -10 9 -78 -4 -42 -11 -78 -16 -80 -5 -2
-9 -21 -9 -43 0 -32 -3 -39 -20 -39 -17 0 -20 -7 -20 -40 0 -22 -4 -40 -10
-40 -5 0 -10 -18 -10 -39 0 -22 -5 -41 -10 -43 -6 -2 -13 -55 -17 -121 -3 -64
-10 -117 -15 -117 -4 0 -8 -18 -8 -40 0 -22 -4 -40 -10 -40 -5 0 -10 -18 -10
-40 0 -27 -4 -40 -14 -40 -10 0 -15 -23 -18 -94 -3 -71 -8 -97 -21 -111 -10
-10 -15 -25 -12 -35 4 -12 -4 -26 -25 -43 -16 -14 -30 -32 -30 -41 0 -20 -169
-28 -186 -9 -6 7 -21 13 -33 13 -14 0 -21 6 -21 20 0 17 -7 20 -40 20 -22 0
-40 5 -40 10 0 6 -18 10 -40 10 -22 0 -40 5 -40 10 0 6 -18 10 -40 10 -27 0
-40 4 -40 14 0 9 -32 16 -119 26 -82 9 -122 17 -125 26 -4 10 -27 14 -81 14
-43 0 -75 4 -75 10 0 6 -47 10 -120 10 -73 0 -120 -4 -120 -10 0 -6 -31 -10
-73 -10 -40 0 -77 -4 -82 -9 -6 -5 -45 -12 -87 -16 -68 -6 -78 -5 -78 9 0 9
-4 16 -10 16 -15 0 -50 86 -50 124 0 20 -4 36 -8 36 -10 0 -42 263 -42 343 0
31 5 57 10 57 6 0 10 18 10 40 0 22 -4 40 -10 40 -5 0 -10 18 -10 40 0 22 -4
40 -10 40 -5 0 -10 18 -10 40 0 29 -4 40 -15 40 -8 0 -15 8 -15 18 0 9 -9 23
-20 30 -11 7 -20 18 -20 25 0 8 -10 23 -23 35 -21 20 -34 22 -140 22 -71 0
-117 -4 -117 -10 0 -5 -18 -10 -40 -10 -28 0 -40 -4 -40 -14 0 -8 6 -16 13
-19 7 -2 8 -8 3 -13 -5 -5 -11 -4 -13 4 -3 7 -22 12 -44 12 -39 0 -39 0 -39
-39 0 -22 5 -42 13 -44 21 -9 -15 -27 -55 -27 -27 0 -38 4 -38 15 0 8 -7 15
-15 15 -12 0 -15 -16 -15 -80 0 -56 4 -80 12 -80 7 0 -6 -18 -27 -40 -21 -22
-45 -40 -52 -40 -9 0 -13 -14 -13 -40 0 -31 -7 -47 -26 -67 -15 -15 -24 -33
-21 -43 5 -21 -79 -118 -85 -99 -2 7 -33 -18 -69 -55 -35 -37 -75 -72 -89 -77
-20 -8 -22 -12 -10 -19 12 -7 5 -13 -27 -27 -27 -11 -43 -24 -43 -35 0 -10 -7
-18 -15 -18 -8 0 -24 -6 -35 -13 -17 -10 -22 -9 -29 2 -7 11 -14 8 -34 -15
-24 -28 -26 -28 -113 -25 -98 3 -139 19 -129 51 4 12 -3 25 -20 38 -14 11 -25
27 -25 35 0 9 -18 33 -40 55 -23 22 -40 48 -40 61 0 31 -4 36 -154 176 -57 53
-82 71 -88 62 -6 -9 -17 -3 -38 21 -17 18 -35 30 -42 26 -6 -4 -8 -3 -5 3 4 6
-9 27 -30 48 -26 26 -38 33 -44 23 -4 -7 -11 -9 -16 -5 -4 5 -1 12 7 17 11 7
9 13 -14 31 -15 12 -32 32 -36 45 -5 13 -16 24 -23 24 -15 0 -77 64 -77 80 0
5 -5 10 -10 10 -6 0 -22 11 -36 25 -13 13 -30 22 -38 19 -9 -3 -17 6 -24 25
-6 17 -15 31 -21 31 -5 0 -30 20 -54 45 -25 25 -51 45 -59 45 -7 0 -23 16 -35
35 -13 19 -34 37 -47 41 -13 3 -28 16 -34 28 -6 13 -31 33 -57 46 -25 12 -51
28 -58 35 -8 7 -32 22 -55 34 -23 12 -46 30 -52 40 -5 11 -31 30 -57 43 -27
13 -49 26 -51 31 -2 4 -10 7 -18 7 -8 0 -14 5 -14 10 0 13 -51 59 -65 60 -6 0
-28 17 -49 39 -26 26 -44 37 -57 34 -13 -4 -21 2 -28 20 -5 13 -23 34 -40 47
-17 12 -31 27 -31 34 0 18 -37 49 -49 42 -6 -4 -17 8 -25 26 -14 33 -66 88
-83 88 -5 0 -20 11 -33 25 -21 23 -31 25 -102 25 l-78 0 0 -65 c0 -61 -2 -65
-22 -65 -22 -1 -21 -2 5 -16 27 -15 29 -34 3 -34 -7 0 -25 -11 -41 -24 -24
-21 -27 -29 -22 -59 6 -40 74 -187 86 -187 4 0 13 -18 20 -40 9 -29 17 -40 31
-40 14 0 20 -7 20 -22 0 -13 11 -36 24 -51 14 -16 28 -42 31 -58 4 -18 13 -29
23 -29 10 0 25 -17 35 -40 10 -22 25 -40 33 -40 9 0 14 -11 14 -30 0 -21 5
-30 16 -30 11 0 14 -9 12 -37 -3 -35 -28 -61 -28 -29 0 13 -14 16 -80 16 -64
0 -80 3 -80 15 0 11 -11 15 -40 15 l-40 0 0 -40 0 -40 -80 0 -80 0 0 -46 0
-46 -80 7 -80 7 0 -45 0 -45 -46 -4 c-25 -2 -48 0 -50 4 -3 5 -18 8 -35 8 -16
0 -29 4 -29 9 0 15 -60 71 -76 71 -8 0 -28 15 -45 32 -21 23 -32 29 -36 20 -4
-10 -11 -8 -29 9 -17 16 -24 33 -24 61 0 27 -4 38 -15 38 -10 0 -15 -10 -15
-30 0 -38 -12 -38 -45 2 -21 25 -29 29 -35 18 -5 -8 -13 -11 -17 -6 -4 5 -2
11 5 13 6 3 12 13 12 24 0 15 -7 19 -38 19 -26 0 -45 7 -57 20 -10 11 -24 20
-32 20 -9 0 -13 13 -13 40 0 22 -4 40 -10 40 -5 0 -10 -12 -10 -27 l0 -27 -28
27 c-15 15 -33 27 -40 27 -7 0 -12 7 -12 15 0 8 -11 26 -25 40 -14 14 -32 25
-40 25 -8 0 -15 8 -15 18 0 9 -9 23 -20 30 -26 16 -26 32 0 32 11 0 20 5 20
10 0 6 -16 10 -36 10 -28 0 -44 7 -66 30 -15 16 -35 30 -43 30 -8 0 -15 7 -15
15 0 8 -11 26 -25 40 -14 14 -32 25 -40 25 -8 0 -15 7 -15 15 0 8 -11 26 -25
40 -14 14 -32 25 -40 25 -11 0 -15 12 -15 40 0 22 5 40 10 40 6 0 10 18 10 40
0 22 -4 40 -10 40 -5 0 -10 -18 -10 -40 0 -22 -4 -40 -10 -40 -5 0 -10 18 -10
40 0 22 -4 40 -10 40 -6 0 -10 47 -10 120 0 73 4 120 10 120 6 0 10 18 10 40
0 22 5 40 10 40 6 0 10 18 10 40 l0 40 40 0 40 0 0 40 0 40 40 0 40 0 0 80 c0
47 4 80 10 80 6 0 10 18 10 40 0 22 -4 40 -10 40 -6 0 -10 33 -10 80 0 47 -4
80 -10 80 -6 0 -10 60 -10 160 0 100 4 160 10 160 6 0 10 -18 10 -40 0 -22 5
-40 10 -40 6 0 10 18 10 40 0 22 -4 40 -10 40 -6 0 -10 47 -10 120 0 73 -4
120 -10 120 -6 0 -10 33 -10 80 0 47 4 80 10 80 6 0 10 18 10 40 l0 40 40 0
40 0 0 80 0 80 -40 0 -40 0 0 120 c0 113 -1 120 -20 120 -17 0 -20 7 -20 40 0
33 -3 40 -20 40 -17 0 -20 7 -20 40 l0 40 40 0 c22 0 40 5 40 10 0 6 -18 10
-40 10 -38 0 -40 2 -40 30 0 27 -3 30 -32 30 -40 0 -126 40 -133 63 -4 9 -15
17 -25 17 -10 0 -20 6 -23 14 -3 8 -19 17 -36 21 -18 4 -31 13 -31 22 0 8 -9
17 -20 20 -11 3 -20 11 -20 18 0 7 -9 15 -21 18 -11 3 -23 15 -26 26 -3 12
-10 21 -15 21 -6 0 -35 23 -65 50 -31 28 -70 57 -87 64 -17 8 -45 27 -62 43
-26 25 -37 28 -77 25 -26 -2 -47 -8 -47 -13 0 -5 -18 -9 -40 -9 l-40 0 0 -79
c0 -54 4 -81 13 -85 6 -3 -24 -3 -68 0 -71 5 -78 4 -61 -9 30 -22 -1 -28 -101
-17 -84 10 -119 20 -153 45 -8 6 -35 18 -60 25 -25 8 -50 19 -57 25 -7 5 -19
15 -27 22 -34 29 -126 27 -126 -3 0 -7 -14 -37 -31 -65 -30 -47 -32 -56 -30
-142 1 -95 27 -232 75 -396 20 -68 21 -121 2 -121 -8 0 -16 -5 -18 -11 -5 -16
-46 10 -54 33 -7 22 -38 31 -80 23 -37 -7 -42 -16 -19 -39 17 -16 21 -86 5
-86 -5 0 -10 -10 -10 -23 0 -13 -5 -28 -11 -34 -7 -7 -9 -47 -5 -119 3 -60 6
-120 7 -134 6 -113 25 -251 45 -334 16 -64 22 -112 18 -136 -6 -35 11 -115 37
-175 4 -11 15 -58 23 -104 9 -46 22 -94 31 -107 8 -13 15 -31 15 -40 0 -9 9
-27 19 -41 11 -13 17 -31 14 -39 -5 -14 20 -135 38 -182 5 -13 9 -38 9 -55 0
-18 4 -37 9 -43 12 -12 41 -129 41 -162 -1 -15 -7 -45 -15 -67 -9 -26 -11 -41
-4 -46 6 -3 15 -37 21 -75 5 -38 14 -77 19 -86 5 -10 13 -57 19 -105 5 -48 17
-110 25 -137 8 -27 15 -59 15 -70 0 -12 11 -41 24 -66 13 -25 30 -65 37 -89 7
-24 21 -48 31 -55 10 -6 18 -20 18 -32 0 -12 6 -27 14 -33 8 -7 18 -26 21 -42
4 -17 15 -35 26 -42 10 -6 19 -20 19 -29 0 -10 4 -18 8 -18 5 0 14 -11 20 -24
6 -13 20 -27 31 -31 12 -3 31 -30 46 -63 15 -31 33 -70 41 -85 8 -16 14 -35
14 -42 0 -12 17 -50 42 -95 4 -8 12 -25 18 -37 5 -13 16 -23 23 -23 7 0 24
-11 37 -25 13 -14 30 -25 38 -25 8 0 41 -26 73 -58 31 -31 86 -82 120 -112 34
-30 72 -65 84 -78 12 -12 25 -22 29 -22 7 0 23 -12 57 -43 10 -9 24 -17 29
-17 6 0 10 -4 10 -10 0 -5 7 -10 15 -10 8 0 15 -4 15 -9 0 -6 27 -24 61 -42
34 -18 63 -39 66 -46 3 -7 11 -13 18 -13 8 0 22 -11 32 -24 10 -13 32 -30 49
-39 17 -9 42 -27 55 -41 13 -14 30 -26 37 -26 7 0 23 -11 36 -25 13 -14 28
-25 35 -25 6 0 11 -5 11 -11 0 -7 11 -22 25 -35 14 -13 25 -30 25 -39 0 -9 8
-19 17 -22 26 -10 62 -55 63 -78 0 -11 9 -26 19 -32 11 -7 24 -28 31 -47 6
-20 16 -36 21 -36 5 0 9 -7 9 -15 0 -8 4 -15 8 -15 10 0 42 -65 42 -85 0 -8 7
-15 15 -15 9 0 15 -9 15 -24 0 -13 7 -27 16 -30 9 -3 14 -12 11 -19 -2 -6 4
-23 14 -36 11 -13 19 -29 19 -35 0 -7 13 -20 30 -29 16 -10 33 -29 36 -43 3
-13 12 -24 20 -24 8 0 14 -8 14 -17 1 -17 26 -32 128 -74 17 -8 32 -17 32 -21
0 -4 16 -10 36 -14 19 -4 38 -12 40 -19 5 -12 155 -33 179 -26 6 2 26 7 45 11
19 5 51 14 70 21 19 7 64 23 100 36 36 12 72 23 79 23 8 0 22 6 30 14 9 8 48
26 86 41 39 15 77 34 86 41 8 8 23 14 32 14 9 0 17 3 17 8 0 4 21 15 48 25 26
10 55 23 64 28 10 5 30 9 44 9 22 0 164 -51 289 -104 17 -7 42 -18 56 -24 20
-8 31 -24 44 -62 9 -28 26 -60 37 -70 28 -26 160 -76 238 -90 94 -17 246 -50
310 -67 66 -18 159 -36 295 -57 75 -12 166 -16 365 -15 267 1 310 -2 457 -40
43 -10 105 -25 138 -31 33 -7 76 -16 95 -21 56 -15 232 -39 400 -55 216 -21
240 -25 240 -35 0 -15 162 -10 245 7 65 13 89 14 149 4 183 -31 642 -30 961 1
100 10 190 12 360 7 77 -2 207 23 267 52 39 18 66 22 161 23 97 2 118 -1 134
-16 11 -9 29 -17 39 -17 11 0 35 -13 52 -28 18 -16 50 -34 72 -40 22 -7 58
-17 79 -23 45 -13 129 -7 236 17 97 22 172 27 224 16 46 -11 75 -7 286 39 55
12 118 25 140 30 86 17 101 21 132 35 17 8 38 14 47 14 9 0 16 4 16 9 0 5 8
11 18 15 9 3 32 15 49 26 18 11 70 29 115 40 91 23 140 37 178 52 14 6 50 14
80 19 30 5 87 15 125 23 39 7 72 10 75 6 14 -19 96 -19 188 0 53 12 120 26
147 31 28 6 69 19 92 30 24 10 49 19 57 19 8 0 18 5 21 10 3 6 17 10 31 10 13
0 24 4 24 9 0 5 9 12 19 16 11 3 25 21 31 39 9 30 18 36 78 56 37 12 71 26 76
31 6 5 29 9 53 9 46 0 127 19 185 44 23 10 63 16 100 15 68 -1 79 3 213 76 44
24 101 53 127 65 26 12 62 30 80 40 80 44 156 80 171 80 8 0 17 4 19 8 2 5 35
23 73 41 39 18 87 42 109 53 28 15 50 19 85 16 29 -3 63 1 91 11 37 13 49 24
66 59 20 43 31 52 112 92 37 18 105 64 150 101 7 6 38 22 68 37 88 43 94 46
94 54 0 5 9 8 19 8 10 0 62 23 116 50 95 50 107 58 146 93 10 9 27 17 37 17
19 0 47 64 36 82 -6 9 14 68 26 78 3 3 20 27 37 53 30 46 101 107 123 107 6 0
23 11 38 25 15 14 33 25 40 25 7 0 15 7 18 15 4 8 13 15 20 15 8 0 17 6 20 14
3 8 19 20 35 26 16 7 33 19 37 26 5 8 34 17 71 20 45 5 71 14 91 31 15 12 30
23 33 23 4 0 17 11 31 25 14 14 33 25 42 25 9 0 27 11 40 25 13 14 30 25 39
25 9 0 19 9 22 20 3 10 13 22 23 25 21 7 40 46 40 85 0 17 5 30 10 30 6 0 10
10 10 23 0 16 10 26 40 39 22 9 40 12 40 7 0 -5 18 -9 40 -9 22 0 40 5 40 10
0 6 4 10 8 10 5 0 35 25 68 55 32 30 65 55 72 55 6 0 12 4 12 9 0 4 27 36 60
70 33 34 60 66 60 72 0 5 9 14 20 21 11 7 20 18 20 25 0 7 6 13 13 13 8 0 19
11 25 25 7 14 19 28 27 31 11 5 15 22 15 68 0 58 2 64 40 104 22 23 40 45 40
48 0 4 11 17 25 30 14 13 25 28 25 34 0 6 7 13 15 16 8 4 15 11 15 17 0 6 6
17 14 26 8 9 26 29 40 44 14 15 26 35 26 44 0 8 11 28 25 45 14 16 25 35 25
41 0 7 13 24 29 40 15 15 33 45 40 67 7 23 18 40 26 40 10 0 15 10 15 29 0 16
6 36 13 43 8 7 20 31 27 53 7 22 25 63 40 90 15 28 35 80 44 118 10 37 22 67
26 67 4 0 10 19 13 43 22 193 25 241 16 352 -19 235 -20 245 -34 245 -8 0 -16
17 -20 43 -7 42 -27 97 -71 194 -13 28 -24 57 -24 63 0 6 -7 18 -15 26 -8 9
-15 29 -15 45 0 16 -4 29 -9 29 -5 0 -15 17 -22 37 -6 20 -20 46 -30 57 -11
11 -19 30 -19 43 0 13 -4 23 -9 23 -5 0 -15 16 -21 36 -12 34 -26 56 -58 90
-7 7 -24 38 -37 68 -14 31 -34 65 -46 77 -11 11 -27 35 -34 52 -7 18 -27 48
-45 67 -17 19 -34 46 -37 60 -4 13 -21 38 -40 54 -18 16 -33 34 -33 38 0 12
-42 53 -63 61 -9 3 -17 13 -17 22 0 8 -4 15 -8 15 -5 0 -15 12 -23 28 -18 34
-34 52 -49 52 -15 0 -40 25 -40 40 0 14 -25 40 -39 40 -6 0 -11 4 -11 9 0 15
-109 121 -125 121 -8 0 -15 6 -15 13 0 6 -12 21 -26 32 -14 11 -48 41 -75 66
-26 25 -66 54 -88 63 -21 10 -41 26 -44 35 -2 9 -17 23 -33 31 -16 8 -37 23
-48 32 -13 12 -23 14 -35 6 -14 -8 -17 -36 -20 -181 -2 -95 -7 -179 -12 -188
-4 -9 -13 -85 -18 -170 -21 -303 -43 -469 -63 -469 -4 0 -8 -8 -8 -17 -1 -22
-23 -53 -39 -53 -6 0 -11 10 -11 22 0 12 -3 18 -6 15 -4 -4 -16 12 -27 34
l-20 40 -16 -23 c-28 -39 -43 -90 -51 -168 -9 -96 -19 -130 -36 -130 -10 0
-14 -13 -14 -41 0 -28 4 -38 12 -33 8 5 9 -4 5 -32 -4 -21 -10 -77 -13 -124
-4 -47 -11 -88 -16 -91 -5 -3 -13 -32 -18 -65 -5 -32 -18 -95 -29 -139 -12
-44 -21 -88 -21 -97 0 -10 -4 -18 -8 -18 -4 0 -14 -33 -20 -74 -7 -40 -22 -96
-32 -125 -11 -28 -20 -67 -20 -86 0 -19 -4 -35 -8 -35 -12 0 -29 -59 -31 -105
-1 -38 -17 -81 -62 -168 -11 -21 -17 -41 -15 -46 3 -5 -1 -25 -9 -44 -8 -19
-11 -38 -7 -42 4 -5 -1 -5 -10 -2 -14 5 -18 1 -18 -21 0 -36 -17 -52 -52 -52
-19 0 -28 -5 -28 -16 0 -14 -9 -16 -67 -10 -97 9 -187 -12 -283 -66 -8 -4 -33
-17 -55 -27 -22 -10 -46 -28 -53 -40 -16 -27 -42 -27 -42 0 0 25 78 260 91
273 5 6 9 16 9 23 0 7 18 51 40 97 22 46 40 90 40 99 0 9 5 19 10 22 6 3 10
14 10 23 0 10 9 34 20 55 11 20 20 44 20 52 0 8 4 23 9 33 21 42 41 94 41 107
0 8 5 15 10 15 6 0 10 8 10 18 0 9 7 30 15 46 8 15 15 44 15 62 0 19 4 34 10
34 5 0 13 18 16 40 4 22 10 40 15 40 5 0 9 7 9 16 0 9 7 30 16 47 30 58 34 67
34 80 0 15 34 123 69 219 12 32 21 71 21 87 0 16 4 31 10 33 5 2 17 35 26 73
9 39 21 78 25 87 5 10 9 31 9 48 0 16 4 30 9 30 4 0 11 16 14 35 3 19 13 42
21 51 10 9 16 33 16 59 0 24 5 47 10 50 6 3 10 14 10 23 0 10 9 34 20 55 11
20 20 46 20 56 0 11 5 23 10 26 6 3 10 13 10 21 0 8 11 37 25 66 13 28 27 66
31 85 3 18 9 33 13 33 9 0 29 49 41 105 6 27 14 54 19 60 4 5 13 30 20 55 7
25 18 56 24 70 5 14 14 45 18 70 4 25 15 65 24 90 9 25 19 69 22 98 4 34 10
52 19 52 22 0 113 96 120 127 4 15 11 34 17 41 12 16 3 97 -14 118 -7 8 -30
24 -52 35 -25 13 -37 25 -33 35 3 8 6 143 6 300 1 267 6 323 30 344 12 10 59
130 66 167 10 53 28 76 72 89 50 14 56 51 13 77 -38 22 -69 22 -106 -3 -38
-25 -49 -25 -35 1 7 11 9 27 6 34 -3 8 2 21 10 30 10 9 14 31 13 62 -2 52 14
142 31 173 5 10 10 35 10 55 0 36 21 115 30 115 3 0 4 -18 2 -40 -3 -25 0 -40
7 -40 6 0 11 17 12 38 2 61 8 114 14 120 3 3 5 -2 5 -10 0 -11 12 -17 40 -20
47 -4 52 9 15 46 -18 18 -25 36 -25 63 1 36 2 37 15 19 8 -11 15 -28 15 -37 0
-10 4 -20 10 -24 6 -3 9 35 9 100 -1 79 -4 105 -14 105 -10 0 -10 10 2 53 7
28 18 59 22 67 5 9 12 39 16 68 4 29 11 52 17 52 5 0 8 12 6 28 -2 19 -9 28
-25 30 l-23 3 0 250 0 249 25 0 25 0 0 263 c0 321 18 850 29 857 5 3 11 133
15 290 11 487 18 670 27 670 5 0 9 72 9 160 0 136 2 160 15 160 13 0 15 33 15
240 0 207 2 240 15 240 12 0 15 16 15 80 0 62 3 80 14 80 11 0 15 34 21 160 4
88 11 160 15 160 4 0 13 108 20 240 7 132 17 240 22 240 4 0 8 36 8 80 0 64 3
80 15 80 13 0 15 30 15 210 0 116 -1 210 -2 210 -2 -1 -9 -8 -17 -16z m-2941
-4204 c0 -40 0 -40 -39 -40 -22 0 -41 -5 -44 -12 -2 -8 -8 -9 -13 -4 -5 5 -4
11 4 13 26 10 10 23 -28 23 -22 0 -40 -4 -40 -10 0 -5 -8 -10 -17 -10 -10 0
-26 -6 -35 -13 -11 -9 -33 -11 -65 -7 -29 4 -58 1 -73 -6 -14 -6 -43 -15 -65
-18 -21 -4 -45 -15 -52 -24 -11 -16 -12 -16 -13 1 0 25 -13 21 -38 -12 -15
-21 -38 -34 -79 -45 -32 -9 -66 -21 -75 -26 -10 -6 -25 -10 -33 -10 -8 0 -15
-4 -15 -8 0 -15 -73 -33 -81 -21 -7 12 -129 -28 -129 -42 0 -5 -7 -9 -15 -9
-8 0 -15 -4 -15 -8 0 -4 -17 -14 -37 -21 -21 -8 -41 -19 -45 -24 -4 -7 -16 -6
-35 3 -15 8 -31 16 -35 18 -5 2 -8 -5 -8 -16 0 -11 6 -23 13 -25 6 -3 0 -6
-15 -6 -16 -1 -28 3 -28 8 0 16 -43 20 -64 5 -11 -7 -28 -14 -37 -14 -9 0 -19
-6 -22 -14 -3 -8 -30 -22 -59 -31 -29 -10 -57 -21 -63 -26 -5 -5 -21 -9 -36
-9 -15 0 -31 -4 -34 -10 -3 -5 -22 -17 -41 -26 -26 -13 -38 -14 -47 -5 -6 6
-26 11 -45 11 -27 0 -33 -4 -30 -17 3 -13 12 -17 30 -15 15 1 30 -2 33 -8 5
-8 -13 -11 -56 -10 -92 2 -98 1 -76 -11 27 -16 20 -34 -23 -55 -22 -10 -40
-24 -40 -31 0 -15 -32 -33 -56 -33 -22 0 -104 -87 -104 -110 0 -11 -15 -22
-42 -30 -26 -9 -62 -35 -97 -71 -31 -31 -66 -60 -79 -64 -13 -4 -63 -45 -110
-91 -59 -58 -101 -89 -129 -99 -24 -8 -51 -23 -61 -32 -10 -10 -28 -25 -40
-33 -12 -8 -25 -23 -28 -34 -9 -27 -54 -72 -82 -80 -12 -4 -22 -12 -22 -17 0
-5 -7 -9 -15 -9 -8 0 -15 -6 -15 -13 0 -16 -52 -67 -68 -67 -7 0 -12 -11 -12
-24 0 -13 -7 -29 -15 -36 -9 -7 -12 -16 -7 -19 12 -8 -35 -111 -51 -111 -7 0
-24 -11 -37 -25 -13 -14 -29 -25 -37 -25 -7 0 -13 -8 -13 -19 0 -14 -10 -21
-36 -25 -19 -4 -38 -14 -41 -22 -3 -7 -13 -14 -23 -14 -10 0 -20 -6 -23 -14
-3 -8 -19 -17 -34 -20 -17 -4 -58 -35 -96 -72 -57 -55 -67 -70 -67 -99 0 -29
-4 -35 -21 -35 -27 0 -101 -80 -135 -149 -4 -8 2 -20 16 -31 l23 -18 -21 -11
c-11 -6 -28 -11 -36 -11 -9 0 -23 -11 -32 -25 -9 -14 -22 -25 -28 -25 -7 0
-23 -11 -35 -24 -21 -22 -21 -24 -4 -28 15 -4 12 -10 -20 -40 -21 -20 -34 -37
-29 -39 6 -2 8 -16 5 -31 -5 -25 -10 -28 -44 -28 -22 0 -39 -4 -39 -10 0 -5 9
-10 20 -10 23 0 24 -3 8 -47 -11 -31 -28 -45 -28 -23 0 6 -11 10 -25 10 -14 0
-25 -4 -25 -10 0 -5 -7 -10 -15 -10 -8 0 -15 7 -15 15 0 8 5 15 10 15 6 0 10
11 10 25 0 14 -4 25 -10 25 -5 0 -10 8 -10 18 -1 16 -1 16 -14 0 -17 -23 -51
-24 -42 -2 3 9 9 27 12 40 3 13 10 24 15 24 5 0 9 7 9 15 0 25 23 65 37 65 7
0 13 11 13 23 0 13 9 32 20 42 11 10 20 25 21 34 0 10 2 12 6 4 6 -17 83 46
83 70 0 9 6 17 13 17 15 0 57 46 77 86 8 16 29 45 47 64 18 19 33 40 33 47 0
7 7 13 15 13 8 0 15 6 15 14 0 8 13 24 29 37 16 13 28 26 26 30 -2 3 11 21 30
39 19 19 35 42 35 52 0 10 6 18 14 18 7 0 40 25 72 55 33 30 66 55 76 55 9 0
21 13 27 31 6 17 20 33 31 36 11 3 20 12 20 19 0 8 5 14 11 14 14 0 69 55 69
69 0 6 9 11 20 11 11 0 20 6 20 13 0 7 27 42 60 79 33 36 60 71 60 77 0 6 7
11 15 11 8 0 19 9 25 20 6 11 17 20 25 20 8 0 15 5 15 10 0 6 9 10 20 10 11 0
20 7 20 15 0 9 8 19 18 22 9 4 24 15 33 25 9 10 20 18 24 18 4 0 24 17 45 38
40 40 62 57 98 72 12 5 22 18 22 30 0 11 7 20 16 20 8 0 29 13 47 30 18 16 38
30 45 30 6 0 12 3 12 8 0 4 18 15 40 25 22 9 40 21 40 25 0 5 18 17 40 28 22
10 40 25 40 32 0 7 11 18 25 24 14 6 25 17 25 25 0 7 11 13 25 13 15 0 25 6
25 15 0 18 46 65 64 65 8 0 19 7 26 15 7 8 21 15 31 15 11 0 19 5 19 11 0 17
31 38 56 39 12 0 25 10 32 25 7 14 25 34 42 43 17 10 30 25 30 36 0 16 3 17
12 8 17 -17 24 -15 50 11 13 13 29 22 35 20 6 -2 14 1 18 6 3 6 19 11 34 11
16 0 34 7 41 15 7 8 21 15 32 15 11 0 29 5 41 12 35 19 90 38 115 38 12 0 22
4 22 9 0 5 12 12 28 16 15 3 47 16 70 27 24 11 65 23 90 26 26 3 52 11 59 18
7 7 31 15 53 19 23 4 49 15 58 25 9 9 31 20 47 23 47 9 149 40 155 48 3 4 38
10 79 14 57 6 75 4 82 -6 8 -12 12 -11 23 4 7 9 21 17 30 17 9 0 28 8 42 17
22 14 49 16 165 14 121 -2 139 0 139 13 0 12 10 16 40 16 22 0 40 5 40 10 0 6
18 10 40 10 l40 0 0 -40z m821 -2960 c105 -32 139 -44 139 -52 0 -5 6 -8 13
-8 24 0 149 -107 212 -182 28 -33 91 -151 105 -195 6 -21 15 -47 20 -58 45
-112 70 -330 51 -455 -21 -134 -60 -302 -74 -316 -4 -4 -7 -14 -7 -23 0 -21
-62 -185 -72 -189 -4 -2 -8 -15 -8 -28 0 -14 -17 -62 -39 -107 -21 -45 -47
-106 -57 -134 -10 -29 -22 -53 -26 -53 -5 0 -8 -9 -8 -19 0 -11 -4 -22 -10
-26 -5 -3 -24 -35 -41 -71 -18 -36 -39 -68 -46 -71 -7 -3 -13 -10 -13 -15 0
-15 -102 -117 -117 -118 -7 0 -13 -4 -13 -8 0 -9 -96 -83 -179 -138 -42 -28
-143 -83 -181 -98 -8 -3 -22 -10 -30 -15 -8 -5 -31 -16 -50 -24 -19 -8 -55
-24 -78 -36 -24 -11 -50 -21 -58 -21 -8 0 -14 -4 -14 -8 0 -33 -157 -42 -290
-18 -183 33 -313 123 -390 272 -36 69 -100 242 -100 270 0 8 -4 22 -9 32 -32
60 -46 412 -22 537 28 143 82 316 180 570 29 73 79 169 98 187 13 12 23 25 23
30 0 10 77 107 131 165 21 23 39 46 39 50 0 5 12 22 28 39 15 17 42 49 61 72
44 55 128 115 152 109 11 -3 29 5 44 19 36 33 159 94 190 94 15 0 25 6 25 14
0 8 14 17 33 21 17 4 37 11 42 16 31 24 253 17 346 -11z m-3171 -514 c170 -33
336 -105 414 -180 40 -38 115 -138 141 -188 11 -21 23 -38 26 -38 9 0 23 -53
24 -90 2 -51 7 -75 12 -62 5 14 33 17 33 3 0 -5 -7 -16 -15 -24 -23 -24 -31
-94 -12 -115 14 -16 25 -79 26 -159 1 -26 5 -33 21 -33 18 0 20 -7 20 -66 0
-101 -29 -200 -108 -374 -21 -46 -93 -152 -145 -214 -113 -135 -227 -221 -407
-308 -138 -67 -158 -75 -230 -93 -36 -9 -90 -24 -120 -33 -82 -25 -316 -22
-430 6 -102 25 -234 79 -282 116 -19 14 -39 26 -43 26 -8 0 -78 70 -122 123
-84 100 -159 343 -170 552 -5 106 -2 137 30 285 29 129 130 303 238 408 167
160 220 207 289 256 164 115 282 164 505 210 49 10 237 5 305 -8z m-1211 -246
c11 -6 9 -12 -10 -29 -13 -12 -31 -28 -39 -36 -23 -21 -45 -86 -31 -94 7 -5
-3 -28 -29 -66 -22 -33 -40 -66 -40 -72 0 -7 -8 -21 -18 -31 -11 -11 -22 -39
-26 -63 -6 -39 -9 -42 -20 -26 -7 9 -15 17 -17 17 -2 0 -3 -24 -2 -52 l3 -53
-15 33 c-8 17 -19 32 -24 32 -5 0 -12 10 -14 23 -3 12 -5 -20 -4 -71 1 -50 1
-88 -1 -82 -2 5 -11 10 -19 10 -11 0 -13 -5 -8 -17 14 -34 17 -63 7 -63 -6 0
-14 -19 -17 -42 -7 -46 -38 -93 -55 -83 -16 10 -12 45 5 45 14 0 21 45 16 106
0 11 8 30 19 42 16 17 20 35 20 93 0 55 4 75 16 84 10 7 18 30 20 61 2 27 10
63 18 79 27 57 46 103 46 114 0 6 5 11 10 11 6 0 10 9 10 20 0 24 47 80 68 80
10 0 12 -7 7 -27 l-7 -28 21 27 c12 14 21 33 21 42 0 9 7 16 15 16 8 0 15 5
15 11 0 10 30 5 59 -11z m-4644 -2631 c5 -5 17 -9 27 -9 10 0 18 -4 18 -10 0
-5 11 -10 24 -10 14 0 28 -4 31 -10 3 -5 14 -10 24 -10 10 0 29 -9 42 -19 30
-23 84 -56 124 -75 17 -8 42 -26 57 -40 15 -14 32 -26 37 -26 6 0 22 -11 37
-25 16 -14 45 -36 66 -47 21 -12 38 -28 38 -35 0 -7 9 -13 20 -13 27 0 73 -29
125 -77 13 -13 31 -23 40 -23 8 0 15 -7 15 -15 0 -8 9 -19 20 -25 11 -6 20
-15 20 -20 0 -5 11 -20 25 -34 14 -14 25 -30 25 -36 0 -15 -26 -12 -40 5 -7 9
-29 15 -51 15 -35 0 -39 3 -39 25 0 21 -5 25 -30 27 -16 0 -35 1 -42 2 -8 1
-11 -20 -9 -66 1 -38 -2 -68 -7 -68 -17 0 -43 37 -36 53 3 9 -3 24 -16 35 -12
11 -27 26 -33 32 -64 68 -93 90 -119 90 -15 0 -28 4 -28 8 0 5 -18 17 -41 27
-28 13 -39 24 -36 35 3 13 -1 16 -19 12 -13 -2 -24 0 -24 4 0 5 -33 24 -72 43
-40 18 -84 39 -98 45 -14 7 -44 19 -67 26 -32 10 -43 18 -43 33 0 12 -9 30
-19 41 -25 27 -54 136 -38 141 7 2 19 6 27 8 18 6 51 -1 65 -14z m6190 -136
c33 -16 36 -16 49 2 13 17 15 14 26 -39 9 -43 9 -87 1 -174 -5 -65 -13 -171
-16 -237 -7 -128 -22 -212 -42 -233 -11 -11 -60 -13 -241 -9 -202 3 -237 6
-318 28 -106 29 -139 48 -148 84 -8 33 26 115 48 115 9 0 16 4 16 9 0 5 12 13
28 19 18 6 32 22 41 46 8 20 21 36 28 36 7 0 10 6 7 14 -3 8 14 54 39 103 24
48 47 101 51 118 4 16 13 36 19 44 10 12 13 9 18 -15 6 -25 7 -24 8 14 0 23 5
42 10 42 5 0 8 8 7 17 -3 41 290 54 369 16z m1248 -54 l47 -13 0 -96 c0 -108
-27 -318 -44 -339 -22 -28 -255 -3 -413 44 -34 11 -34 30 -3 93 35 72 60 140
60 168 0 12 7 27 15 34 8 7 15 19 15 26 0 7 10 34 23 60 l22 46 115 -5 c63 -2
136 -10 163 -18z m513 -156 c13 -17 13 -17 14 0 0 13 9 17 41 17 22 0 49 -5
60 -11 30 -16 129 -40 139 -34 14 9 40 -37 40 -72 0 -34 -18 -83 -31 -83 -4 0
-10 -8 -13 -17 -3 -10 -21 -34 -38 -54 -18 -19 -45 -51 -59 -70 -32 -41 -58
-70 -80 -87 -14 -10 -22 -10 -45 3 -16 8 -63 30 -105 49 l-77 34 -16 55 c-24
84 -22 102 18 121 18 9 36 25 39 37 3 11 15 23 26 26 12 3 21 12 21 19 0 8 9
23 20 34 11 11 20 27 20 35 0 20 10 19 26 -2z m-343 -838 c21 -20 30 -70 19
-92 -6 -10 -17 -72 -27 -138 -24 -175 -36 -208 -88 -233 -218 -106 -262 -119
-328 -102 -28 8 -43 21 -67 61 -18 28 -32 54 -32 58 0 4 -9 16 -20 26 -11 10
-20 21 -20 24 0 3 16 24 36 45 20 21 47 56 61 77 14 22 29 39 34 39 5 0 18 18
29 40 11 22 24 40 29 40 5 0 18 19 30 43 11 23 32 55 46 70 25 28 28 29 113
26 67 -3 94 1 117 13 38 21 50 22 68 3z m-1940 -59 c18 -8 56 -22 85 -32 28
-10 52 -21 52 -25 0 -6 40 -13 168 -27 35 -4 66 -12 70 -18 11 -17 128 -27
153 -13 16 8 23 8 29 0 4 -7 23 -11 44 -9 42 2 56 -11 56 -55 0 -37 -86 -194
-112 -205 -4 -2 -8 -8 -8 -13 0 -6 -16 -25 -36 -43 -45 -41 -87 -48 -238 -40
-139 7 -178 23 -206 81 -11 24 -20 49 -20 56 0 13 -10 46 -65 219 -27 82 -32
138 -14 138 6 0 25 -6 42 -14z m-1516 -481 c14 -10 24 -12 28 -5 9 15 63 12
98 -6 18 -9 40 -21 49 -25 10 -5 40 -9 68 -9 33 0 50 -4 50 -13 0 -11 71 -43
138 -62 36 -10 25 -25 -18 -25 -33 0 -40 3 -40 20 0 17 -7 20 -40 20 -29 0
-40 4 -40 15 0 11 -11 15 -40 15 -29 0 -40 -4 -40 -15 0 -11 -11 -15 -40 -15
-22 0 -40 -4 -40 -10 0 -5 -18 -10 -40 -10 -22 0 -40 3 -40 8 0 4 -36 16 -80
26 -50 12 -80 24 -80 33 0 7 -4 13 -10 13 -15 0 -12 47 3 53 26 11 94 6 114
-8z"/>
<path d="M16188 9107 c-16 -6 -28 -17 -28 -24 0 -7 -6 -13 -14 -13 -16 0 -46
-42 -46 -65 0 -8 -4 -15 -10 -15 -6 0 -10 -41 -10 -102 0 -69 3 -98 10 -88 8
13 13 12 32 -8 20 -19 21 -24 8 -32 -12 -8 -11 -10 8 -10 13 0 22 -6 22 -15 0
-8 5 -15 10 -15 6 0 13 7 16 15 4 10 20 15 44 15 50 0 74 23 94 88 17 54 14
142 -5 142 -5 0 -9 5 -9 12 0 6 -8 20 -17 30 -15 16 -15 21 -3 28 12 8 11 13
-6 37 -23 31 -54 37 -96 20z"/>
<path d="M12977 8729 c-26 -26 -47 -52 -47 -58 0 -21 -24 -61 -37 -61 -7 0
-13 -4 -13 -10 0 -5 9 -10 21 -10 12 0 17 -4 14 -11 -4 -6 -13 -8 -21 -5 -10
4 -14 -2 -14 -19 0 -14 6 -25 14 -25 10 0 12 -12 8 -50 -5 -53 3 -65 17 -27 8
22 9 21 27 -10 10 -18 28 -35 39 -39 19 -6 19 -7 -2 -11 -63 -12 22 -37 89
-27 25 5 35 11 31 20 -3 9 2 14 15 14 10 0 34 13 53 29 33 29 33 31 34 109 0
68 -4 85 -22 111 -19 24 -21 35 -13 56 15 39 13 45 -19 45 -16 0 -31 4 -33 9
-1 4 -23 10 -48 13 -43 5 -47 3 -93 -43z"/>
<path d="M3784 16781 c3 -52 6 -152 6 -223 l0 -128 25 0 25 0 0 -160 c0 -136
2 -160 15 -160 12 0 15 -13 15 -59 0 -32 3 -86 6 -120 5 -43 3 -61 -5 -61 -6
0 -12 18 -12 43 l-2 42 -7 -50 c-5 -27 -9 -65 -9 -82 -1 -29 2 -33 25 -33 25
0 25 0 22 -77 -1 -43 -2 -115 0 -160 2 -74 4 -83 21 -83 17 0 19 -12 26 -160
4 -88 11 -160 15 -160 4 0 11 -36 15 -80 5 -58 11 -80 21 -80 11 0 14 -30 14
-159 0 -102 4 -161 10 -163 7 -2 15 -78 21 -188 6 -102 13 -227 16 -277 4 -65
2 -93 -6 -93 -7 0 -11 -28 -11 -80 0 -64 -3 -80 -15 -80 -11 0 -15 -12 -15
-50 0 -52 7 -58 40 -37 25 15 40 -2 40 -45 0 -16 5 -28 10 -28 6 0 10 -18 10
-40 0 -26 -5 -40 -13 -40 -7 0 -19 -9 -27 -20 -8 -11 -25 -20 -37 -20 -13 0
-23 -4 -23 -10 0 -5 -6 -10 -13 -10 -19 0 -58 -47 -68 -84 -5 -17 -9 -63 -9
-103 l0 -72 -32 -3 c-35 -3 -52 -34 -23 -40 13 -2 11 -7 -8 -28 -75 -79 -117
-104 -132 -80 -3 6 -42 10 -86 10 l-79 0 0 -29 c0 -25 4 -29 38 -35 87 -14
172 1 172 32 0 6 3 12 8 12 4 0 25 17 47 38 63 57 152 122 170 122 8 0 15 6
15 14 0 7 9 16 21 19 23 6 17 27 -7 27 -9 0 -14 11 -14 33 0 18 -5 38 -12 45
-9 9 -9 18 0 37 7 14 12 38 12 52 0 23 3 25 31 19 17 -3 35 -6 39 -6 4 0 17
-18 29 -40 26 -50 28 -125 5 -138 -11 -6 38 -11 142 -15 140 -4 217 -16 234
-36 3 -3 23 -12 45 -20 58 -19 109 -43 120 -57 6 -6 25 -18 43 -25 17 -8 32
-17 32 -21 0 -3 14 -9 30 -13 17 -4 30 -13 30 -21 0 -8 8 -14 18 -14 9 0 23
-9 29 -20 7 -10 22 -24 33 -30 17 -9 20 -8 20 10 0 11 -7 20 -15 20 -8 0 -15
5 -15 10 0 6 38 10 95 10 l95 0 0 120 0 120 -40 0 -40 0 0 80 0 80 -40 0 -40
0 0 40 0 40 -40 0 -40 0 0 80 0 80 80 0 80 0 0 -80 0 -80 120 0 120 0 0 80 0
80 80 0 80 0 0 40 0 40 80 0 80 0 0 -80 0 -80 40 0 40 0 0 40 0 40 40 0 40 0
0 -40 0 -40 40 0 40 0 0 -40 0 -40 40 0 40 0 0 -80 0 -80 120 0 120 0 0 -80 0
-80 160 0 160 0 0 -80 0 -80 80 0 80 0 0 -160 0 -160 80 0 80 0 0 -120 0 -120
40 0 40 0 0 -40 0 -40 -40 0 -40 0 0 -120 0 -120 -40 0 -40 0 0 40 0 40 -40 0
-40 0 0 40 0 40 -40 0 c-29 0 -40 4 -40 15 0 8 -4 15 -9 15 -5 0 -11 -7 -15
-15 -3 -9 0 -15 9 -15 11 0 15 -11 15 -40 0 -27 4 -40 14 -40 10 0 16 -21 21
-76 4 -42 13 -91 21 -110 19 -44 18 -54 -5 -54 -14 0 -24 13 -35 47 -9 26 -16
54 -16 64 0 26 -57 78 -104 95 -22 9 -62 15 -88 14 -39 -1 -48 2 -48 16 0 11
-5 14 -16 10 -9 -3 -27 -6 -40 -6 -17 0 -24 -6 -24 -20 0 -11 -5 -20 -10 -20
-6 0 -30 -9 -52 -20 -23 -11 -54 -20 -70 -20 -15 0 -28 -4 -28 -8 0 -5 -18
-15 -40 -22 -27 -9 -40 -19 -40 -32 0 -14 -8 -18 -40 -18 -22 0 -40 -5 -40
-11 0 -14 -55 -69 -69 -69 -6 0 -11 -7 -11 -16 0 -9 -11 -29 -25 -46 -14 -16
-25 -35 -25 -42 0 -7 -13 -26 -29 -42 -16 -17 -33 -43 -37 -60 -4 -16 -10 -31
-13 -34 -14 -12 -31 -51 -31 -72 0 -13 -7 -32 -15 -42 -8 -11 -15 -30 -15 -42
0 -12 -7 -38 -15 -57 -8 -20 -15 -52 -15 -72 0 -19 -4 -35 -10 -35 -5 0 -10
-9 -10 -19 0 -11 -5 -23 -11 -27 -6 -3 -9 -14 -6 -24 2 -9 -2 -28 -9 -41 -10
-17 -13 -72 -14 -196 0 -109 -4 -173 -10 -173 -6 0 -10 -100 -10 -280 0 -180
4 -280 10 -280 6 0 10 -18 10 -40 0 -22 5 -40 10 -40 6 0 10 -33 10 -80 l0
-80 -30 0 c-28 0 -30 -2 -30 -40 0 -33 -3 -40 -20 -40 -17 0 -20 7 -20 40 0
22 -4 40 -10 40 -5 0 -10 18 -10 40 0 22 -4 40 -10 40 -5 0 -10 -18 -10 -40 0
-22 -4 -40 -10 -40 -6 0 -10 33 -10 80 l0 80 -30 0 c-28 0 -30 2 -30 40 l0 40
40 0 c22 0 40 5 40 10 0 6 -18 10 -40 10 -38 0 -40 2 -40 30 0 28 -2 30 -40
30 l-40 0 0 80 0 80 -40 0 -40 0 0 130 0 130 40 0 c38 0 40 2 40 30 0 21 5 30
16 30 14 0 14 3 4 15 -7 8 -18 15 -25 15 -23 0 -55 51 -55 87 0 44 -19 63 -64
63 l-36 0 0 -50 c0 -48 1 -50 27 -50 l27 0 -27 -28 c-15 -15 -27 -33 -27 -40
0 -9 -34 -12 -120 -12 l-120 0 0 80 0 80 -40 0 c-36 0 -40 3 -40 25 0 23 -4
25 -40 25 l-40 0 0 55 0 55 -80 0 -80 0 0 40 0 40 -80 0 -80 0 0 -40 0 -40
-80 0 -80 0 0 40 0 40 -40 0 -40 0 0 40 0 40 -40 0 -40 0 0 120 0 120 -40 0
-40 0 0 40 c0 38 -2 40 -30 40 -16 0 -30 4 -30 9 0 5 14 21 30 34 17 14 30 32
30 41 0 8 13 28 30 44 23 24 30 39 30 71 0 22 5 43 10 46 5 3 10 22 10 41 0
19 4 34 10 34 5 0 15 18 21 40 7 22 20 47 31 56 10 10 18 28 18 41 0 12 5 23
10 23 6 0 10 15 10 34 0 18 7 51 16 72 9 22 21 75 25 119 5 44 15 122 22 173
14 92 6 162 -17 162 -5 0 -14 7 -21 16 -6 9 -32 18 -58 21 -57 7 -147 -30
-147 -61 0 -15 3 -16 14 -7 16 14 60 5 76 -14 9 -11 8 -23 -1 -50 -7 -19 -17
-35 -21 -35 -4 0 -8 -6 -8 -14 0 -22 -58 -66 -86 -66 -14 0 -23 4 -19 10 3 5
1 17 -4 27 -5 10 -13 27 -17 38 l-7 20 -5 -20 c-2 -11 -10 -23 -17 -27 -7 -4
-23 -34 -35 -65 -13 -32 -32 -78 -43 -103 -17 -35 -22 -74 -26 -181 -7 -161
-7 -163 23 -177 20 -9 22 -15 18 -75 -3 -40 1 -73 8 -88 10 -17 10 -24 1 -27
-14 -5 -15 -49 -1 -57 13 -8 13 -52 0 -60 -5 -3 -10 3 -10 14 0 18 -6 21 -40
21 l-40 0 0 -40 0 -40 -50 0 -50 0 0 -40 c0 -22 -4 -40 -10 -40 -6 0 -10 -47
-10 -120 0 -73 4 -120 10 -120 6 0 10 -33 10 -80 0 -47 4 -80 10 -80 6 0 10
-18 10 -40 l0 -40 40 0 40 0 0 -80 c0 -47 -4 -80 -10 -80 -5 0 -10 18 -10 40
0 22 -4 40 -10 40 -6 0 -10 -37 -10 -90 0 -79 2 -91 20 -100 17 -9 20 -21 20
-70 0 -33 4 -60 10 -60 6 0 10 -17 10 -38 0 -29 7 -45 30 -67 30 -28 39 -55
20 -55 -13 0 -13 -37 0 -45 6 -3 10 -17 10 -31 0 -21 4 -24 40 -24 22 0 40 5
40 10 0 6 9 10 20 10 17 0 20 -7 20 -40 0 -22 5 -40 10 -40 6 0 10 -18 10 -40
0 -33 3 -40 20 -40 17 0 20 -7 20 -40 0 -22 5 -40 10 -40 6 0 10 -17 10 -38 0
-26 7 -45 20 -57 18 -16 20 -16 20 -2 0 10 5 17 10 17 6 0 10 -17 10 -38 0
-29 7 -45 30 -67 17 -16 30 -35 30 -42 0 -7 5 -13 12 -13 7 0 25 -12 40 -27
l28 -27 0 27 c0 15 5 27 10 27 6 0 10 -18 10 -40 0 -38 2 -40 30 -40 17 0 30
-4 30 -9 0 -12 59 -71 71 -71 5 0 9 -9 9 -20 0 -17 7 -20 40 -20 22 0 40 -4
40 -10 0 -5 18 -10 40 -10 38 0 40 2 40 30 l0 30 120 0 120 0 0 -40 c0 -22 5
-40 10 -40 6 0 10 18 10 40 0 22 -4 40 -10 40 -5 0 -10 18 -10 40 0 38 2 40
30 40 l30 0 0 80 0 80 50 0 50 0 0 -40 0 -40 40 0 40 0 0 40 c0 22 5 40 10 40
6 0 10 -33 10 -78 0 -73 2 -80 28 -104 15 -14 35 -28 45 -31 9 -4 17 -12 17
-20 0 -7 11 -24 25 -37 14 -13 25 -31 25 -41 0 -10 31 -49 70 -86 38 -37 70
-74 70 -81 0 -28 41 -82 62 -82 8 0 30 -18 51 -40 20 -22 43 -40 52 -40 8 0
15 -9 15 -20 0 -17 7 -20 40 -20 38 0 40 -2 40 -30 0 -28 2 -30 40 -30 22 0
40 5 40 10 0 6 18 10 40 10 l40 0 0 -80 0 -80 40 0 c22 0 40 -4 40 -10 0 -5
18 -10 40 -10 38 0 40 -2 40 -30 0 -25 4 -30 25 -30 14 0 28 -6 31 -13 4 -10
19 -13 54 -9 46 4 50 3 50 -17 0 -18 6 -21 40 -21 22 0 40 -4 40 -10 0 -6 40
-10 100 -10 l100 0 0 40 0 40 60 0 c33 0 60 -4 60 -10 0 -5 18 -10 40 -10 22
0 40 5 40 10 0 6 -18 10 -40 10 -22 0 -40 5 -40 10 0 6 -18 10 -40 10 -22 0
-40 5 -40 10 0 6 -33 10 -80 10 -73 0 -80 -2 -80 -20 0 -17 -7 -20 -40 -20
l-40 0 0 60 0 60 -40 0 c-33 0 -40 -3 -40 -20 0 -17 -7 -20 -40 -20 l-40 0 0
40 0 40 -40 0 -40 0 0 40 c0 37 2 40 27 40 l26 0 -24 26 -24 26 -3 -26 c-3
-23 -8 -26 -43 -26 -39 0 -39 0 -39 40 l0 40 -50 0 -50 0 0 40 c0 22 5 40 10
40 6 0 10 9 10 20 0 17 -7 20 -40 20 l-40 0 0 140 0 140 40 0 40 0 0 40 0 40
40 0 40 0 0 -40 c0 -22 5 -40 10 -40 6 0 10 18 10 40 0 22 -4 40 -10 40 -5 0
-10 5 -10 10 0 6 33 10 80 10 47 0 80 -4 80 -10 0 -5 18 -10 40 -10 22 0 40
-4 40 -10 0 -6 33 -10 80 -10 l80 0 0 30 c0 27 3 30 34 30 39 0 96 18 96 31 0
5 7 9 15 9 11 0 15 11 15 40 0 33 3 40 20 40 17 0 20 7 20 40 0 22 5 40 10 40
6 0 10 18 10 40 0 33 3 40 20 40 17 0 20 7 20 40 0 22 5 40 10 40 6 0 10 18
10 40 0 22 5 40 10 40 6 0 10 18 10 40 0 22 5 40 10 40 6 0 10 18 10 40 0 22
5 40 10 40 6 0 10 18 10 40 0 22 5 40 10 40 6 0 10 18 10 40 0 22 5 40 10 40
6 0 10 18 10 40 0 22 5 40 10 40 6 0 10 18 10 40 0 34 3 40 22 40 12 0 30 7
40 17 17 15 18 15 18 0 0 -13 9 -17 40 -17 29 0 40 -4 40 -15 0 -8 6 -25 13
-36 10 -17 10 -23 0 -26 -7 -3 -13 -14 -13 -25 0 -17 2 -18 15 -8 18 15 20 14
29 -22 3 -15 2 -28 -5 -30 -6 -2 1 -16 15 -31 27 -29 33 -47 16 -47 -5 0 -10
-18 -10 -40 0 -22 5 -40 10 -40 16 0 12 -22 -9 -44 -16 -18 -17 -29 -11 -76 5
-30 9 -88 9 -127 1 -42 5 -73 11 -73 6 0 10 -33 10 -80 0 -67 3 -80 16 -80 14
0 15 -10 9 -80 -7 -77 -6 -80 14 -80 18 0 21 -6 21 -40 0 -22 5 -40 10 -40 6
0 10 -11 10 -24 0 -14 5 -28 10 -31 17 -10 11 -25 -10 -25 -17 0 -20 -7 -20
-40 0 -22 -4 -40 -10 -40 -5 0 -10 -18 -10 -40 0 -33 -3 -40 -20 -40 -14 0
-20 -7 -20 -23 0 -13 -5 -28 -12 -35 -7 -7 -11 -32 -9 -57 2 -35 -1 -45 -13
-45 -12 0 -16 -10 -16 -40 0 -29 -4 -40 -15 -40 -8 0 -15 7 -15 17 0 14 -2 14
-20 -2 -13 -12 -20 -31 -20 -57 0 -21 -4 -38 -10 -38 -5 0 -10 -18 -10 -40 0
-22 -4 -40 -10 -40 -5 0 -10 7 -10 17 0 14 -2 14 -20 -2 -26 -24 -25 -44 3
-54 17 -7 28 -4 48 15 14 13 35 24 47 24 12 0 22 6 22 13 0 6 14 23 30 36 17
13 30 29 30 36 0 8 8 16 18 19 29 9 55 62 42 85 -17 33 -12 51 14 51 21 0 24
5 30 61 9 88 8 99 -9 99 -10 0 -15 10 -15 28 0 28 2 29 38 23 28 -5 38 -11 40
-29 6 -38 22 -24 22 18 0 36 3 40 25 40 23 0 25 4 25 40 0 29 4 40 15 40 11 0
15 11 15 40 0 38 2 40 30 40 28 0 30 2 30 40 l0 40 40 0 40 0 0 80 0 80 40 0
40 0 0 100 0 100 40 0 c38 0 40 -2 40 -30 0 -28 2 -30 40 -30 l40 0 0 50 0 50
70 0 c39 0 70 3 70 6 0 3 -5 14 -10 24 -11 20 2 70 18 70 10 0 42 -69 51 -110
4 -14 18 -31 34 -38 26 -13 37 -32 17 -32 -5 0 -10 -10 -10 -22 0 -21 1 -21
13 -4 13 17 15 16 36 -18 13 -20 28 -36 35 -36 7 0 18 -11 24 -25 6 -14 15
-25 20 -25 12 0 52 -35 52 -46 0 -13 56 -64 69 -64 6 0 11 -7 11 -16 0 -9 14
-21 30 -27 17 -6 30 -17 30 -24 0 -7 4 -13 8 -13 5 0 14 -11 20 -25 6 -14 20
-25 30 -25 10 0 27 -7 38 -15 18 -14 18 -14 1 -15 -32 0 -12 -23 23 -26 18 -2
36 -7 39 -12 3 -5 23 -12 44 -16 20 -4 37 -11 37 -16 0 -6 8 -10 19 -10 10 0
21 -9 24 -19 3 -12 18 -22 38 -26 19 -4 43 -14 54 -21 11 -8 39 -14 62 -14 30
0 43 -4 43 -14 0 -7 14 -16 30 -19 38 -8 38 -19 0 -35 -26 -12 -30 -19 -30
-53 0 -39 0 -39 -40 -39 l-40 0 0 -80 0 -80 -40 0 -40 0 0 -160 0 -160 -40 0
-40 0 0 -40 0 -40 40 0 40 0 0 -40 0 -40 80 0 80 0 0 -40 0 -40 120 0 120 0 0
25 c0 23 4 25 40 25 29 0 40 4 40 15 0 11 11 15 40 15 l40 0 0 40 0 40 80 0
c79 0 80 0 80 25 0 23 4 25 40 25 29 0 40 4 40 15 0 11 11 15 40 15 l40 0 0
40 0 40 40 0 40 0 0 40 0 40 40 0 40 0 0 40 0 40 40 0 c34 0 40 -3 40 -22 l0
-21 23 21 c13 12 31 22 40 22 13 0 17 9 17 40 l0 40 40 0 40 0 0 55 0 55 38 0
c28 0 45 7 62 25 13 14 32 25 42 25 11 0 18 7 18 18 0 23 40 62 63 62 13 0 17
9 17 35 0 38 13 56 70 96 l35 24 -29 5 c-29 5 -29 5 23 33 29 16 71 46 93 68
23 21 45 39 49 39 12 0 239 233 239 246 0 2 13 17 28 33 15 17 34 42 42 58 8
15 21 32 27 36 7 4 13 15 13 23 0 9 6 22 13 29 31 35 37 45 37 60 0 8 7 15 15
15 8 0 15 6 15 13 0 6 12 35 25 62 14 28 25 58 25 68 0 9 4 17 9 17 5 0 17 21
27 48 10 26 21 52 26 58 4 6 11 39 14 73 4 33 11 61 15 61 5 0 9 15 10 33 1
52 24 163 32 150 4 -6 5 -17 2 -25 -3 -7 1 -22 9 -33 15 -19 15 -19 16 8 0 25
3 27 40 27 l40 0 0 40 c0 22 5 40 10 40 6 0 10 18 10 40 0 22 -4 40 -10 40 -5
0 -10 18 -10 40 0 33 3 40 20 40 18 0 20 7 20 80 0 73 -2 80 -20 80 -17 0 -20
7 -20 40 0 22 5 40 10 40 6 0 10 18 10 40 0 22 -4 40 -10 40 -5 0 -10 -18 -10
-40 0 -22 -4 -40 -10 -40 -6 0 -10 33 -10 80 0 47 -4 80 -10 80 -5 0 -10 18
-10 40 0 33 3 40 20 40 17 0 20 7 20 40 l0 40 -40 0 -40 0 0 -40 c0 -22 -4
-40 -10 -40 -5 0 -10 18 -10 40 0 22 -4 40 -10 40 -5 0 -10 18 -10 40 0 33 3
40 20 40 19 0 20 7 20 120 l0 120 -40 0 -40 0 0 120 0 120 -40 0 -40 0 0 200
0 200 -40 0 -40 0 0 120 0 120 -80 0 -80 0 0 80 0 80 -40 0 -40 0 0 40 0 40
-40 0 -40 0 0 40 0 40 40 0 40 0 0 105 0 105 -40 0 -40 0 0 -105 0 -105 -40 0
-40 0 0 40 0 40 -40 0 -40 0 0 120 0 120 -40 0 -40 0 0 -40 0 -40 -40 0 -40 0
0 40 0 40 -80 0 -80 0 0 40 0 40 80 0 80 0 0 40 0 40 -120 0 -120 0 0 40 0 40
-80 0 -80 0 0 -40 0 -40 -40 0 -40 0 0 40 0 40 -40 0 -40 0 0 40 0 40 -40 0
-40 0 0 40 0 40 -80 0 -80 0 0 80 0 80 -120 0 -120 0 0 40 0 40 -40 0 -40 0 0
40 0 40 -80 0 -80 0 0 40 0 40 -40 0 -40 0 0 -40 0 -40 -40 0 -40 0 0 40 0 40
-40 0 -40 0 0 80 0 80 40 0 40 0 0 -40 0 -40 40 0 40 0 0 40 0 40 40 0 40 0 0
40 0 40 -160 0 -160 0 0 40 0 40 40 0 40 0 0 40 0 40 -40 0 -40 0 0 40 0 40
80 0 80 0 0 40 0 40 40 0 40 0 0 40 0 40 -200 0 -200 0 0 40 0 40 -80 0 -80 0
0 -40 0 -40 -120 0 -120 0 0 -40 0 -40 -40 0 -40 0 0 40 0 40 -40 0 -40 0 0
-40 0 -40 40 0 40 0 0 -40 0 -40 -80 0 -80 0 0 80 0 80 -40 0 -40 0 0 40 0 40
-80 0 -80 0 0 40 0 40 -80 0 c-64 0 -80 3 -80 15 0 11 -11 15 -40 15 -38 0
-40 1 -40 32 l0 31 -120 -6 c-103 -6 -120 -5 -120 8 0 11 -11 15 -40 15 -38 0
-40 2 -40 30 l0 30 -80 0 c-47 0 -80 4 -80 10 0 6 -33 10 -80 10 -64 0 -80 -3
-80 -15 0 -11 -11 -15 -40 -15 -36 0 -40 3 -40 25 l0 25 -120 0 c-100 0 -120
3 -120 15 0 11 -11 15 -40 15 -29 0 -40 4 -40 15 0 12 -16 15 -80 15 -47 0
-80 4 -80 10 0 6 -33 10 -80 10 l-80 0 0 30 c0 28 -2 30 -40 30 -22 0 -40 5
-40 10 0 6 -18 10 -40 10 -29 0 -40 4 -40 15 0 11 -11 15 -40 15 -22 0 -40 4
-40 9 0 5 -36 12 -80 16 -44 4 -80 11 -80 16 0 5 -18 9 -40 9 -33 0 -40 3 -40
20 0 17 -7 20 -40 20 -22 0 -40 5 -40 10 0 6 -18 10 -40 10 -22 0 -40 5 -40
10 0 6 -18 10 -40 10 -22 0 -40 5 -40 10 0 6 -18 10 -40 10 -33 0 -40 3 -40
20 0 17 -7 20 -40 20 -22 0 -40 5 -40 10 0 6 -18 10 -40 10 -29 0 -40 4 -40
15 0 8 5 15 11 15 8 0 8 5 -1 15 -7 9 -29 15 -51 15 -22 0 -39 5 -39 10 0 6
-18 10 -40 10 -29 0 -40 4 -40 15 0 11 -11 15 -40 15 -22 0 -40 5 -40 10 0 6
-18 10 -40 10 -38 0 -40 2 -40 30 0 20 -5 30 -15 30 -8 0 -25 11 -39 25 -19
18 -36 25 -66 25 -28 0 -40 4 -40 14 0 8 5 16 12 18 9 3 9 6 0 12 -7 4 -12 2
-12 -3 0 -6 -7 -11 -15 -11 -11 0 -15 11 -15 40 0 36 -2 40 -25 40 -14 0 -25
4 -25 9 0 12 -59 71 -71 71 -5 0 -9 4 -9 9 0 5 -13 24 -29 41 -16 17 -33 36
-38 41 -4 5 -21 19 -36 30 -17 13 -26 27 -23 36 5 12 -26 68 -46 83 -4 3 -11
24 -16 46 -5 22 -15 49 -21 60 -10 15 -11 1 -7 -75z m4296 -1671 l0 -40 -40 0
-40 0 0 -40 0 -40 -80 0 -80 0 0 -80 0 -80 80 0 80 0 0 -40 0 -40 -40 0 -40 0
0 -40 0 -40 -40 0 -40 0 0 40 0 40 -160 0 -160 0 0 40 0 40 40 0 40 0 0 80 0
80 -80 0 -80 0 0 40 0 40 80 0 80 0 0 40 0 40 240 0 240 0 0 -40z m-720 -320
l0 -120 -40 0 -40 0 0 120 0 120 40 0 40 0 0 -120z m1759 -1711 c102 -12 234
-49 320 -89 35 -17 70 -30 78 -30 17 0 76 -31 81 -42 2 -5 10 -8 18 -8 15 0
81 -35 105 -56 8 -8 19 -14 23 -14 12 0 69 -44 89 -67 10 -13 27 -23 38 -23
10 0 19 -7 19 -15 0 -8 7 -15 15 -15 10 0 15 -10 15 -27 -1 -27 -1 -27 -15 -9
-8 10 -16 22 -17 25 -2 4 -20 17 -40 29 -25 16 -45 21 -62 16 -22 -5 -26 -12
-26 -45 0 -39 0 -39 -40 -39 l-40 0 0 -70 0 -70 -40 0 c-39 0 -40 -1 -40 -35
0 -34 -1 -35 -40 -35 -29 0 -40 -4 -40 -15 0 -12 14 -15 65 -15 l65 0 0 -40
c0 -36 -2 -40 -25 -40 -20 0 -25 5 -25 25 0 23 -4 25 -40 25 -22 0 -40 4 -40
9 0 5 -22 11 -48 13 -38 4 -55 12 -82 40 -31 31 -43 36 -105 44 -38 4 -86 7
-106 5 -28 -2 -40 3 -51 18 -15 21 -15 21 -33 1 -24 -26 -55 -26 -55 0 0 11
-4 20 -10 20 -5 0 -19 -9 -30 -20 -22 -22 -40 -26 -40 -10 0 6 -7 10 -15 10
-8 0 -15 -4 -15 -10 0 -5 -11 -10 -25 -10 -14 0 -25 5 -25 10 0 6 7 10 15 10
8 0 15 9 15 20 0 11 -7 20 -15 20 -8 0 -15 5 -15 10 0 6 -18 10 -40 10 -38 0
-40 -2 -40 -30 0 -16 -4 -30 -8 -30 -14 0 -72 68 -72 85 0 12 -15 15 -80 15
-47 0 -80 4 -80 10 0 6 -60 10 -160 10 -100 0 -160 4 -160 10 0 6 33 10 80 10
47 0 80 4 80 10 0 6 -18 10 -40 10 l-40 0 0 40 c0 40 0 40 -39 40 -22 0 -41 4
-43 9 -4 11 -158 19 -158 9 0 -5 -7 -8 -15 -8 -8 0 -15 -7 -15 -15 0 -9 -9
-15 -25 -15 -18 0 -25 -5 -25 -20 0 -23 -5 -24 -49 -9 -42 15 -39 29 5 29 27
0 37 5 41 20 3 11 12 20 19 20 8 0 18 10 23 23 9 24 38 42 85 52 15 3 30 14
33 24 5 18 118 81 147 81 9 0 16 3 16 8 0 8 49 32 67 32 7 0 13 5 13 10 0 6
18 10 40 10 22 0 40 5 40 10 0 6 9 10 19 10 11 0 23 5 26 10 3 6 48 10 101 10
56 0 94 4 94 10 0 13 291 13 399 -1z m-2159 -929 l0 -40 160 0 160 0 0 -79 0
-79 -120 -1 -120 0 0 39 0 40 -80 0 -80 0 0 80 0 80 40 0 40 0 0 -40z m-2000
-1200 l0 -120 -40 0 -40 0 0 120 0 120 40 0 40 0 0 -120z"/>
<path d="M24553 11132 c-122 -2 -153 -5 -153 -16 0 -10 22 -16 80 -21 44 -4
80 -11 80 -16 0 -5 43 -9 95 -9 l95 0 0 29 c0 36 -3 37 -197 33z"/>
<path d="M21102 6490 c-6 -58 -12 -127 -13 -155 0 -49 -13 -138 -42 -285 -40
-200 -160 -553 -252 -738 -20 -41 -40 -84 -46 -95 -5 -12 -13 -29 -18 -37 -5
-8 -24 -44 -42 -80 -37 -74 -96 -170 -113 -185 -6 -5 -24 -35 -40 -65 -16 -30
-35 -62 -42 -71 -8 -8 -14 -19 -14 -23 0 -10 -58 -92 -87 -126 -13 -13 -23
-28 -23 -33 0 -4 -17 -26 -39 -50 -21 -23 -41 -52 -45 -64 -4 -12 -16 -25 -27
-28 -10 -4 -19 -11 -19 -16 0 -14 -52 -87 -92 -129 -18 -20 -49 -55 -68 -79
-28 -34 -165 -182 -207 -224 -4 -4 -63 -61 -130 -127 -68 -66 -125 -120 -127
-120 -2 0 -24 -19 -48 -42 -24 -24 -55 -52 -69 -63 -72 -58 -135 -110 -139
-115 -12 -12 -89 -70 -94 -70 -3 0 -16 -10 -29 -22 -32 -32 -75 -65 -122 -96
-22 -15 -42 -29 -45 -32 -18 -19 -90 -70 -99 -70 -6 0 -11 -4 -11 -10 0 -5 -4
-10 -10 -10 -5 0 -18 -6 -27 -14 -75 -61 -318 -226 -334 -226 -5 0 -9 -4 -9
-8 0 -5 -15 -16 -32 -25 -18 -9 -51 -28 -73 -42 -22 -14 -48 -28 -57 -31 -10
-4 -18 -10 -18 -14 0 -4 -11 -11 -25 -14 -14 -4 -25 -11 -25 -16 0 -6 -4 -10
-9 -10 -5 0 -40 -18 -77 -40 -38 -22 -77 -40 -86 -40 -10 0 -18 -4 -18 -9 0
-5 -12 -16 -27 -24 -16 -7 -55 -29 -88 -47 -33 -18 -80 -44 -105 -57 -25 -13
-52 -28 -60 -32 -8 -5 -45 -23 -82 -40 -37 -17 -70 -36 -73 -41 -3 -6 -13 -10
-21 -10 -8 0 -66 -25 -129 -55 -64 -30 -120 -55 -125 -55 -6 0 -10 -4 -10 -9
0 -5 -12 -12 -26 -15 -14 -4 -58 -22 -98 -41 -39 -18 -123 -54 -186 -80 -63
-26 -143 -60 -176 -76 -34 -15 -81 -33 -105 -40 -24 -7 -46 -16 -49 -19 -3 -3
-25 -12 -50 -20 -25 -7 -63 -21 -85 -31 -22 -9 -71 -28 -110 -42 -38 -13 -97
-34 -130 -46 -114 -42 -470 -158 -505 -166 -19 -4 -39 -11 -45 -15 -5 -4 -48
-17 -95 -29 -47 -13 -94 -26 -105 -31 -40 -15 -92 -29 -215 -60 -69 -17 -138
-35 -155 -40 -16 -6 -79 -21 -140 -36 -60 -14 -130 -32 -155 -39 -25 -8 -99
-26 -165 -40 -66 -15 -147 -33 -180 -40 -33 -7 -98 -21 -145 -30 -47 -9 -112
-23 -145 -30 -96 -22 -239 -47 -475 -85 -36 -6 -90 -15 -120 -20 -136 -23
-267 -42 -420 -60 -91 -11 -219 -27 -285 -35 -255 -32 -528 -54 -975 -81 -354
-22 -1393 -25 -1710 -6 -572 34 -904 65 -1421 131 -393 51 -580 80 -839 131
-25 5 -94 19 -155 31 -105 20 -249 52 -470 105 -186 44 -539 136 -650 169 -44
14 -127 38 -185 55 -164 48 -188 55 -305 95 -140 48 -182 63 -335 120 -69 26
-161 60 -205 76 -44 16 -93 35 -110 43 -16 8 -41 18 -55 24 -14 5 -41 17 -60
25 -19 8 -66 27 -105 42 -66 27 -127 54 -255 112 -30 14 -80 36 -110 50 -103
47 -485 238 -491 246 -3 4 -35 23 -70 40 -85 44 -178 96 -211 119 -14 10 -29
18 -33 18 -3 0 -26 13 -50 30 -24 16 -46 30 -49 30 -3 0 -38 21 -78 47 -40 27
-77 50 -83 53 -18 9 -220 143 -225 149 -3 3 -12 11 -21 16 -47 29 -192 134
-199 144 -3 4 -31 24 -63 45 -32 20 -65 45 -75 55 -9 9 -35 30 -57 46 -22 16
-42 32 -45 35 -3 3 -34 30 -70 59 -57 47 -128 111 -289 258 -25 24 -49 43 -53
43 -5 0 -8 6 -8 13 -1 6 -18 25 -38 41 -20 17 -63 59 -95 95 -31 36 -74 84
-95 107 -59 65 -92 103 -92 108 0 3 -12 18 -27 35 -32 34 -66 75 -91 110 -9
13 -26 34 -37 46 -11 11 -33 40 -49 64 -16 23 -34 45 -40 49 -6 4 -17 18 -24
32 -19 37 -36 66 -55 92 -38 52 -110 164 -115 178 -3 8 -13 24 -23 35 -10 11
-37 56 -59 100 -22 44 -60 118 -85 165 -25 47 -57 114 -71 150 -15 36 -30 69
-35 74 -5 6 -9 20 -9 32 0 12 -3 24 -7 26 -5 2 -18 30 -29 63 -12 33 -31 85
-42 115 -11 30 -23 69 -27 85 l-8 30 -9 -40 c-7 -33 -4 -55 17 -120 15 -44 33
-93 40 -110 36 -84 75 -191 106 -295 12 -41 26 -82 30 -90 4 -8 20 -42 34 -75
15 -33 31 -67 35 -75 5 -8 36 -67 68 -130 79 -154 96 -184 105 -188 4 -2 7
-10 7 -18 0 -8 4 -14 9 -14 5 0 13 -10 17 -22 4 -13 17 -37 30 -54 13 -17 24
-35 24 -41 0 -5 8 -17 19 -27 10 -9 29 -38 42 -64 13 -26 30 -53 37 -61 8 -8
25 -32 38 -53 23 -35 44 -63 69 -92 6 -6 22 -27 35 -46 13 -19 30 -41 37 -48
7 -7 13 -17 13 -20 0 -4 10 -18 22 -32 13 -14 51 -57 85 -95 33 -39 87 -97
119 -130 122 -128 266 -275 269 -275 2 0 25 -21 52 -47 67 -66 183 -163 194
-163 5 0 9 -5 9 -11 0 -14 1 -15 107 -95 44 -33 87 -66 94 -72 60 -50 102 -82
109 -82 4 0 23 -13 41 -30 19 -16 37 -30 41 -30 4 0 13 -6 20 -13 27 -27 125
-97 136 -97 5 0 12 -3 14 -7 3 -9 122 -88 176 -119 17 -10 32 -22 32 -26 0 -4
6 -8 14 -8 8 0 16 -4 18 -9 4 -10 128 -87 258 -159 25 -13 50 -28 55 -32 10
-7 60 -36 160 -92 138 -76 201 -108 215 -108 5 0 10 -4 10 -9 0 -5 10 -13 23
-17 12 -3 63 -27 112 -51 216 -109 263 -131 312 -148 29 -11 53 -23 53 -27 0
-4 4 -8 9 -8 5 0 56 -22 113 -48 57 -27 116 -52 133 -56 16 -4 47 -16 70 -26
60 -27 225 -92 355 -140 63 -23 135 -50 160 -60 25 -10 61 -21 80 -25 19 -4
40 -11 45 -15 6 -4 57 -22 115 -39 58 -18 130 -41 160 -51 30 -10 102 -33 160
-50 58 -18 130 -41 160 -51 30 -10 129 -36 218 -59 90 -22 171 -44 180 -49 10
-4 37 -11 62 -15 25 -3 68 -13 95 -21 98 -28 307 -75 336 -75 16 0 29 -4 29
-10 0 -5 15 -10 33 -10 18 0 57 -6 87 -14 30 -7 96 -21 145 -30 50 -10 133
-26 185 -37 90 -19 127 -25 375 -63 85 -13 277 -39 635 -86 70 -10 361 -37
620 -60 126 -11 287 -19 483 -26 70 -2 153 -8 185 -12 64 -9 1183 -8 1277 1
33 3 175 11 315 17 140 6 264 14 275 17 10 3 53 7 95 9 128 5 385 31 680 68
68 9 143 16 165 16 23 0 45 4 51 9 5 4 90 18 189 30 99 13 207 29 240 36 33 7
112 21 175 30 63 9 119 19 123 22 10 6 212 35 247 35 13 0 37 8 51 19 15 10
37 19 48 19 12 0 68 11 124 24 168 40 290 68 332 76 37 7 238 59 313 81 92 27
124 35 217 58 51 12 165 46 185 54 8 3 42 13 75 22 96 26 252 75 445 140 212
71 265 90 270 96 3 4 21 10 40 14 19 4 48 14 65 21 16 7 57 23 90 35 33 13 64
27 70 31 5 4 19 8 32 8 13 0 23 5 23 10 0 6 7 10 15 10 8 0 23 4 33 9 9 5 67
28 127 52 61 23 139 55 175 71 36 16 74 33 85 37 11 4 40 17 65 29 25 12 48
22 52 22 7 0 307 143 422 201 43 22 87 45 97 50 11 5 29 14 42 21 12 7 60 32
107 56 47 24 92 49 100 56 8 6 29 18 45 26 17 8 48 26 70 40 22 14 53 32 70
40 16 8 58 32 92 52 35 21 67 38 72 38 5 0 11 3 13 8 3 7 64 52 71 52 14 0
382 252 454 310 7 6 17 10 23 10 5 0 10 4 10 8 0 4 18 19 40 32 22 14 40 28
40 33 0 4 5 7 11 7 9 0 98 67 119 90 3 3 25 21 50 40 25 19 52 41 61 49 31 31
85 76 117 99 85 60 587 562 633 632 9 14 29 39 45 56 49 53 107 125 144 178
19 28 37 53 40 56 18 17 60 80 60 89 0 6 3 11 8 11 4 0 18 18 32 40 14 22 28
40 32 40 5 0 8 4 8 9 0 5 16 33 35 63 19 29 38 62 41 73 4 11 14 29 23 40 10
11 41 59 69 106 41 69 51 92 46 115 -4 24 -1 31 18 39 13 6 22 17 20 24 -2 8
7 26 20 40 31 36 48 67 48 91 0 11 4 20 8 20 4 0 19 25 32 55 13 30 28 55 32
55 4 0 8 17 8 38 0 20 9 51 19 68 10 17 22 46 26 65 4 19 16 49 27 67 11 18
21 42 23 55 7 59 19 104 31 124 8 12 14 42 14 66 0 23 4 47 8 52 5 6 17 55 26
110 10 55 24 129 31 165 19 91 37 364 33 495 l-3 110 -13 -105z"/>
</g>
</svg>
